<mxfile modified="2021-05-05T20:31:21.794Z" host="app.diagrams.net" agent="5.0 (Windows NT 10.0; Win64; x64) AppleWebKit/537.36 (KHTML, like Gecko) Chrome/90.0.4430.93 Safari/537.36" etag="HWGNIKUGxwcl33WAE5aB" compressed="false" version="14.6.9" type="google" pages="13">
  <diagram id="NKSfDkZRmOSxUxKwB7ri" name="DEVELOPMENT VIEW">
    <mxGraphModel dx="1711" dy="732" grid="1" gridSize="10" guides="1" tooltips="1" connect="1" arrows="1" fold="1" page="1" pageScale="1" pageWidth="827" pageHeight="1169" math="0" shadow="0">
      <root>
        <mxCell id="J5CkqOMK--dU-kvgVaGy-0" />
        <mxCell id="J5CkqOMK--dU-kvgVaGy-1" value="Title" style="" parent="J5CkqOMK--dU-kvgVaGy-0" />
        <mxCell id="J5CkqOMK--dU-kvgVaGy-3" value="Development - Services - &lt;br&gt;View" style="text;html=1;strokeColor=none;fillColor=none;align=center;verticalAlign=middle;whiteSpace=wrap;rounded=0;fontSize=48;opacity=30;" parent="J5CkqOMK--dU-kvgVaGy-1" vertex="1">
          <mxGeometry x="160" y="200" width="480" height="320" as="geometry" />
        </mxCell>
        <mxCell id="clFsyeFSdHyiJYf1houk-0" value="About" style="" parent="J5CkqOMK--dU-kvgVaGy-0" />
      </root>
    </mxGraphModel>
  </diagram>
  <diagram id="NvC4lrgkEJ7TUnsP4KBl" name="Development/Services/Navigation">
    <mxGraphModel dx="1711" dy="732" grid="1" gridSize="10" guides="1" tooltips="1" connect="1" arrows="1" fold="1" page="1" pageScale="1" pageWidth="827" pageHeight="1169" math="0" shadow="0">
      <root>
        <mxCell id="Nm8vpdhzTIj2qfkSy5_M-0" />
        <mxCell id="Nm8vpdhzTIj2qfkSy5_M-1" value="Diagram" parent="Nm8vpdhzTIj2qfkSy5_M-0" />
        <mxCell id="2-SYaqQ5oHRsOTrbHDey-0" value="Infrastructure &lt;br&gt;Services" style="html=1;shadow=0;glass=0;comic=0;strokeColor=#000000;strokeWidth=1;fillColor=none;fontSize=10;fontColor=#000000;align=center;verticalAlign=top;recursiveResize=0;" parent="Nm8vpdhzTIj2qfkSy5_M-1" vertex="1">
          <mxGeometry x="120" y="200" width="360" height="320" as="geometry" />
        </mxCell>
        <mxCell id="2-SYaqQ5oHRsOTrbHDey-1" value="" style="shape=component;jettyWidth=8;jettyHeight=4;strokeColor=#000000;strokeWidth=1;fontColor=#000000;" parent="2-SYaqQ5oHRsOTrbHDey-0" vertex="1">
          <mxGeometry x="1" width="6" height="16" relative="1" as="geometry">
            <mxPoint x="-20" y="5" as="offset" />
          </mxGeometry>
        </mxCell>
        <mxCell id="fcfZMvfXYK5yUlBXQVF--1" value="&lt;p style=&quot;margin: 0px ; margin-top: 4px ; text-align: center&quot;&gt;&amp;lt;&amp;lt;interface&amp;gt;&amp;gt;&lt;br&gt;INavigationService&lt;/p&gt;&lt;hr size=&quot;1&quot;&gt;&lt;div style=&quot;height: 2px&quot;&gt;&lt;br&gt;&lt;/div&gt;" style="verticalAlign=top;align=left;overflow=fill;fontSize=12;fontFamily=Helvetica;html=1;shadow=0;glass=0;comic=0;strokeColor=#B3B3B3;strokeWidth=1;fillColor=none;" parent="2-SYaqQ5oHRsOTrbHDey-0" vertex="1">
          <mxGeometry x="10" y="40" width="150" height="81" as="geometry" />
        </mxCell>
        <mxCell id="fcfZMvfXYK5yUlBXQVF--2" value="&lt;p style=&quot;margin: 0px ; margin-top: 4px ; text-align: center&quot;&gt;NavigationService&lt;/p&gt;&lt;hr size=&quot;1&quot;&gt;&lt;div style=&quot;height: 2px&quot;&gt;&lt;br&gt;&lt;/div&gt;" style="verticalAlign=top;align=left;overflow=fill;fontSize=12;fontFamily=Helvetica;html=1;shadow=0;glass=0;comic=0;strokeColor=#B3B3B3;strokeWidth=1;fillColor=none;" parent="2-SYaqQ5oHRsOTrbHDey-0" vertex="1">
          <mxGeometry x="200" y="40.5" width="150" height="40" as="geometry" />
        </mxCell>
        <mxCell id="fcfZMvfXYK5yUlBXQVF--3" value="" style="endArrow=block;dashed=1;endFill=0;endSize=12;html=1;dashPattern=1 1;strokeColor=#000000;strokeWidth=1;fontSize=10;fontColor=#000000;exitX=0;exitY=0.5;exitDx=0;exitDy=0;entryX=1;entryY=0.25;entryDx=0;entryDy=0;" parent="2-SYaqQ5oHRsOTrbHDey-0" source="fcfZMvfXYK5yUlBXQVF--2" target="fcfZMvfXYK5yUlBXQVF--1" edge="1">
          <mxGeometry width="160" relative="1" as="geometry">
            <mxPoint x="200" y="176" as="sourcePoint" />
            <mxPoint x="360" y="176" as="targetPoint" />
          </mxGeometry>
        </mxCell>
        <mxCell id="2-SYaqQ5oHRsOTrbHDey-2" value="Shared &lt;br&gt;Models" style="html=1;shadow=0;glass=0;comic=0;strokeColor=#000000;strokeWidth=1;fillColor=none;fontSize=10;fontColor=#000000;align=center;verticalAlign=top;recursiveResize=0;" parent="Nm8vpdhzTIj2qfkSy5_M-1" vertex="1">
          <mxGeometry x="500" y="200" width="180" height="320" as="geometry" />
        </mxCell>
        <mxCell id="2-SYaqQ5oHRsOTrbHDey-3" value="" style="shape=component;jettyWidth=8;jettyHeight=4;strokeColor=#000000;strokeWidth=1;fontColor=#000000;" parent="2-SYaqQ5oHRsOTrbHDey-2" vertex="1">
          <mxGeometry x="1" width="6" height="16" relative="1" as="geometry">
            <mxPoint x="-20" y="5" as="offset" />
          </mxGeometry>
        </mxCell>
        <mxCell id="2jUk5HfspmmKN4Qg6uqx-0" value="Navigation" style="swimlane;fontStyle=0;childLayout=stackLayout;horizontal=1;startSize=26;fillColor=none;horizontalStack=0;resizeParent=1;resizeParentMax=0;resizeLast=0;collapsible=1;marginBottom=0;shadow=0;glass=0;comic=0;strokeColor=#000000;fontSize=10;opacity=30;html=1;" parent="2-SYaqQ5oHRsOTrbHDey-2" vertex="1">
          <mxGeometry x="20" y="40.23856209150326" width="140" height="169.15789473684214" as="geometry" />
        </mxCell>
        <mxCell id="2jUk5HfspmmKN4Qg6uqx-1" value="+ ID : Guid" style="text;strokeColor=none;fillColor=none;align=left;verticalAlign=top;spacingLeft=4;spacingRight=4;overflow=hidden;rotatable=0;points=[[0,0.5],[1,0.5]];portConstraint=eastwest;" parent="2jUk5HfspmmKN4Qg6uqx-0" vertex="1">
          <mxGeometry y="26" width="140" height="15.438596491228067" as="geometry" />
        </mxCell>
        <mxCell id="2jUk5HfspmmKN4Qg6uqx-2" value="+ ParentFK : Guid" style="text;strokeColor=none;fillColor=none;align=left;verticalAlign=top;spacingLeft=4;spacingRight=4;overflow=hidden;rotatable=0;points=[[0,0.5],[1,0.5]];portConstraint=eastwest;" parent="2jUk5HfspmmKN4Qg6uqx-0" vertex="1">
          <mxGeometry y="41.43859649122807" width="140" height="18.24561403508772" as="geometry" />
        </mxCell>
        <mxCell id="2jUk5HfspmmKN4Qg6uqx-3" value="+ Enabled : bool" style="text;strokeColor=none;fillColor=none;align=left;verticalAlign=top;spacingLeft=4;spacingRight=4;overflow=hidden;rotatable=0;points=[[0,0.5],[1,0.5]];portConstraint=eastwest;" parent="2jUk5HfspmmKN4Qg6uqx-0" vertex="1">
          <mxGeometry y="59.68421052631579" width="140" height="18.24561403508772" as="geometry" />
        </mxCell>
        <mxCell id="2jUk5HfspmmKN4Qg6uqx-4" value="+ Title : string" style="text;strokeColor=none;fillColor=none;align=left;verticalAlign=top;spacingLeft=4;spacingRight=4;overflow=hidden;rotatable=0;points=[[0,0.5],[1,0.5]];portConstraint=eastwest;" parent="2jUk5HfspmmKN4Qg6uqx-0" vertex="1">
          <mxGeometry y="77.9298245614035" width="140" height="18.24561403508772" as="geometry" />
        </mxCell>
        <mxCell id="2jUk5HfspmmKN4Qg6uqx-5" value="+ Description : string" style="text;strokeColor=none;fillColor=none;align=left;verticalAlign=top;spacingLeft=4;spacingRight=4;overflow=hidden;rotatable=0;points=[[0,0.5],[1,0.5]];portConstraint=eastwest;" parent="2jUk5HfspmmKN4Qg6uqx-0" vertex="1">
          <mxGeometry y="96.17543859649123" width="140" height="18.24561403508772" as="geometry" />
        </mxCell>
        <mxCell id="2jUk5HfspmmKN4Qg6uqx-6" value="+ KeyboardShortcut : string" style="text;strokeColor=none;fillColor=none;align=left;verticalAlign=top;spacingLeft=4;spacingRight=4;overflow=hidden;rotatable=0;points=[[0,0.5],[1,0.5]];portConstraint=eastwest;" parent="2jUk5HfspmmKN4Qg6uqx-0" vertex="1">
          <mxGeometry y="114.42105263157896" width="140" height="18.24561403508772" as="geometry" />
        </mxCell>
        <mxCell id="2jUk5HfspmmKN4Qg6uqx-7" value="+ DisplayStyleHint : string" style="text;strokeColor=none;fillColor=none;align=left;verticalAlign=top;spacingLeft=4;spacingRight=4;overflow=hidden;rotatable=0;points=[[0,0.5],[1,0.5]];portConstraint=eastwest;" parent="2jUk5HfspmmKN4Qg6uqx-0" vertex="1">
          <mxGeometry y="132.66666666666669" width="140" height="18.24561403508772" as="geometry" />
        </mxCell>
        <mxCell id="2jUk5HfspmmKN4Qg6uqx-8" value="+ DisplayOrderHint : string" style="text;strokeColor=none;fillColor=none;align=left;verticalAlign=top;spacingLeft=4;spacingRight=4;overflow=hidden;rotatable=0;points=[[0,0.5],[1,0.5]];portConstraint=eastwest;" parent="2jUk5HfspmmKN4Qg6uqx-0" vertex="1">
          <mxGeometry y="150.9122807017544" width="140" height="18.24561403508772" as="geometry" />
        </mxCell>
        <mxCell id="J37-M1zIvlNbOXOFJyaj-2" value="Title/Diagram" parent="Nm8vpdhzTIj2qfkSy5_M-0" />
        <mxCell id="J37-M1zIvlNbOXOFJyaj-3" value="&lt;font style=&quot;font-size: 12px ; font-weight: normal&quot;&gt;&lt;i&gt;&lt;span&gt;Platform: &lt;/span&gt;Development - Core Module - Navigation&lt;/i&gt;&lt;/font&gt;" style="text;strokeColor=none;fillColor=none;html=1;fontSize=10;fontStyle=1;verticalAlign=middle;align=left;shadow=0;glass=0;comic=0;opacity=30;fontColor=#808080;" parent="J37-M1zIvlNbOXOFJyaj-2" vertex="1">
          <mxGeometry x="120" y="580" width="520" height="20" as="geometry" />
        </mxCell>
        <mxCell id="J37-M1zIvlNbOXOFJyaj-1" value="Title/Page" parent="Nm8vpdhzTIj2qfkSy5_M-0" visible="0" />
        <mxCell id="2jUk5HfspmmKN4Qg6uqx-12" value="" style="group;fontSize=10;" parent="J37-M1zIvlNbOXOFJyaj-1" vertex="1" connectable="0">
          <mxGeometry x="120" y="120" width="560" height="45" as="geometry" />
        </mxCell>
        <mxCell id="2jUk5HfspmmKN4Qg6uqx-9" value="&lt;font style=&quot;font-size: 12px&quot;&gt;&lt;span&gt;Base Logical Module -&amp;nbsp;&lt;/span&gt;Development - Core Module - Navigation&lt;/font&gt;" style="text;strokeColor=none;fillColor=none;html=1;fontSize=10;fontStyle=1;verticalAlign=middle;align=left;shadow=0;glass=0;comic=0;opacity=30;fontColor=#808080;" parent="2jUk5HfspmmKN4Qg6uqx-12" vertex="1">
          <mxGeometry width="560" height="40" as="geometry" />
        </mxCell>
        <mxCell id="2jUk5HfspmmKN4Qg6uqx-11" value="" style="line;strokeWidth=2;html=1;shadow=0;glass=0;comic=0;fillColor=none;fontSize=10;fontColor=#CCCCCC;labelBackgroundColor=none;strokeColor=#CCCCCC;" parent="2jUk5HfspmmKN4Qg6uqx-12" vertex="1">
          <mxGeometry y="35" width="560" height="10" as="geometry" />
        </mxCell>
      </root>
    </mxGraphModel>
  </diagram>
  <diagram id="S3B9kv43_loRq88S0Tay" name="Development/Services/Context">
    <mxGraphModel dx="1711" dy="732" grid="1" gridSize="10" guides="1" tooltips="1" connect="1" arrows="1" fold="1" page="1" pageScale="1" pageWidth="827" pageHeight="1169" math="0" shadow="0">
      <root>
        <mxCell id="EgZr2LcmJEDWXL0hmBNo-0" />
        <mxCell id="EgZr2LcmJEDWXL0hmBNo-1" value="Diagram" parent="EgZr2LcmJEDWXL0hmBNo-0" />
        <mxCell id="uqBgnCegoOrOPMikg6ZO-0" value="Infrastructure &lt;br style=&quot;font-size: 10px;&quot;&gt;Services" style="html=1;shadow=0;glass=0;comic=0;strokeColor=#000000;strokeWidth=1;fillColor=none;fontSize=10;fontColor=#000000;align=center;verticalAlign=top;recursiveResize=0;" parent="EgZr2LcmJEDWXL0hmBNo-1" vertex="1">
          <mxGeometry x="120" y="200" width="340" height="500" as="geometry" />
        </mxCell>
        <mxCell id="uqBgnCegoOrOPMikg6ZO-1" value="" style="shape=component;jettyWidth=8;jettyHeight=4;strokeColor=#000000;strokeWidth=1;fontColor=#000000;fontSize=10;" parent="uqBgnCegoOrOPMikg6ZO-0" vertex="1">
          <mxGeometry x="1" width="6" height="16" relative="1" as="geometry">
            <mxPoint x="-20" y="5" as="offset" />
          </mxGeometry>
        </mxCell>
        <mxCell id="uqBgnCegoOrOPMikg6ZO-2" value="&lt;p style=&quot;margin: 4px 0px 0px; text-align: center; font-size: 10px;&quot;&gt;&amp;lt;&amp;lt;interface&amp;gt;&amp;gt;&lt;br style=&quot;font-size: 10px;&quot;&gt;ISessionService&lt;/p&gt;&lt;hr style=&quot;font-size: 10px;&quot;&gt;&lt;div style=&quot;height: 2px; font-size: 10px;&quot;&gt;+ Get() : Session&lt;/div&gt;" style="verticalAlign=top;align=left;overflow=fill;fontSize=10;fontFamily=Helvetica;html=1;shadow=0;glass=0;comic=0;strokeColor=#B3B3B3;strokeWidth=1;fillColor=none;" parent="uqBgnCegoOrOPMikg6ZO-0" vertex="1">
          <mxGeometry x="10" y="161" width="150" height="80" as="geometry" />
        </mxCell>
        <mxCell id="uqBgnCegoOrOPMikg6ZO-3" value="&lt;p style=&quot;margin: 4px 0px 0px; text-align: center; font-size: 10px;&quot;&gt;SessionService&lt;/p&gt;&lt;hr style=&quot;font-size: 10px;&quot;&gt;&lt;div style=&quot;height: 2px; font-size: 10px;&quot;&gt;&lt;br style=&quot;font-size: 10px;&quot;&gt;&lt;/div&gt;" style="verticalAlign=top;align=left;overflow=fill;fontSize=10;fontFamily=Helvetica;html=1;shadow=0;glass=0;comic=0;strokeColor=#B3B3B3;strokeWidth=1;fillColor=none;" parent="uqBgnCegoOrOPMikg6ZO-0" vertex="1">
          <mxGeometry x="200" y="160.5" width="120" height="40" as="geometry" />
        </mxCell>
        <mxCell id="uqBgnCegoOrOPMikg6ZO-4" value="" style="endArrow=block;dashed=1;endFill=0;endSize=12;html=1;dashPattern=1 1;strokeColor=#000000;strokeWidth=1;fontSize=10;fontColor=#000000;exitX=0;exitY=0.5;exitDx=0;exitDy=0;entryX=1;entryY=0.25;entryDx=0;entryDy=0;" parent="uqBgnCegoOrOPMikg6ZO-0" source="uqBgnCegoOrOPMikg6ZO-3" target="uqBgnCegoOrOPMikg6ZO-2" edge="1">
          <mxGeometry width="160" relative="1" as="geometry">
            <mxPoint x="190" y="296" as="sourcePoint" />
            <mxPoint x="350" y="296" as="targetPoint" />
          </mxGeometry>
        </mxCell>
        <mxCell id="uqBgnCegoOrOPMikg6ZO-16" value="&lt;p style=&quot;margin: 4px 0px 0px; text-align: center; font-size: 10px;&quot;&gt;&amp;lt;&amp;lt;interface&amp;gt;&amp;gt;&lt;br style=&quot;font-size: 10px;&quot;&gt;ITenantService&lt;/p&gt;&lt;hr style=&quot;font-size: 10px;&quot;&gt;&lt;div style=&quot;height: 2px; font-size: 10px;&quot;&gt;+ Get() : Tenant&lt;/div&gt;" style="verticalAlign=top;align=left;overflow=fill;fontSize=10;fontFamily=Helvetica;html=1;shadow=0;glass=0;comic=0;strokeColor=#B3B3B3;strokeWidth=1;fillColor=none;" parent="uqBgnCegoOrOPMikg6ZO-0" vertex="1">
          <mxGeometry x="10" y="280" width="150" height="81" as="geometry" />
        </mxCell>
        <mxCell id="uqBgnCegoOrOPMikg6ZO-17" value="&lt;span style=&quot;font-size: 10px&quot;&gt;Tenant&lt;/span&gt;&lt;span style=&quot;font-size: 10px&quot;&gt;Service&lt;/span&gt;&lt;span style=&quot;font-size: 10px&quot;&gt;&lt;br style=&quot;font-size: 10px&quot;&gt;&lt;/span&gt;&lt;hr style=&quot;font-size: 10px&quot;&gt;&lt;div style=&quot;height: 2px ; font-size: 10px&quot;&gt;&lt;br style=&quot;font-size: 10px&quot;&gt;&lt;/div&gt;" style="verticalAlign=top;align=center;overflow=fill;fontSize=10;fontFamily=Helvetica;html=1;shadow=0;glass=0;comic=0;strokeColor=#B3B3B3;strokeWidth=1;fillColor=none;" parent="uqBgnCegoOrOPMikg6ZO-0" vertex="1">
          <mxGeometry x="200" y="280" width="120" height="40" as="geometry" />
        </mxCell>
        <mxCell id="uqBgnCegoOrOPMikg6ZO-18" value="" style="endArrow=block;dashed=1;endFill=0;endSize=12;html=1;dashPattern=1 1;strokeColor=#000000;strokeWidth=1;fontSize=10;fontColor=#000000;exitX=0;exitY=0.5;exitDx=0;exitDy=0;entryX=1;entryY=0.25;entryDx=0;entryDy=0;" parent="uqBgnCegoOrOPMikg6ZO-0" source="uqBgnCegoOrOPMikg6ZO-17" target="uqBgnCegoOrOPMikg6ZO-16" edge="1">
          <mxGeometry width="160" relative="1" as="geometry">
            <mxPoint x="280" y="310.5" as="sourcePoint" />
            <mxPoint x="240" y="310.75" as="targetPoint" />
          </mxGeometry>
        </mxCell>
        <mxCell id="xFMtJE48Tb6UNPKclb0Q-1" value="&lt;p style=&quot;margin: 4px 0px 0px; text-align: center; font-size: 10px;&quot;&gt;&amp;lt;&amp;lt;interface&amp;gt;&amp;gt;&lt;br style=&quot;font-size: 10px;&quot;&gt;ITenantMemberService&lt;/p&gt;&lt;hr style=&quot;font-size: 10px;&quot;&gt;&lt;div style=&quot;height: 2px; font-size: 10px;&quot;&gt;+ Get() : TenantMember&lt;/div&gt;" style="verticalAlign=top;align=left;overflow=fill;fontSize=10;fontFamily=Helvetica;html=1;shadow=0;glass=0;comic=0;strokeColor=#B3B3B3;strokeWidth=1;fillColor=none;" parent="uqBgnCegoOrOPMikg6ZO-0" vertex="1">
          <mxGeometry x="10" y="400" width="150" height="81" as="geometry" />
        </mxCell>
        <mxCell id="xFMtJE48Tb6UNPKclb0Q-2" value="&lt;span style=&quot;font-size: 10px&quot;&gt;TenantMember&lt;/span&gt;&lt;span style=&quot;font-size: 10px&quot;&gt;Service&lt;/span&gt;&lt;span style=&quot;font-size: 10px&quot;&gt;&lt;br style=&quot;font-size: 10px&quot;&gt;&lt;/span&gt;&lt;hr style=&quot;font-size: 10px&quot;&gt;&lt;div style=&quot;height: 2px ; font-size: 10px&quot;&gt;&lt;br style=&quot;font-size: 10px&quot;&gt;&lt;/div&gt;" style="verticalAlign=top;align=center;overflow=fill;fontSize=10;fontFamily=Helvetica;html=1;shadow=0;glass=0;comic=0;strokeColor=#B3B3B3;strokeWidth=1;fillColor=none;" parent="uqBgnCegoOrOPMikg6ZO-0" vertex="1">
          <mxGeometry x="200" y="400" width="120" height="40" as="geometry" />
        </mxCell>
        <mxCell id="xFMtJE48Tb6UNPKclb0Q-3" value="" style="endArrow=block;dashed=1;endFill=0;endSize=12;html=1;dashPattern=1 1;strokeColor=#000000;strokeWidth=1;fontSize=10;fontColor=#000000;exitX=0;exitY=0.5;exitDx=0;exitDy=0;entryX=1;entryY=0.25;entryDx=0;entryDy=0;" parent="uqBgnCegoOrOPMikg6ZO-0" source="xFMtJE48Tb6UNPKclb0Q-2" target="xFMtJE48Tb6UNPKclb0Q-1" edge="1">
          <mxGeometry width="160" relative="1" as="geometry">
            <mxPoint x="280" y="430.5" as="sourcePoint" />
            <mxPoint x="240" y="430.75" as="targetPoint" />
          </mxGeometry>
        </mxCell>
        <mxCell id="xFMtJE48Tb6UNPKclb0Q-4" value="&lt;p style=&quot;margin: 4px 0px 0px; text-align: center; font-size: 10px;&quot;&gt;&amp;lt;&amp;lt;interface&amp;gt;&amp;gt;&lt;br style=&quot;font-size: 10px;&quot;&gt;IApplicationService&lt;/p&gt;&lt;hr style=&quot;font-size: 10px;&quot;&gt;&lt;div style=&quot;height: 2px; font-size: 10px;&quot;&gt;+ Get() : Application&lt;/div&gt;" style="verticalAlign=top;align=left;overflow=fill;fontSize=10;fontFamily=Helvetica;html=1;shadow=0;glass=0;comic=0;strokeColor=#B3B3B3;strokeWidth=1;fillColor=none;" parent="uqBgnCegoOrOPMikg6ZO-0" vertex="1">
          <mxGeometry x="10" y="41" width="150" height="81" as="geometry" />
        </mxCell>
        <mxCell id="xFMtJE48Tb6UNPKclb0Q-5" value="&lt;span style=&quot;text-align: center; font-size: 10px;&quot;&gt;Application&lt;/span&gt;&lt;span style=&quot;text-align: center; font-size: 10px;&quot;&gt;Service&lt;/span&gt;&lt;span style=&quot;text-align: center; font-size: 10px;&quot;&gt;&lt;br style=&quot;font-size: 10px;&quot;&gt;&lt;/span&gt;&lt;hr style=&quot;font-size: 10px;&quot;&gt;&lt;div style=&quot;height: 2px; font-size: 10px;&quot;&gt;&lt;br style=&quot;font-size: 10px;&quot;&gt;&lt;/div&gt;" style="verticalAlign=top;align=left;overflow=fill;fontSize=10;fontFamily=Helvetica;html=1;shadow=0;glass=0;comic=0;strokeColor=#B3B3B3;strokeWidth=1;fillColor=none;" parent="uqBgnCegoOrOPMikg6ZO-0" vertex="1">
          <mxGeometry x="200" y="41" width="120" height="40" as="geometry" />
        </mxCell>
        <mxCell id="xFMtJE48Tb6UNPKclb0Q-24" value="" style="endArrow=block;dashed=1;endFill=0;endSize=12;html=1;dashPattern=1 1;strokeColor=#000000;strokeWidth=1;fontSize=10;fontColor=#000000;exitX=0;exitY=0.5;exitDx=0;exitDy=0;entryX=1;entryY=0.25;entryDx=0;entryDy=0;" parent="uqBgnCegoOrOPMikg6ZO-0" source="xFMtJE48Tb6UNPKclb0Q-5" target="xFMtJE48Tb6UNPKclb0Q-4" edge="1">
          <mxGeometry width="160" relative="1" as="geometry">
            <mxPoint x="260" y="72" as="sourcePoint" />
            <mxPoint x="220" y="72.25" as="targetPoint" />
          </mxGeometry>
        </mxCell>
        <mxCell id="uqBgnCegoOrOPMikg6ZO-5" value="Shared &lt;br style=&quot;font-size: 10px;&quot;&gt;Models" style="html=1;shadow=0;glass=0;comic=0;strokeColor=#000000;strokeWidth=1;fillColor=none;fontSize=10;fontColor=#000000;align=center;verticalAlign=top;recursiveResize=0;" parent="EgZr2LcmJEDWXL0hmBNo-1" vertex="1">
          <mxGeometry x="470" y="200" width="250" height="500" as="geometry" />
        </mxCell>
        <mxCell id="uqBgnCegoOrOPMikg6ZO-6" value="" style="shape=component;jettyWidth=8;jettyHeight=4;strokeColor=#000000;strokeWidth=1;fontColor=#000000;fontSize=10;" parent="uqBgnCegoOrOPMikg6ZO-5" vertex="1">
          <mxGeometry x="1" width="6" height="16" relative="1" as="geometry">
            <mxPoint x="-20" y="5" as="offset" />
          </mxGeometry>
        </mxCell>
        <mxCell id="uqBgnCegoOrOPMikg6ZO-7" value="Application" style="swimlane;fontStyle=0;childLayout=stackLayout;horizontal=1;startSize=26;fillColor=none;horizontalStack=0;resizeParent=1;resizeParentMax=0;resizeLast=0;collapsible=1;marginBottom=0;shadow=0;glass=0;comic=0;strokeColor=#000000;fontSize=10;opacity=30;html=1;" parent="uqBgnCegoOrOPMikg6ZO-5" vertex="1">
          <mxGeometry x="10" y="40" width="100" height="93.36842105263159" as="geometry" />
        </mxCell>
        <mxCell id="uqBgnCegoOrOPMikg6ZO-8" value="+ ID : Guid" style="text;strokeColor=none;fillColor=none;align=left;verticalAlign=top;spacingLeft=4;spacingRight=4;overflow=hidden;rotatable=0;points=[[0,0.5],[1,0.5]];portConstraint=eastwest;fontSize=10;" parent="uqBgnCegoOrOPMikg6ZO-7" vertex="1">
          <mxGeometry y="26" width="100" height="15.438596491228067" as="geometry" />
        </mxCell>
        <mxCell id="azSv0qirmZsVndeWep9M-4" value="+ Enabled : bool" style="text;strokeColor=none;fillColor=none;align=left;verticalAlign=top;spacingLeft=4;spacingRight=4;overflow=hidden;rotatable=0;points=[[0,0.5],[1,0.5]];portConstraint=eastwest;fontSize=10;" parent="uqBgnCegoOrOPMikg6ZO-7" vertex="1">
          <mxGeometry y="41.43859649122807" width="100" height="15.438596491228067" as="geometry" />
        </mxCell>
        <mxCell id="uqBgnCegoOrOPMikg6ZO-12" value="+ Title : string" style="text;strokeColor=none;fillColor=none;align=left;verticalAlign=top;spacingLeft=4;spacingRight=4;overflow=hidden;rotatable=0;points=[[0,0.5],[1,0.5]];portConstraint=eastwest;fontSize=10;" parent="uqBgnCegoOrOPMikg6ZO-7" vertex="1">
          <mxGeometry y="56.87719298245614" width="100" height="18.24561403508772" as="geometry" />
        </mxCell>
        <mxCell id="azSv0qirmZsVndeWep9M-3" value="+ Description : string" style="text;strokeColor=none;fillColor=none;align=left;verticalAlign=top;spacingLeft=4;spacingRight=4;overflow=hidden;rotatable=0;points=[[0,0.5],[1,0.5]];portConstraint=eastwest;fontSize=10;" parent="uqBgnCegoOrOPMikg6ZO-7" vertex="1">
          <mxGeometry y="75.12280701754386" width="100" height="18.24561403508772" as="geometry" />
        </mxCell>
        <mxCell id="xFMtJE48Tb6UNPKclb0Q-8" value="Session" style="swimlane;fontStyle=0;childLayout=stackLayout;horizontal=1;startSize=26;fillColor=none;horizontalStack=0;resizeParent=1;resizeParentMax=0;resizeLast=0;collapsible=1;marginBottom=0;shadow=0;glass=0;comic=0;strokeColor=#000000;fontSize=10;opacity=30;html=1;" parent="uqBgnCegoOrOPMikg6ZO-5" vertex="1">
          <mxGeometry x="10" y="160" width="100" height="87.75438596491227" as="geometry" />
        </mxCell>
        <mxCell id="xFMtJE48Tb6UNPKclb0Q-9" value="+ ID : Guid" style="text;strokeColor=none;fillColor=none;align=left;verticalAlign=top;spacingLeft=4;spacingRight=4;overflow=hidden;rotatable=0;points=[[0,0.5],[1,0.5]];portConstraint=eastwest;fontSize=10;" parent="xFMtJE48Tb6UNPKclb0Q-8" vertex="1">
          <mxGeometry y="26" width="100" height="15.438596491228067" as="geometry" />
        </mxCell>
        <mxCell id="xFMtJE48Tb6UNPKclb0Q-10" value="+ Enabled : bool&#xa;" style="text;strokeColor=none;fillColor=none;align=left;verticalAlign=top;spacingLeft=4;spacingRight=4;overflow=hidden;rotatable=0;points=[[0,0.5],[1,0.5]];portConstraint=eastwest;fontSize=10;" parent="xFMtJE48Tb6UNPKclb0Q-8" vertex="1">
          <mxGeometry y="41.43859649122807" width="100" height="15.438596491228067" as="geometry" />
        </mxCell>
        <mxCell id="azSv0qirmZsVndeWep9M-5" value="+ DateTime : datetime&#xa;" style="text;strokeColor=none;fillColor=none;align=left;verticalAlign=top;spacingLeft=4;spacingRight=4;overflow=hidden;rotatable=0;points=[[0,0.5],[1,0.5]];portConstraint=eastwest;fontSize=10;" parent="xFMtJE48Tb6UNPKclb0Q-8" vertex="1">
          <mxGeometry y="56.87719298245614" width="100" height="15.438596491228067" as="geometry" />
        </mxCell>
        <mxCell id="wqIlr6veuhEXkgnubuX9-0" value="+ Principal : Principal&#xa;" style="text;strokeColor=none;fillColor=none;align=left;verticalAlign=top;spacingLeft=4;spacingRight=4;overflow=hidden;rotatable=0;points=[[0,0.5],[1,0.5]];portConstraint=eastwest;fontSize=10;" parent="xFMtJE48Tb6UNPKclb0Q-8" vertex="1">
          <mxGeometry y="72.3157894736842" width="100" height="15.438596491228067" as="geometry" />
        </mxCell>
        <mxCell id="xFMtJE48Tb6UNPKclb0Q-16" value="Tenant" style="swimlane;fontStyle=0;childLayout=stackLayout;horizontal=1;startSize=26;fillColor=none;horizontalStack=0;resizeParent=1;resizeParentMax=0;resizeLast=0;collapsible=1;marginBottom=0;shadow=0;glass=0;comic=0;strokeColor=#000000;fontSize=10;opacity=30;html=1;" parent="uqBgnCegoOrOPMikg6ZO-5" vertex="1">
          <mxGeometry x="10" y="310" width="100" height="93.36842105263159" as="geometry" />
        </mxCell>
        <mxCell id="xFMtJE48Tb6UNPKclb0Q-17" value="+ ID : Guid" style="text;strokeColor=none;fillColor=none;align=left;verticalAlign=top;spacingLeft=4;spacingRight=4;overflow=hidden;rotatable=0;points=[[0,0.5],[1,0.5]];portConstraint=eastwest;fontSize=10;" parent="xFMtJE48Tb6UNPKclb0Q-16" vertex="1">
          <mxGeometry y="26" width="100" height="15.438596491228067" as="geometry" />
        </mxCell>
        <mxCell id="xFMtJE48Tb6UNPKclb0Q-18" value="+ Enabled : bool&#xa;" style="text;strokeColor=none;fillColor=none;align=left;verticalAlign=top;spacingLeft=4;spacingRight=4;overflow=hidden;rotatable=0;points=[[0,0.5],[1,0.5]];portConstraint=eastwest;fontSize=10;" parent="xFMtJE48Tb6UNPKclb0Q-16" vertex="1">
          <mxGeometry y="41.43859649122807" width="100" height="15.438596491228067" as="geometry" />
        </mxCell>
        <mxCell id="xFMtJE48Tb6UNPKclb0Q-19" value="+ Title : string" style="text;strokeColor=none;fillColor=none;align=left;verticalAlign=top;spacingLeft=4;spacingRight=4;overflow=hidden;rotatable=0;points=[[0,0.5],[1,0.5]];portConstraint=eastwest;fontSize=10;" parent="xFMtJE48Tb6UNPKclb0Q-16" vertex="1">
          <mxGeometry y="56.87719298245614" width="100" height="18.24561403508772" as="geometry" />
        </mxCell>
        <mxCell id="xFMtJE48Tb6UNPKclb0Q-22" value="+ Description : string" style="text;strokeColor=none;fillColor=none;align=left;verticalAlign=top;spacingLeft=4;spacingRight=4;overflow=hidden;rotatable=0;points=[[0,0.5],[1,0.5]];portConstraint=eastwest;fontSize=10;" parent="xFMtJE48Tb6UNPKclb0Q-16" vertex="1">
          <mxGeometry y="75.12280701754386" width="100" height="18.24561403508772" as="geometry" />
        </mxCell>
        <mxCell id="azSv0qirmZsVndeWep9M-6" value="TenantProperty" style="swimlane;fontStyle=0;childLayout=stackLayout;horizontal=1;startSize=26;fillColor=none;horizontalStack=0;resizeParent=1;resizeParentMax=0;resizeLast=0;collapsible=1;marginBottom=0;shadow=0;glass=0;comic=0;strokeColor=#000000;fontSize=10;opacity=30;html=1;" parent="uqBgnCegoOrOPMikg6ZO-5" vertex="1">
          <mxGeometry x="140" y="310" width="100" height="93.36842105263159" as="geometry" />
        </mxCell>
        <mxCell id="azSv0qirmZsVndeWep9M-7" value="+ ID : Guid" style="text;strokeColor=none;fillColor=none;align=left;verticalAlign=top;spacingLeft=4;spacingRight=4;overflow=hidden;rotatable=0;points=[[0,0.5],[1,0.5]];portConstraint=eastwest;fontSize=10;" parent="azSv0qirmZsVndeWep9M-6" vertex="1">
          <mxGeometry y="26" width="100" height="15.438596491228067" as="geometry" />
        </mxCell>
        <mxCell id="azSv0qirmZsVndeWep9M-8" value="+ ParentFK : Guid&#xa;" style="text;strokeColor=none;fillColor=none;align=left;verticalAlign=top;spacingLeft=4;spacingRight=4;overflow=hidden;rotatable=0;points=[[0,0.5],[1,0.5]];portConstraint=eastwest;fontSize=10;" parent="azSv0qirmZsVndeWep9M-6" vertex="1">
          <mxGeometry y="41.43859649122807" width="100" height="15.438596491228067" as="geometry" />
        </mxCell>
        <mxCell id="azSv0qirmZsVndeWep9M-9" value="+ Key : string" style="text;strokeColor=none;fillColor=none;align=left;verticalAlign=top;spacingLeft=4;spacingRight=4;overflow=hidden;rotatable=0;points=[[0,0.5],[1,0.5]];portConstraint=eastwest;fontSize=10;" parent="azSv0qirmZsVndeWep9M-6" vertex="1">
          <mxGeometry y="56.87719298245614" width="100" height="18.24561403508772" as="geometry" />
        </mxCell>
        <mxCell id="azSv0qirmZsVndeWep9M-10" value="+ Value : string" style="text;strokeColor=none;fillColor=none;align=left;verticalAlign=top;spacingLeft=4;spacingRight=4;overflow=hidden;rotatable=0;points=[[0,0.5],[1,0.5]];portConstraint=eastwest;fontSize=10;" parent="azSv0qirmZsVndeWep9M-6" vertex="1">
          <mxGeometry y="75.12280701754386" width="100" height="18.24561403508772" as="geometry" />
        </mxCell>
        <mxCell id="azSv0qirmZsVndeWep9M-11" style="edgeStyle=elbowEdgeStyle;rounded=1;orthogonalLoop=1;jettySize=auto;html=1;startArrow=diamondThin;startFill=1;startSize=6;endArrow=none;endFill=0;endSize=6;strokeColor=#000000;strokeWidth=1;fontSize=10;fontColor=#000000;" parent="uqBgnCegoOrOPMikg6ZO-5" source="xFMtJE48Tb6UNPKclb0Q-18" target="azSv0qirmZsVndeWep9M-8" edge="1">
          <mxGeometry relative="1" as="geometry" />
        </mxCell>
        <mxCell id="azSv0qirmZsVndeWep9M-12" value="SessionOperation" style="swimlane;fontStyle=0;childLayout=stackLayout;horizontal=1;startSize=26;fillColor=none;horizontalStack=0;resizeParent=1;resizeParentMax=0;resizeLast=0;collapsible=1;marginBottom=0;shadow=0;glass=0;comic=0;strokeColor=#000000;fontSize=10;opacity=30;html=1;" parent="uqBgnCegoOrOPMikg6ZO-5" vertex="1">
          <mxGeometry x="140" y="160" width="100" height="134.07017543859646" as="geometry" />
        </mxCell>
        <mxCell id="azSv0qirmZsVndeWep9M-13" value="+ ID : Guid" style="text;strokeColor=none;fillColor=none;align=left;verticalAlign=top;spacingLeft=4;spacingRight=4;overflow=hidden;rotatable=0;points=[[0,0.5],[1,0.5]];portConstraint=eastwest;fontSize=10;" parent="azSv0qirmZsVndeWep9M-12" vertex="1">
          <mxGeometry y="26" width="100" height="15.438596491228067" as="geometry" />
        </mxCell>
        <mxCell id="azSv0qirmZsVndeWep9M-14" value="+ ParentFK : Guid&#xa;" style="text;strokeColor=none;fillColor=none;align=left;verticalAlign=top;spacingLeft=4;spacingRight=4;overflow=hidden;rotatable=0;points=[[0,0.5],[1,0.5]];portConstraint=eastwest;fontSize=10;" parent="azSv0qirmZsVndeWep9M-12" vertex="1">
          <mxGeometry y="41.43859649122807" width="100" height="15.438596491228067" as="geometry" />
        </mxCell>
        <mxCell id="azSv0qirmZsVndeWep9M-15" value="+ DateTime : datetime&#xa;" style="text;strokeColor=none;fillColor=none;align=left;verticalAlign=top;spacingLeft=4;spacingRight=4;overflow=hidden;rotatable=0;points=[[0,0.5],[1,0.5]];portConstraint=eastwest;fontSize=10;" parent="azSv0qirmZsVndeWep9M-12" vertex="1">
          <mxGeometry y="56.87719298245614" width="100" height="15.438596491228067" as="geometry" />
        </mxCell>
        <mxCell id="y6GclmOGJF4XAQzjYRrV-0" value="+ IP : string&#xa;" style="text;strokeColor=none;fillColor=none;align=left;verticalAlign=top;spacingLeft=4;spacingRight=4;overflow=hidden;rotatable=0;points=[[0,0.5],[1,0.5]];portConstraint=eastwest;fontSize=10;" parent="azSv0qirmZsVndeWep9M-12" vertex="1">
          <mxGeometry y="72.3157894736842" width="100" height="15.438596491228067" as="geometry" />
        </mxCell>
        <mxCell id="y6GclmOGJF4XAQzjYRrV-1" value="+ Location : Location&#xa;" style="text;strokeColor=none;fillColor=none;align=left;verticalAlign=top;spacingLeft=4;spacingRight=4;overflow=hidden;rotatable=0;points=[[0,0.5],[1,0.5]];portConstraint=eastwest;fontSize=10;" parent="azSv0qirmZsVndeWep9M-12" vertex="1">
          <mxGeometry y="87.75438596491227" width="100" height="15.438596491228067" as="geometry" />
        </mxCell>
        <mxCell id="y6GclmOGJF4XAQzjYRrV-2" value="+ LocationInfo : string&#xa;" style="text;strokeColor=none;fillColor=none;align=left;verticalAlign=top;spacingLeft=4;spacingRight=4;overflow=hidden;rotatable=0;points=[[0,0.5],[1,0.5]];portConstraint=eastwest;fontSize=10;" parent="azSv0qirmZsVndeWep9M-12" vertex="1">
          <mxGeometry y="103.19298245614034" width="100" height="15.438596491228067" as="geometry" />
        </mxCell>
        <mxCell id="AdWX0aZuJ669mXprq2cc-4" value="+ SerializedOperation : s&#xa;" style="text;strokeColor=none;fillColor=none;align=left;verticalAlign=top;spacingLeft=4;spacingRight=4;overflow=hidden;rotatable=0;points=[[0,0.5],[1,0.5]];portConstraint=eastwest;fontSize=10;" parent="azSv0qirmZsVndeWep9M-12" vertex="1">
          <mxGeometry y="118.63157894736841" width="100" height="15.438596491228067" as="geometry" />
        </mxCell>
        <mxCell id="azSv0qirmZsVndeWep9M-17" style="edgeStyle=elbowEdgeStyle;rounded=1;orthogonalLoop=1;jettySize=auto;html=1;startArrow=diamondThin;startFill=1;startSize=6;endArrow=none;endFill=0;endSize=6;strokeColor=#000000;strokeWidth=1;fontSize=10;fontColor=#000000;exitX=0.992;exitY=-0.039;exitDx=0;exitDy=0;exitPerimeter=0;" parent="uqBgnCegoOrOPMikg6ZO-5" source="xFMtJE48Tb6UNPKclb0Q-10" edge="1">
          <mxGeometry relative="1" as="geometry">
            <mxPoint x="410" y="140" as="sourcePoint" />
            <mxPoint x="150" y="201" as="targetPoint" />
          </mxGeometry>
        </mxCell>
        <mxCell id="azSv0qirmZsVndeWep9M-18" value="ApplicationProperty" style="swimlane;fontStyle=0;childLayout=stackLayout;horizontal=1;startSize=26;fillColor=none;horizontalStack=0;resizeParent=1;resizeParentMax=0;resizeLast=0;collapsible=1;marginBottom=0;shadow=0;glass=0;comic=0;strokeColor=#000000;fontSize=10;opacity=30;html=1;" parent="uqBgnCegoOrOPMikg6ZO-5" vertex="1">
          <mxGeometry x="140" y="40" width="100" height="93.36842105263159" as="geometry" />
        </mxCell>
        <mxCell id="azSv0qirmZsVndeWep9M-19" value="+ ID : Guid" style="text;strokeColor=none;fillColor=none;align=left;verticalAlign=top;spacingLeft=4;spacingRight=4;overflow=hidden;rotatable=0;points=[[0,0.5],[1,0.5]];portConstraint=eastwest;fontSize=10;" parent="azSv0qirmZsVndeWep9M-18" vertex="1">
          <mxGeometry y="26" width="100" height="15.438596491228067" as="geometry" />
        </mxCell>
        <mxCell id="azSv0qirmZsVndeWep9M-20" value="+ ParentFK : Guid&#xa;" style="text;strokeColor=none;fillColor=none;align=left;verticalAlign=top;spacingLeft=4;spacingRight=4;overflow=hidden;rotatable=0;points=[[0,0.5],[1,0.5]];portConstraint=eastwest;fontSize=10;" parent="azSv0qirmZsVndeWep9M-18" vertex="1">
          <mxGeometry y="41.43859649122807" width="100" height="15.438596491228067" as="geometry" />
        </mxCell>
        <mxCell id="azSv0qirmZsVndeWep9M-21" value="+ Key : string" style="text;strokeColor=none;fillColor=none;align=left;verticalAlign=top;spacingLeft=4;spacingRight=4;overflow=hidden;rotatable=0;points=[[0,0.5],[1,0.5]];portConstraint=eastwest;fontSize=10;" parent="azSv0qirmZsVndeWep9M-18" vertex="1">
          <mxGeometry y="56.87719298245614" width="100" height="18.24561403508772" as="geometry" />
        </mxCell>
        <mxCell id="azSv0qirmZsVndeWep9M-22" value="+ Value : string" style="text;strokeColor=none;fillColor=none;align=left;verticalAlign=top;spacingLeft=4;spacingRight=4;overflow=hidden;rotatable=0;points=[[0,0.5],[1,0.5]];portConstraint=eastwest;fontSize=10;" parent="azSv0qirmZsVndeWep9M-18" vertex="1">
          <mxGeometry y="75.12280701754386" width="100" height="18.24561403508772" as="geometry" />
        </mxCell>
        <mxCell id="azSv0qirmZsVndeWep9M-23" style="edgeStyle=elbowEdgeStyle;rounded=1;orthogonalLoop=1;jettySize=auto;html=1;startArrow=diamondThin;startFill=1;startSize=6;endArrow=none;endFill=0;endSize=6;strokeColor=#000000;strokeWidth=1;fontSize=10;fontColor=#000000;exitX=1;exitY=0.5;exitDx=0;exitDy=0;entryX=0;entryY=0.5;entryDx=0;entryDy=0;" parent="uqBgnCegoOrOPMikg6ZO-5" source="azSv0qirmZsVndeWep9M-4" target="azSv0qirmZsVndeWep9M-20" edge="1">
          <mxGeometry relative="1" as="geometry">
            <mxPoint x="123.85714285714289" y="74.59523809523807" as="sourcePoint" />
            <mxPoint x="145" y="74.92857142857144" as="targetPoint" />
          </mxGeometry>
        </mxCell>
        <mxCell id="g7OAhvM7lISam42-FYqL-1" value="Title/Diagram" parent="EgZr2LcmJEDWXL0hmBNo-0" />
        <mxCell id="g7OAhvM7lISam42-FYqL-2" value="&lt;font style=&quot;font-size: 12px ; font-weight: normal&quot;&gt;&lt;i&gt;&lt;span&gt;Diagram: &lt;/span&gt;Development - Core Module - Context&lt;/i&gt;&lt;/font&gt;" style="text;strokeColor=none;fillColor=none;html=1;fontSize=10;fontStyle=1;verticalAlign=middle;align=left;shadow=0;glass=0;comic=0;opacity=30;fontColor=#808080;" parent="g7OAhvM7lISam42-FYqL-1" vertex="1">
          <mxGeometry x="120" y="740" width="560" height="20" as="geometry" />
        </mxCell>
        <mxCell id="g7OAhvM7lISam42-FYqL-0" value="Title/Page" parent="EgZr2LcmJEDWXL0hmBNo-0" visible="0" />
        <mxCell id="J6gX9CQe3yimeZOuFLlJ-0" value="" style="group;fontSize=10;" parent="g7OAhvM7lISam42-FYqL-0" vertex="1" connectable="0">
          <mxGeometry x="120" y="120" width="600" height="45" as="geometry" />
        </mxCell>
        <mxCell id="J6gX9CQe3yimeZOuFLlJ-1" value="&lt;font style=&quot;font-size: 12px&quot;&gt;&lt;span&gt;Base Logical Module -&amp;nbsp;&lt;/span&gt;Development - Core Module - Context&lt;/font&gt;" style="text;strokeColor=none;fillColor=none;html=1;fontSize=10;fontStyle=1;verticalAlign=middle;align=left;shadow=0;glass=0;comic=0;opacity=30;fontColor=#808080;" parent="J6gX9CQe3yimeZOuFLlJ-0" vertex="1">
          <mxGeometry width="600" height="40" as="geometry" />
        </mxCell>
        <mxCell id="J6gX9CQe3yimeZOuFLlJ-2" value="" style="line;strokeWidth=2;html=1;shadow=0;glass=0;comic=0;fillColor=none;fontSize=10;fontColor=#CCCCCC;labelBackgroundColor=none;strokeColor=#CCCCCC;" parent="J6gX9CQe3yimeZOuFLlJ-0" vertex="1">
          <mxGeometry y="35" width="600" height="10" as="geometry" />
        </mxCell>
      </root>
    </mxGraphModel>
  </diagram>
  <diagram id="EKN-9WbkQKeVLBaAm_Ep" name="Development/Services/Status">
    <mxGraphModel dx="1711" dy="732" grid="1" gridSize="10" guides="1" tooltips="1" connect="1" arrows="1" fold="1" page="1" pageScale="1" pageWidth="827" pageHeight="1169" math="0" shadow="0">
      <root>
        <mxCell id="4uSGhrfigR5d_NTziPu2-0" />
        <mxCell id="4NxbJxPOYfehvSQjyKRD-1" value="Diagram" parent="4uSGhrfigR5d_NTziPu2-0" />
        <mxCell id="cHpXZaFzE6EyXhHybdXZ-3" value="Infrastructure &lt;br&gt;Services" style="html=1;shadow=0;glass=0;comic=0;strokeColor=#000000;strokeWidth=1;fillColor=none;fontSize=10;fontColor=#000000;align=center;verticalAlign=top;recursiveResize=0;" parent="4NxbJxPOYfehvSQjyKRD-1" vertex="1">
          <mxGeometry x="120" y="200" width="380" height="500" as="geometry" />
        </mxCell>
        <mxCell id="cHpXZaFzE6EyXhHybdXZ-4" value="" style="shape=component;jettyWidth=8;jettyHeight=4;strokeColor=#000000;strokeWidth=1;fontColor=#000000;" parent="cHpXZaFzE6EyXhHybdXZ-3" vertex="1">
          <mxGeometry x="1" width="16" height="16" relative="1" as="geometry">
            <mxPoint x="-20" y="5" as="offset" />
          </mxGeometry>
        </mxCell>
        <mxCell id="cHpXZaFzE6EyXhHybdXZ-5" value="&lt;p style=&quot;margin: 0px ; margin-top: 4px ; text-align: center&quot;&gt;&amp;lt;&amp;lt;interface&amp;gt;&amp;gt;&lt;br&gt;IDiagnosticsTracingService&lt;/p&gt;&lt;hr size=&quot;1&quot;&gt;&lt;div style=&quot;height: 2px&quot;&gt;&lt;br&gt;&lt;/div&gt;" style="verticalAlign=top;align=left;overflow=fill;fontSize=12;fontFamily=Helvetica;html=1;shadow=0;glass=0;comic=0;strokeColor=#B3B3B3;strokeWidth=1;fillColor=none;" parent="cHpXZaFzE6EyXhHybdXZ-3" vertex="1">
          <mxGeometry x="10" y="40.5" width="160" height="81" as="geometry" />
        </mxCell>
        <mxCell id="cHpXZaFzE6EyXhHybdXZ-6" value="&lt;p style=&quot;margin: 0px ; margin-top: 4px ; text-align: center&quot;&gt;DiagnosticsTracingService&lt;/p&gt;&lt;hr size=&quot;1&quot;&gt;&lt;div style=&quot;height: 2px&quot;&gt;&lt;br&gt;&lt;/div&gt;" style="verticalAlign=top;align=left;overflow=fill;fontSize=12;fontFamily=Helvetica;html=1;shadow=0;glass=0;comic=0;strokeColor=#B3B3B3;strokeWidth=1;fillColor=none;" parent="cHpXZaFzE6EyXhHybdXZ-3" vertex="1">
          <mxGeometry x="210" y="40.5" width="160" height="40" as="geometry" />
        </mxCell>
        <mxCell id="cHpXZaFzE6EyXhHybdXZ-7" value="" style="endArrow=block;dashed=1;endFill=0;endSize=12;html=1;dashPattern=1 1;strokeColor=#000000;strokeWidth=1;fontSize=10;fontColor=#000000;exitX=0;exitY=0.5;exitDx=0;exitDy=0;entryX=1;entryY=0.25;entryDx=0;entryDy=0;" parent="cHpXZaFzE6EyXhHybdXZ-3" source="cHpXZaFzE6EyXhHybdXZ-6" target="cHpXZaFzE6EyXhHybdXZ-5" edge="1">
          <mxGeometry width="160" relative="1" as="geometry">
            <mxPoint x="190" y="176" as="sourcePoint" />
            <mxPoint x="350" y="176" as="targetPoint" />
          </mxGeometry>
        </mxCell>
        <mxCell id="cHpXZaFzE6EyXhHybdXZ-8" value="&lt;p style=&quot;margin: 0px ; margin-top: 4px ; text-align: center&quot;&gt;&amp;lt;&amp;lt;interface&amp;gt;&amp;gt;&lt;br&gt;IErrorLoggingService&lt;/p&gt;&lt;hr size=&quot;1&quot;&gt;&lt;div style=&quot;height: 2px&quot;&gt;&lt;br&gt;&lt;/div&gt;" style="verticalAlign=top;align=left;overflow=fill;fontSize=12;fontFamily=Helvetica;html=1;shadow=0;glass=0;comic=0;strokeColor=#B3B3B3;strokeWidth=1;fillColor=none;" parent="cHpXZaFzE6EyXhHybdXZ-3" vertex="1">
          <mxGeometry x="10" y="160" width="160" height="81" as="geometry" />
        </mxCell>
        <mxCell id="cHpXZaFzE6EyXhHybdXZ-9" value="&lt;span style=&quot;text-align: center&quot;&gt;ErrorLogging&lt;/span&gt;&lt;span style=&quot;text-align: center&quot;&gt;Service&lt;/span&gt;&lt;span style=&quot;text-align: center&quot;&gt;&lt;br&gt;&lt;/span&gt;&lt;hr size=&quot;1&quot;&gt;&lt;div style=&quot;height: 2px&quot;&gt;&lt;br&gt;&lt;/div&gt;" style="verticalAlign=top;align=left;overflow=fill;fontSize=12;fontFamily=Helvetica;html=1;shadow=0;glass=0;comic=0;strokeColor=#B3B3B3;strokeWidth=1;fillColor=none;" parent="cHpXZaFzE6EyXhHybdXZ-3" vertex="1">
          <mxGeometry x="210" y="160" width="160" height="40" as="geometry" />
        </mxCell>
        <mxCell id="cHpXZaFzE6EyXhHybdXZ-10" value="" style="endArrow=block;dashed=1;endFill=0;endSize=12;html=1;dashPattern=1 1;strokeColor=#000000;strokeWidth=1;fontSize=10;fontColor=#000000;exitX=0;exitY=0.5;exitDx=0;exitDy=0;entryX=1;entryY=0.25;entryDx=0;entryDy=0;" parent="cHpXZaFzE6EyXhHybdXZ-3" source="cHpXZaFzE6EyXhHybdXZ-9" target="cHpXZaFzE6EyXhHybdXZ-8" edge="1">
          <mxGeometry width="160" relative="1" as="geometry">
            <mxPoint x="280" y="190.5" as="sourcePoint" />
            <mxPoint x="240" y="190.75" as="targetPoint" />
          </mxGeometry>
        </mxCell>
        <mxCell id="cHpXZaFzE6EyXhHybdXZ-11" value="&lt;p style=&quot;margin: 0px ; margin-top: 4px ; text-align: center&quot;&gt;&amp;lt;&amp;lt;interface&amp;gt;&amp;gt;&lt;br&gt;IConfigurationStepService&lt;/p&gt;&lt;hr size=&quot;1&quot;&gt;&lt;div style=&quot;height: 2px&quot;&gt;&lt;br&gt;&lt;/div&gt;" style="verticalAlign=top;align=left;overflow=fill;fontSize=12;fontFamily=Helvetica;html=1;shadow=0;glass=0;comic=0;strokeColor=#B3B3B3;strokeWidth=1;fillColor=none;" parent="cHpXZaFzE6EyXhHybdXZ-3" vertex="1">
          <mxGeometry x="10" y="280" width="160" height="81" as="geometry" />
        </mxCell>
        <mxCell id="cHpXZaFzE6EyXhHybdXZ-12" value="&lt;span style=&quot;text-align: center&quot;&gt;ConfigurationStep&lt;/span&gt;&lt;span style=&quot;text-align: center&quot;&gt;Service&lt;/span&gt;&lt;span style=&quot;text-align: center&quot;&gt;&lt;br&gt;&lt;/span&gt;&lt;hr size=&quot;1&quot;&gt;&lt;div style=&quot;height: 2px&quot;&gt;&lt;br&gt;&lt;/div&gt;" style="verticalAlign=top;align=left;overflow=fill;fontSize=12;fontFamily=Helvetica;html=1;shadow=0;glass=0;comic=0;strokeColor=#B3B3B3;strokeWidth=1;fillColor=none;" parent="cHpXZaFzE6EyXhHybdXZ-3" vertex="1">
          <mxGeometry x="210" y="280" width="160" height="40" as="geometry" />
        </mxCell>
        <mxCell id="cHpXZaFzE6EyXhHybdXZ-13" value="" style="endArrow=block;dashed=1;endFill=0;endSize=12;html=1;dashPattern=1 1;strokeColor=#000000;strokeWidth=1;fontSize=10;fontColor=#000000;exitX=0;exitY=0.5;exitDx=0;exitDy=0;entryX=1;entryY=0.25;entryDx=0;entryDy=0;" parent="cHpXZaFzE6EyXhHybdXZ-3" source="cHpXZaFzE6EyXhHybdXZ-12" target="cHpXZaFzE6EyXhHybdXZ-11" edge="1">
          <mxGeometry width="160" relative="1" as="geometry">
            <mxPoint x="280" y="310.5" as="sourcePoint" />
            <mxPoint x="240" y="310.75" as="targetPoint" />
          </mxGeometry>
        </mxCell>
        <mxCell id="cHpXZaFzE6EyXhHybdXZ-14" value="&lt;p style=&quot;margin: 0px ; margin-top: 4px ; text-align: center&quot;&gt;&amp;lt;&amp;lt;interface&amp;gt;&amp;gt;&lt;br&gt;ISystemStatusService&lt;/p&gt;&lt;hr size=&quot;1&quot;&gt;&lt;div style=&quot;height: 2px&quot;&gt;&lt;br&gt;&lt;/div&gt;" style="verticalAlign=top;align=left;overflow=fill;fontSize=12;fontFamily=Helvetica;html=1;shadow=0;glass=0;comic=0;strokeColor=#B3B3B3;strokeWidth=1;fillColor=none;" parent="cHpXZaFzE6EyXhHybdXZ-3" vertex="1">
          <mxGeometry x="10" y="399" width="160" height="81" as="geometry" />
        </mxCell>
        <mxCell id="cHpXZaFzE6EyXhHybdXZ-15" value="&lt;span style=&quot;text-align: center&quot;&gt;SystemStatus&lt;/span&gt;&lt;span style=&quot;text-align: center&quot;&gt;Service&lt;/span&gt;&lt;span style=&quot;text-align: center&quot;&gt;&lt;br&gt;&lt;/span&gt;&lt;hr size=&quot;1&quot;&gt;&lt;div style=&quot;height: 2px&quot;&gt;&lt;br&gt;&lt;/div&gt;" style="verticalAlign=top;align=left;overflow=fill;fontSize=12;fontFamily=Helvetica;html=1;shadow=0;glass=0;comic=0;strokeColor=#B3B3B3;strokeWidth=1;fillColor=none;" parent="cHpXZaFzE6EyXhHybdXZ-3" vertex="1">
          <mxGeometry x="210" y="399" width="160" height="40" as="geometry" />
        </mxCell>
        <mxCell id="cHpXZaFzE6EyXhHybdXZ-16" value="" style="endArrow=block;dashed=1;endFill=0;endSize=12;html=1;dashPattern=1 1;strokeColor=#000000;strokeWidth=1;fontSize=10;fontColor=#000000;exitX=0;exitY=0.5;exitDx=0;exitDy=0;entryX=1;entryY=0.25;entryDx=0;entryDy=0;" parent="cHpXZaFzE6EyXhHybdXZ-3" source="cHpXZaFzE6EyXhHybdXZ-15" target="cHpXZaFzE6EyXhHybdXZ-14" edge="1">
          <mxGeometry width="160" relative="1" as="geometry">
            <mxPoint x="260" y="430" as="sourcePoint" />
            <mxPoint x="220" y="430.25" as="targetPoint" />
          </mxGeometry>
        </mxCell>
        <mxCell id="cHpXZaFzE6EyXhHybdXZ-17" value="Shared &lt;br&gt;Models" style="html=1;shadow=0;glass=0;comic=0;strokeColor=#000000;strokeWidth=1;fillColor=none;fontSize=10;fontColor=#000000;align=center;verticalAlign=top;recursiveResize=0;" parent="4NxbJxPOYfehvSQjyKRD-1" vertex="1">
          <mxGeometry x="520" y="200" width="160" height="500" as="geometry" />
        </mxCell>
        <mxCell id="cHpXZaFzE6EyXhHybdXZ-18" value="" style="shape=component;jettyWidth=8;jettyHeight=4;strokeColor=#000000;strokeWidth=1;fontColor=#000000;" parent="cHpXZaFzE6EyXhHybdXZ-17" vertex="1">
          <mxGeometry x="1" width="16" height="16" relative="1" as="geometry">
            <mxPoint x="-20" y="5" as="offset" />
          </mxGeometry>
        </mxCell>
        <mxCell id="cHpXZaFzE6EyXhHybdXZ-19" value="DiagosticsMessage" style="swimlane;fontStyle=0;childLayout=stackLayout;horizontal=1;startSize=26;fillColor=none;horizontalStack=0;resizeParent=1;resizeParentMax=0;resizeLast=0;collapsible=1;marginBottom=0;shadow=0;glass=0;comic=0;strokeColor=#000000;fontSize=10;opacity=30;html=1;" parent="cHpXZaFzE6EyXhHybdXZ-17" vertex="1">
          <mxGeometry x="20" y="40.23856209150326" width="130" height="129.85964912280704" as="geometry" />
        </mxCell>
        <mxCell id="cHpXZaFzE6EyXhHybdXZ-20" value="+ ID : Guid" style="text;strokeColor=none;fillColor=none;align=left;verticalAlign=top;spacingLeft=4;spacingRight=4;overflow=hidden;rotatable=0;points=[[0,0.5],[1,0.5]];portConstraint=eastwest;" parent="cHpXZaFzE6EyXhHybdXZ-19" vertex="1">
          <mxGeometry y="26" width="130" height="15.438596491228067" as="geometry" />
        </mxCell>
        <mxCell id="cHpXZaFzE6EyXhHybdXZ-21" value="+ DateTime : datetime&#xa;" style="text;strokeColor=none;fillColor=none;align=left;verticalAlign=top;spacingLeft=4;spacingRight=4;overflow=hidden;rotatable=0;points=[[0,0.5],[1,0.5]];portConstraint=eastwest;" parent="cHpXZaFzE6EyXhHybdXZ-19" vertex="1">
          <mxGeometry y="41.43859649122807" width="130" height="15.438596491228067" as="geometry" />
        </mxCell>
        <mxCell id="cHpXZaFzE6EyXhHybdXZ-22" value="+ Thread : string" style="text;strokeColor=none;fillColor=none;align=left;verticalAlign=top;spacingLeft=4;spacingRight=4;overflow=hidden;rotatable=0;points=[[0,0.5],[1,0.5]];portConstraint=eastwest;" parent="cHpXZaFzE6EyXhHybdXZ-19" vertex="1">
          <mxGeometry y="56.87719298245614" width="130" height="18.24561403508772" as="geometry" />
        </mxCell>
        <mxCell id="cHpXZaFzE6EyXhHybdXZ-23" value="+ Session : guid" style="text;strokeColor=none;fillColor=none;align=left;verticalAlign=top;spacingLeft=4;spacingRight=4;overflow=hidden;rotatable=0;points=[[0,0.5],[1,0.5]];portConstraint=eastwest;" parent="cHpXZaFzE6EyXhHybdXZ-19" vertex="1">
          <mxGeometry y="75.12280701754386" width="130" height="18.24561403508772" as="geometry" />
        </mxCell>
        <mxCell id="cHpXZaFzE6EyXhHybdXZ-24" value="+ Level : string" style="text;strokeColor=none;fillColor=none;align=left;verticalAlign=top;spacingLeft=4;spacingRight=4;overflow=hidden;rotatable=0;points=[[0,0.5],[1,0.5]];portConstraint=eastwest;" parent="cHpXZaFzE6EyXhHybdXZ-19" vertex="1">
          <mxGeometry y="93.36842105263159" width="130" height="18.24561403508772" as="geometry" />
        </mxCell>
        <mxCell id="cHpXZaFzE6EyXhHybdXZ-25" value="+ Message : string" style="text;strokeColor=none;fillColor=none;align=left;verticalAlign=top;spacingLeft=4;spacingRight=4;overflow=hidden;rotatable=0;points=[[0,0.5],[1,0.5]];portConstraint=eastwest;" parent="cHpXZaFzE6EyXhHybdXZ-19" vertex="1">
          <mxGeometry y="111.61403508771932" width="130" height="18.24561403508772" as="geometry" />
        </mxCell>
        <mxCell id="cHpXZaFzE6EyXhHybdXZ-26" value="ErrorLog" style="swimlane;fontStyle=0;childLayout=stackLayout;horizontal=1;startSize=26;fillColor=none;horizontalStack=0;resizeParent=1;resizeParentMax=0;resizeLast=0;collapsible=1;marginBottom=0;shadow=0;glass=0;comic=0;strokeColor=#000000;fontSize=10;opacity=30;html=1;" parent="cHpXZaFzE6EyXhHybdXZ-17" vertex="1">
          <mxGeometry x="20" y="180.23856209150327" width="130" height="148.10526315789477" as="geometry" />
        </mxCell>
        <mxCell id="cHpXZaFzE6EyXhHybdXZ-27" value="+ ID : Guid" style="text;strokeColor=none;fillColor=none;align=left;verticalAlign=top;spacingLeft=4;spacingRight=4;overflow=hidden;rotatable=0;points=[[0,0.5],[1,0.5]];portConstraint=eastwest;" parent="cHpXZaFzE6EyXhHybdXZ-26" vertex="1">
          <mxGeometry y="26" width="130" height="15.438596491228067" as="geometry" />
        </mxCell>
        <mxCell id="cHpXZaFzE6EyXhHybdXZ-28" value="+ DateTime : datetime&#xa;" style="text;strokeColor=none;fillColor=none;align=left;verticalAlign=top;spacingLeft=4;spacingRight=4;overflow=hidden;rotatable=0;points=[[0,0.5],[1,0.5]];portConstraint=eastwest;" parent="cHpXZaFzE6EyXhHybdXZ-26" vertex="1">
          <mxGeometry y="41.43859649122807" width="130" height="15.438596491228067" as="geometry" />
        </mxCell>
        <mxCell id="cHpXZaFzE6EyXhHybdXZ-29" value="+ Thread : string" style="text;strokeColor=none;fillColor=none;align=left;verticalAlign=top;spacingLeft=4;spacingRight=4;overflow=hidden;rotatable=0;points=[[0,0.5],[1,0.5]];portConstraint=eastwest;" parent="cHpXZaFzE6EyXhHybdXZ-26" vertex="1">
          <mxGeometry y="56.87719298245614" width="130" height="18.24561403508772" as="geometry" />
        </mxCell>
        <mxCell id="cHpXZaFzE6EyXhHybdXZ-30" value="+ Session : guid" style="text;strokeColor=none;fillColor=none;align=left;verticalAlign=top;spacingLeft=4;spacingRight=4;overflow=hidden;rotatable=0;points=[[0,0.5],[1,0.5]];portConstraint=eastwest;" parent="cHpXZaFzE6EyXhHybdXZ-26" vertex="1">
          <mxGeometry y="75.12280701754386" width="130" height="18.24561403508772" as="geometry" />
        </mxCell>
        <mxCell id="cHpXZaFzE6EyXhHybdXZ-31" value="+ Level : string" style="text;strokeColor=none;fillColor=none;align=left;verticalAlign=top;spacingLeft=4;spacingRight=4;overflow=hidden;rotatable=0;points=[[0,0.5],[1,0.5]];portConstraint=eastwest;" parent="cHpXZaFzE6EyXhHybdXZ-26" vertex="1">
          <mxGeometry y="93.36842105263159" width="130" height="18.24561403508772" as="geometry" />
        </mxCell>
        <mxCell id="cHpXZaFzE6EyXhHybdXZ-32" value="+ Message : string" style="text;strokeColor=none;fillColor=none;align=left;verticalAlign=top;spacingLeft=4;spacingRight=4;overflow=hidden;rotatable=0;points=[[0,0.5],[1,0.5]];portConstraint=eastwest;" parent="cHpXZaFzE6EyXhHybdXZ-26" vertex="1">
          <mxGeometry y="111.61403508771932" width="130" height="18.24561403508772" as="geometry" />
        </mxCell>
        <mxCell id="cHpXZaFzE6EyXhHybdXZ-33" value="+ StackTrace : string" style="text;strokeColor=none;fillColor=none;align=left;verticalAlign=top;spacingLeft=4;spacingRight=4;overflow=hidden;rotatable=0;points=[[0,0.5],[1,0.5]];portConstraint=eastwest;" parent="cHpXZaFzE6EyXhHybdXZ-26" vertex="1">
          <mxGeometry y="129.85964912280704" width="130" height="18.24561403508772" as="geometry" />
        </mxCell>
        <mxCell id="cHpXZaFzE6EyXhHybdXZ-34" value="ConfigurationStep" style="swimlane;fontStyle=0;childLayout=stackLayout;horizontal=1;startSize=26;fillColor=none;horizontalStack=0;resizeParent=1;resizeParentMax=0;resizeLast=0;collapsible=1;marginBottom=0;shadow=0;glass=0;comic=0;strokeColor=#000000;fontSize=10;opacity=30;html=1;" parent="cHpXZaFzE6EyXhHybdXZ-17" vertex="1">
          <mxGeometry x="20" y="338.23856209150324" width="130" height="93.36842105263159" as="geometry" />
        </mxCell>
        <mxCell id="cHpXZaFzE6EyXhHybdXZ-35" value="+ ID : Guid" style="text;strokeColor=none;fillColor=none;align=left;verticalAlign=top;spacingLeft=4;spacingRight=4;overflow=hidden;rotatable=0;points=[[0,0.5],[1,0.5]];portConstraint=eastwest;" parent="cHpXZaFzE6EyXhHybdXZ-34" vertex="1">
          <mxGeometry y="26" width="130" height="15.438596491228067" as="geometry" />
        </mxCell>
        <mxCell id="cHpXZaFzE6EyXhHybdXZ-36" value="+ DateTime : datetime&#xa;" style="text;strokeColor=none;fillColor=none;align=left;verticalAlign=top;spacingLeft=4;spacingRight=4;overflow=hidden;rotatable=0;points=[[0,0.5],[1,0.5]];portConstraint=eastwest;" parent="cHpXZaFzE6EyXhHybdXZ-34" vertex="1">
          <mxGeometry y="41.43859649122807" width="130" height="15.438596491228067" as="geometry" />
        </mxCell>
        <mxCell id="cHpXZaFzE6EyXhHybdXZ-37" value="+ Success : enum" style="text;strokeColor=none;fillColor=none;align=left;verticalAlign=top;spacingLeft=4;spacingRight=4;overflow=hidden;rotatable=0;points=[[0,0.5],[1,0.5]];portConstraint=eastwest;" parent="cHpXZaFzE6EyXhHybdXZ-34" vertex="1">
          <mxGeometry y="56.87719298245614" width="130" height="18.24561403508772" as="geometry" />
        </mxCell>
        <mxCell id="cHpXZaFzE6EyXhHybdXZ-38" value="+ Message : string" style="text;strokeColor=none;fillColor=none;align=left;verticalAlign=top;spacingLeft=4;spacingRight=4;overflow=hidden;rotatable=0;points=[[0,0.5],[1,0.5]];portConstraint=eastwest;" parent="cHpXZaFzE6EyXhHybdXZ-34" vertex="1">
          <mxGeometry y="75.12280701754386" width="130" height="18.24561403508772" as="geometry" />
        </mxCell>
        <mxCell id="3e3ByHgigHeYYEtG7IH--0" value="Title/Diagram" parent="4uSGhrfigR5d_NTziPu2-0" />
        <mxCell id="3e3ByHgigHeYYEtG7IH--1" value="&lt;font style=&quot;font-size: 12px ; font-weight: normal&quot;&gt;&lt;i&gt;Diagram: Development - Services and Models - Status&lt;/i&gt;&lt;/font&gt;" style="text;strokeColor=none;fillColor=none;html=1;fontSize=24;fontStyle=1;verticalAlign=middle;align=left;shadow=0;glass=0;comic=0;opacity=30;fontColor=#808080;" parent="3e3ByHgigHeYYEtG7IH--0" vertex="1">
          <mxGeometry x="120" y="720" width="520" height="40" as="geometry" />
        </mxCell>
        <mxCell id="4NxbJxPOYfehvSQjyKRD-0" value="Title/Page" parent="4uSGhrfigR5d_NTziPu2-0" visible="0" />
        <mxCell id="cHpXZaFzE6EyXhHybdXZ-0" value="" style="group;fontSize=10;" parent="4NxbJxPOYfehvSQjyKRD-0" vertex="1" connectable="0">
          <mxGeometry x="120" y="120" width="560" height="45" as="geometry" />
        </mxCell>
        <mxCell id="cHpXZaFzE6EyXhHybdXZ-1" value="&lt;font style=&quot;font-size: 12px&quot;&gt;Base Logical Module - Development - Services and Models - Status&lt;/font&gt;" style="text;strokeColor=none;fillColor=none;html=1;fontSize=24;fontStyle=1;verticalAlign=middle;align=left;shadow=0;glass=0;comic=0;opacity=30;fontColor=#808080;" parent="cHpXZaFzE6EyXhHybdXZ-0" vertex="1">
          <mxGeometry width="560" height="40" as="geometry" />
        </mxCell>
        <mxCell id="cHpXZaFzE6EyXhHybdXZ-2" value="" style="line;strokeWidth=2;html=1;shadow=0;glass=0;comic=0;fillColor=none;fontSize=10;fontColor=#CCCCCC;labelBackgroundColor=none;strokeColor=#CCCCCC;" parent="cHpXZaFzE6EyXhHybdXZ-0" vertex="1">
          <mxGeometry y="35" width="560" height="10" as="geometry" />
        </mxCell>
        <mxCell id="4uSGhrfigR5d_NTziPu2-1" value="About" parent="4uSGhrfigR5d_NTziPu2-0" />
      </root>
    </mxGraphModel>
  </diagram>
  <diagram id="pEuB3c_Du4MT-04pFdZI" name="Development/Services/Session">
    <mxGraphModel dx="1711" dy="732" grid="1" gridSize="10" guides="1" tooltips="1" connect="1" arrows="1" fold="1" page="1" pageScale="1" pageWidth="827" pageHeight="1169" math="0" shadow="0">
      <root>
        <mxCell id="GfztVlVH8X5T1AdBpDcx-0" />
        <mxCell id="kR0dyHa6UfzgNSQLlXI4-1" value="Diagram" parent="GfztVlVH8X5T1AdBpDcx-0" />
        <mxCell id="KEdP5b7hoXg_EnUgACLO-3" value="Infrastructure &lt;br&gt;Services" style="html=1;shadow=0;glass=0;comic=0;strokeColor=#000000;strokeWidth=1;fillColor=none;fontSize=10;fontColor=#000000;align=center;verticalAlign=top;recursiveResize=0;" parent="kR0dyHa6UfzgNSQLlXI4-1" vertex="1">
          <mxGeometry x="120" y="200" width="360" height="320" as="geometry" />
        </mxCell>
        <mxCell id="KEdP5b7hoXg_EnUgACLO-4" value="" style="shape=component;jettyWidth=8;jettyHeight=4;strokeColor=#000000;strokeWidth=1;fontColor=#000000;" parent="KEdP5b7hoXg_EnUgACLO-3" vertex="1">
          <mxGeometry x="1" width="16" height="16" relative="1" as="geometry">
            <mxPoint x="-20" y="5" as="offset" />
          </mxGeometry>
        </mxCell>
        <mxCell id="KEdP5b7hoXg_EnUgACLO-5" value="&lt;p style=&quot;margin: 0px ; margin-top: 4px ; text-align: center&quot;&gt;&amp;lt;&amp;lt;interface&amp;gt;&amp;gt;&lt;br&gt;ISessionService&lt;/p&gt;&lt;hr size=&quot;1&quot;&gt;&lt;div style=&quot;height: 2px&quot;&gt;+ Get() : Session&lt;br&gt;+ LogOperation(&lt;br&gt;&amp;nbsp; &amp;nbsp; &amp;nbsp; SessionOperation): void&lt;/div&gt;&lt;div style=&quot;height: 2px&quot;&gt;&lt;br&gt;&lt;/div&gt;&lt;div style=&quot;height: 2px&quot;&gt;&lt;br&gt;&lt;/div&gt;" style="verticalAlign=top;align=left;overflow=fill;fontSize=12;fontFamily=Helvetica;html=1;shadow=0;glass=0;comic=0;strokeColor=#B3B3B3;strokeWidth=1;fillColor=none;" parent="KEdP5b7hoXg_EnUgACLO-3" vertex="1">
          <mxGeometry x="10" y="40" width="160" height="99" as="geometry" />
        </mxCell>
        <mxCell id="KEdP5b7hoXg_EnUgACLO-6" value="&lt;p style=&quot;margin: 0px ; margin-top: 4px ; text-align: center&quot;&gt;SessionService&lt;/p&gt;&lt;hr size=&quot;1&quot;&gt;&lt;div style=&quot;height: 2px&quot;&gt;&lt;br&gt;&lt;/div&gt;" style="verticalAlign=top;align=left;overflow=fill;fontSize=12;fontFamily=Helvetica;html=1;shadow=0;glass=0;comic=0;strokeColor=#B3B3B3;strokeWidth=1;fillColor=none;" parent="KEdP5b7hoXg_EnUgACLO-3" vertex="1">
          <mxGeometry x="193" y="39.5" width="160" height="50" as="geometry" />
        </mxCell>
        <mxCell id="KEdP5b7hoXg_EnUgACLO-7" value="" style="endArrow=block;dashed=1;endFill=0;endSize=12;html=1;dashPattern=1 1;strokeColor=#000000;strokeWidth=1;fontSize=10;fontColor=#000000;exitX=0;exitY=0.5;exitDx=0;exitDy=0;entryX=1;entryY=0.25;entryDx=0;entryDy=0;" parent="KEdP5b7hoXg_EnUgACLO-3" source="KEdP5b7hoXg_EnUgACLO-6" target="KEdP5b7hoXg_EnUgACLO-5" edge="1">
          <mxGeometry width="160" relative="1" as="geometry">
            <mxPoint x="200" y="176" as="sourcePoint" />
            <mxPoint x="360" y="176" as="targetPoint" />
          </mxGeometry>
        </mxCell>
        <mxCell id="KEdP5b7hoXg_EnUgACLO-8" value="Shared &lt;br&gt;Models" style="html=1;shadow=0;glass=0;comic=0;strokeColor=#000000;strokeWidth=1;fillColor=none;fontSize=10;fontColor=#000000;align=center;verticalAlign=top;recursiveResize=0;" parent="kR0dyHa6UfzgNSQLlXI4-1" vertex="1">
          <mxGeometry x="490" y="200" width="150" height="320" as="geometry" />
        </mxCell>
        <mxCell id="KEdP5b7hoXg_EnUgACLO-9" value="" style="shape=component;jettyWidth=8;jettyHeight=4;strokeColor=#000000;strokeWidth=1;fontColor=#000000;" parent="KEdP5b7hoXg_EnUgACLO-8" vertex="1">
          <mxGeometry x="1" width="16" height="16" relative="1" as="geometry">
            <mxPoint x="-20" y="5" as="offset" />
          </mxGeometry>
        </mxCell>
        <mxCell id="5gHHK1qsaTT1bzXdvcao-36" style="rounded=1;orthogonalLoop=1;jettySize=auto;html=1;entryX=0.5;entryY=0;entryDx=0;entryDy=0;startArrow=diamondThin;startFill=1;startSize=6;endArrow=none;endFill=0;endSize=6;strokeColor=#000000;strokeWidth=1;fontSize=10;fontColor=#000000;exitX=0.5;exitY=1.109;exitDx=0;exitDy=0;exitPerimeter=0;" parent="KEdP5b7hoXg_EnUgACLO-8" source="5gHHK1qsaTT1bzXdvcao-37" target="5gHHK1qsaTT1bzXdvcao-0" edge="1">
          <mxGeometry relative="1" as="geometry" />
        </mxCell>
        <mxCell id="seUFafHCCX7kk9ICavqg-0" value="Session" style="swimlane;fontStyle=0;childLayout=stackLayout;horizontal=1;startSize=26;fillColor=none;horizontalStack=0;resizeParent=1;resizeParentMax=0;resizeLast=0;collapsible=1;marginBottom=0;shadow=0;glass=0;comic=0;strokeColor=#000000;fontSize=10;opacity=30;html=1;" parent="KEdP5b7hoXg_EnUgACLO-8" vertex="1">
          <mxGeometry x="10" y="41" width="120" height="87.75438596491227" as="geometry" />
        </mxCell>
        <mxCell id="seUFafHCCX7kk9ICavqg-1" value="+ ID : Guid" style="text;strokeColor=none;fillColor=none;align=left;verticalAlign=top;spacingLeft=4;spacingRight=4;overflow=hidden;rotatable=0;points=[[0,0.5],[1,0.5]];portConstraint=eastwest;fontSize=10;" parent="seUFafHCCX7kk9ICavqg-0" vertex="1">
          <mxGeometry y="26" width="120" height="15.438596491228067" as="geometry" />
        </mxCell>
        <mxCell id="seUFafHCCX7kk9ICavqg-2" value="+ Enabled : bool&#xa;" style="text;strokeColor=none;fillColor=none;align=left;verticalAlign=top;spacingLeft=4;spacingRight=4;overflow=hidden;rotatable=0;points=[[0,0.5],[1,0.5]];portConstraint=eastwest;fontSize=10;" parent="seUFafHCCX7kk9ICavqg-0" vertex="1">
          <mxGeometry y="41.43859649122807" width="120" height="15.438596491228067" as="geometry" />
        </mxCell>
        <mxCell id="seUFafHCCX7kk9ICavqg-3" value="+ DateTime : datetime&#xa;" style="text;strokeColor=none;fillColor=none;align=left;verticalAlign=top;spacingLeft=4;spacingRight=4;overflow=hidden;rotatable=0;points=[[0,0.5],[1,0.5]];portConstraint=eastwest;fontSize=10;" parent="seUFafHCCX7kk9ICavqg-0" vertex="1">
          <mxGeometry y="56.87719298245614" width="120" height="15.438596491228067" as="geometry" />
        </mxCell>
        <mxCell id="5gHHK1qsaTT1bzXdvcao-37" value="+ Principal : Principal&#xa;" style="text;strokeColor=none;fillColor=none;align=left;verticalAlign=top;spacingLeft=4;spacingRight=4;overflow=hidden;rotatable=0;points=[[0,0.5],[1,0.5]];portConstraint=eastwest;fontSize=10;" parent="seUFafHCCX7kk9ICavqg-0" vertex="1">
          <mxGeometry y="72.3157894736842" width="120" height="15.438596491228067" as="geometry" />
        </mxCell>
        <mxCell id="5gHHK1qsaTT1bzXdvcao-0" value="SessionOperation" style="swimlane;fontStyle=0;childLayout=stackLayout;horizontal=1;startSize=26;fillColor=none;horizontalStack=0;resizeParent=1;resizeParentMax=0;resizeLast=0;collapsible=1;marginBottom=0;shadow=0;glass=0;comic=0;strokeColor=#000000;fontSize=10;opacity=30;html=1;" parent="KEdP5b7hoXg_EnUgACLO-8" vertex="1">
          <mxGeometry x="10" y="160" width="120" height="134.07017543859646" as="geometry" />
        </mxCell>
        <mxCell id="5gHHK1qsaTT1bzXdvcao-1" value="+ ID : Guid" style="text;strokeColor=none;fillColor=none;align=left;verticalAlign=top;spacingLeft=4;spacingRight=4;overflow=hidden;rotatable=0;points=[[0,0.5],[1,0.5]];portConstraint=eastwest;fontSize=10;" parent="5gHHK1qsaTT1bzXdvcao-0" vertex="1">
          <mxGeometry y="26" width="120" height="15.438596491228067" as="geometry" />
        </mxCell>
        <mxCell id="5gHHK1qsaTT1bzXdvcao-2" value="+ ParentFK : Guid&#xa;" style="text;strokeColor=none;fillColor=none;align=left;verticalAlign=top;spacingLeft=4;spacingRight=4;overflow=hidden;rotatable=0;points=[[0,0.5],[1,0.5]];portConstraint=eastwest;fontSize=10;" parent="5gHHK1qsaTT1bzXdvcao-0" vertex="1">
          <mxGeometry y="41.43859649122807" width="120" height="15.438596491228067" as="geometry" />
        </mxCell>
        <mxCell id="5gHHK1qsaTT1bzXdvcao-3" value="+ DateTime : datetime&#xa;" style="text;strokeColor=none;fillColor=none;align=left;verticalAlign=top;spacingLeft=4;spacingRight=4;overflow=hidden;rotatable=0;points=[[0,0.5],[1,0.5]];portConstraint=eastwest;fontSize=10;" parent="5gHHK1qsaTT1bzXdvcao-0" vertex="1">
          <mxGeometry y="56.87719298245614" width="120" height="15.438596491228067" as="geometry" />
        </mxCell>
        <mxCell id="5gHHK1qsaTT1bzXdvcao-4" value="+ IP : string&#xa;" style="text;strokeColor=none;fillColor=none;align=left;verticalAlign=top;spacingLeft=4;spacingRight=4;overflow=hidden;rotatable=0;points=[[0,0.5],[1,0.5]];portConstraint=eastwest;fontSize=10;" parent="5gHHK1qsaTT1bzXdvcao-0" vertex="1">
          <mxGeometry y="72.3157894736842" width="120" height="15.438596491228067" as="geometry" />
        </mxCell>
        <mxCell id="5gHHK1qsaTT1bzXdvcao-5" value="+ Location : Location&#xa;" style="text;strokeColor=none;fillColor=none;align=left;verticalAlign=top;spacingLeft=4;spacingRight=4;overflow=hidden;rotatable=0;points=[[0,0.5],[1,0.5]];portConstraint=eastwest;fontSize=10;" parent="5gHHK1qsaTT1bzXdvcao-0" vertex="1">
          <mxGeometry y="87.75438596491227" width="120" height="15.438596491228067" as="geometry" />
        </mxCell>
        <mxCell id="5gHHK1qsaTT1bzXdvcao-6" value="+ LocationInfo : string&#xa;" style="text;strokeColor=none;fillColor=none;align=left;verticalAlign=top;spacingLeft=4;spacingRight=4;overflow=hidden;rotatable=0;points=[[0,0.5],[1,0.5]];portConstraint=eastwest;fontSize=10;" parent="5gHHK1qsaTT1bzXdvcao-0" vertex="1">
          <mxGeometry y="103.19298245614034" width="120" height="15.438596491228067" as="geometry" />
        </mxCell>
        <mxCell id="5gHHK1qsaTT1bzXdvcao-7" value="+ SerializedOperation : s&#xa;" style="text;strokeColor=none;fillColor=none;align=left;verticalAlign=top;spacingLeft=4;spacingRight=4;overflow=hidden;rotatable=0;points=[[0,0.5],[1,0.5]];portConstraint=eastwest;fontSize=10;" parent="5gHHK1qsaTT1bzXdvcao-0" vertex="1">
          <mxGeometry y="118.63157894736841" width="120" height="15.438596491228067" as="geometry" />
        </mxCell>
        <mxCell id="RYbiFkgNu3QQJwJltJlH-0" value="Title/Diagram" parent="GfztVlVH8X5T1AdBpDcx-0" />
        <mxCell id="RYbiFkgNu3QQJwJltJlH-1" value="&lt;font style=&quot;font-size: 12px&quot;&gt;&lt;span&gt;Diagram: Development - Services and Models -&amp;nbsp;&lt;/span&gt;Session&lt;/font&gt;" style="text;strokeColor=none;fillColor=none;html=1;fontSize=10;fontStyle=2;verticalAlign=middle;align=left;shadow=0;glass=0;comic=0;opacity=30;fontColor=#808080;" parent="RYbiFkgNu3QQJwJltJlH-0" vertex="1">
          <mxGeometry x="120" y="580" width="520" height="20" as="geometry" />
        </mxCell>
        <mxCell id="kR0dyHa6UfzgNSQLlXI4-0" value="Title/Page" parent="GfztVlVH8X5T1AdBpDcx-0" visible="0" />
        <mxCell id="KEdP5b7hoXg_EnUgACLO-0" value="" style="group;fontSize=10;" parent="kR0dyHa6UfzgNSQLlXI4-0" vertex="1" connectable="0">
          <mxGeometry x="120" y="120" width="560" height="45" as="geometry" />
        </mxCell>
        <mxCell id="KEdP5b7hoXg_EnUgACLO-1" value="&lt;font style=&quot;font-size: 12px&quot;&gt;&lt;span&gt;Base Logical Module - Development - Services and Models -&amp;nbsp;&lt;/span&gt;Session&lt;/font&gt;" style="text;strokeColor=none;fillColor=none;html=1;fontSize=10;fontStyle=1;verticalAlign=middle;align=left;shadow=0;glass=0;comic=0;opacity=30;fontColor=#808080;" parent="KEdP5b7hoXg_EnUgACLO-0" vertex="1">
          <mxGeometry width="560" height="40" as="geometry" />
        </mxCell>
        <mxCell id="KEdP5b7hoXg_EnUgACLO-2" value="" style="line;strokeWidth=2;html=1;shadow=0;glass=0;comic=0;fillColor=none;fontSize=10;fontColor=#CCCCCC;labelBackgroundColor=none;strokeColor=#CCCCCC;" parent="KEdP5b7hoXg_EnUgACLO-0" vertex="1">
          <mxGeometry y="35" width="560" height="10" as="geometry" />
        </mxCell>
        <mxCell id="GfztVlVH8X5T1AdBpDcx-1" value="About" parent="GfztVlVH8X5T1AdBpDcx-0" />
      </root>
    </mxGraphModel>
  </diagram>
  <diagram id="rnbIqcGNvr6I-QTC6tqi" name="Development/Services/Notification">
    <mxGraphModel dx="1711" dy="732" grid="1" gridSize="10" guides="1" tooltips="1" connect="1" arrows="1" fold="1" page="1" pageScale="1" pageWidth="827" pageHeight="1169" math="0" shadow="0">
      <root>
        <mxCell id="fyvhT87mVhI8fAuMg201-0" />
        <mxCell id="-sjhDVOEptQDQ_ChQUKa-1" value="Diagram" parent="fyvhT87mVhI8fAuMg201-0" />
        <mxCell id="-BFXNNJu062WPIykz-4U-3" value="Infrastructure &lt;br&gt;Services" style="html=1;shadow=0;glass=0;comic=0;strokeColor=#000000;strokeWidth=1;fillColor=none;fontSize=10;fontColor=#000000;align=center;verticalAlign=top;recursiveResize=0;" parent="-sjhDVOEptQDQ_ChQUKa-1" vertex="1">
          <mxGeometry x="120" y="200" width="380" height="320" as="geometry" />
        </mxCell>
        <mxCell id="-BFXNNJu062WPIykz-4U-4" value="" style="shape=component;jettyWidth=8;jettyHeight=4;strokeColor=#000000;strokeWidth=1;fontColor=#000000;" parent="-BFXNNJu062WPIykz-4U-3" vertex="1">
          <mxGeometry x="1" width="16" height="16" relative="1" as="geometry">
            <mxPoint x="-20" y="5" as="offset" />
          </mxGeometry>
        </mxCell>
        <mxCell id="-BFXNNJu062WPIykz-4U-5" value="&lt;p style=&quot;margin: 0px ; margin-top: 4px ; text-align: center&quot;&gt;&amp;lt;&amp;lt;interface&amp;gt;&amp;gt;&lt;br&gt;INotificationService&lt;/p&gt;&lt;hr size=&quot;1&quot;&gt;&lt;div style=&quot;height: 2px&quot;&gt;+ Send(Notification) : void&lt;br&gt;&lt;/div&gt;&lt;div style=&quot;height: 2px&quot;&gt;&lt;br&gt;&lt;/div&gt;&lt;div style=&quot;height: 2px&quot;&gt;&lt;br&gt;&lt;/div&gt;" style="verticalAlign=top;align=left;overflow=fill;fontSize=12;fontFamily=Helvetica;html=1;shadow=0;glass=0;comic=0;strokeColor=#B3B3B3;strokeWidth=1;fillColor=none;" parent="-BFXNNJu062WPIykz-4U-3" vertex="1">
          <mxGeometry x="10" y="40" width="160" height="69" as="geometry" />
        </mxCell>
        <mxCell id="-BFXNNJu062WPIykz-4U-6" value="&lt;p style=&quot;margin: 0px ; margin-top: 4px ; text-align: center&quot;&gt;NotificationService&lt;/p&gt;&lt;hr size=&quot;1&quot;&gt;&lt;div style=&quot;height: 2px&quot;&gt;&lt;br&gt;&lt;/div&gt;" style="verticalAlign=top;align=left;overflow=fill;fontSize=12;fontFamily=Helvetica;html=1;shadow=0;glass=0;comic=0;strokeColor=#B3B3B3;strokeWidth=1;fillColor=none;" parent="-BFXNNJu062WPIykz-4U-3" vertex="1">
          <mxGeometry x="210" y="40" width="160" height="50" as="geometry" />
        </mxCell>
        <mxCell id="-BFXNNJu062WPIykz-4U-7" value="" style="endArrow=block;dashed=1;endFill=0;endSize=12;html=1;dashPattern=1 1;strokeColor=#000000;strokeWidth=1;fontSize=10;fontColor=#000000;exitX=0.009;exitY=0.352;exitDx=0;exitDy=0;entryX=1;entryY=0.25;entryDx=0;entryDy=0;exitPerimeter=0;" parent="-BFXNNJu062WPIykz-4U-3" source="-BFXNNJu062WPIykz-4U-6" target="-BFXNNJu062WPIykz-4U-5" edge="1">
          <mxGeometry width="160" relative="1" as="geometry">
            <mxPoint x="200" y="176" as="sourcePoint" />
            <mxPoint x="360" y="176" as="targetPoint" />
          </mxGeometry>
        </mxCell>
        <mxCell id="-BFXNNJu062WPIykz-4U-8" value="Shared &lt;br&gt;Models" style="html=1;shadow=0;glass=0;comic=0;strokeColor=#000000;strokeWidth=1;fillColor=none;fontSize=10;fontColor=#000000;align=center;verticalAlign=top;recursiveResize=0;" parent="-sjhDVOEptQDQ_ChQUKa-1" vertex="1">
          <mxGeometry x="520" y="200" width="130" height="320" as="geometry" />
        </mxCell>
        <mxCell id="-BFXNNJu062WPIykz-4U-9" value="" style="shape=component;jettyWidth=8;jettyHeight=4;strokeColor=#000000;strokeWidth=1;fontColor=#000000;" parent="-BFXNNJu062WPIykz-4U-8" vertex="1">
          <mxGeometry x="1" width="16" height="16" relative="1" as="geometry">
            <mxPoint x="-20" y="5" as="offset" />
          </mxGeometry>
        </mxCell>
        <mxCell id="-BFXNNJu062WPIykz-4U-11" value="Notification" style="swimlane;fontStyle=0;childLayout=stackLayout;horizontal=1;startSize=26;fillColor=none;horizontalStack=0;resizeParent=1;resizeParentMax=0;resizeLast=0;collapsible=1;marginBottom=0;shadow=0;glass=0;comic=0;strokeColor=#000000;fontSize=10;opacity=30;html=1;" parent="-BFXNNJu062WPIykz-4U-8" vertex="1">
          <mxGeometry x="10" y="41" width="120" height="103.19298245614034" as="geometry" />
        </mxCell>
        <mxCell id="-BFXNNJu062WPIykz-4U-12" value="+ ID : Guid" style="text;strokeColor=none;fillColor=none;align=left;verticalAlign=top;spacingLeft=4;spacingRight=4;overflow=hidden;rotatable=0;points=[[0,0.5],[1,0.5]];portConstraint=eastwest;fontSize=10;" parent="-BFXNNJu062WPIykz-4U-11" vertex="1">
          <mxGeometry y="26" width="120" height="15.438596491228068" as="geometry" />
        </mxCell>
        <mxCell id="-BFXNNJu062WPIykz-4U-14" value="+ DateTime : datetime&#xa;" style="text;strokeColor=none;fillColor=none;align=left;verticalAlign=top;spacingLeft=4;spacingRight=4;overflow=hidden;rotatable=0;points=[[0,0.5],[1,0.5]];portConstraint=eastwest;fontSize=10;" parent="-BFXNNJu062WPIykz-4U-11" vertex="1">
          <mxGeometry y="41.43859649122807" width="120" height="15.438596491228068" as="geometry" />
        </mxCell>
        <mxCell id="-BFXNNJu062WPIykz-4U-15" value="+ From : TenantMember&#xa;" style="text;strokeColor=none;fillColor=none;align=left;verticalAlign=top;spacingLeft=4;spacingRight=4;overflow=hidden;rotatable=0;points=[[0,0.5],[1,0.5]];portConstraint=eastwest;fontSize=10;" parent="-BFXNNJu062WPIykz-4U-11" vertex="1">
          <mxGeometry y="56.87719298245614" width="120" height="15.438596491228068" as="geometry" />
        </mxCell>
        <mxCell id="-BFXNNJu062WPIykz-4U-24" value="+ Title : string&#xa;" style="text;strokeColor=none;fillColor=none;align=left;verticalAlign=top;spacingLeft=4;spacingRight=4;overflow=hidden;rotatable=0;points=[[0,0.5],[1,0.5]];portConstraint=eastwest;fontSize=10;" parent="-BFXNNJu062WPIykz-4U-11" vertex="1">
          <mxGeometry y="72.3157894736842" width="120" height="15.438596491228068" as="geometry" />
        </mxCell>
        <mxCell id="-BFXNNJu062WPIykz-4U-25" value="+ Body : string&#xa;" style="text;strokeColor=none;fillColor=none;align=left;verticalAlign=top;spacingLeft=4;spacingRight=4;overflow=hidden;rotatable=0;points=[[0,0.5],[1,0.5]];portConstraint=eastwest;fontSize=10;" parent="-BFXNNJu062WPIykz-4U-11" vertex="1">
          <mxGeometry y="87.75438596491227" width="120" height="15.438596491228068" as="geometry" />
        </mxCell>
        <mxCell id="Y9t-i4MSZLmE-Kp62Npd-0" value="Title/Diagram" parent="fyvhT87mVhI8fAuMg201-0" />
        <mxCell id="Y9t-i4MSZLmE-Kp62Npd-1" value="&lt;font style=&quot;font-size: 12px&quot;&gt;&lt;span&gt;Diagram: Development - Services and Models -&amp;nbsp;&lt;/span&gt;Notification&lt;/font&gt;" style="text;strokeColor=none;fillColor=none;html=1;fontSize=10;fontStyle=2;verticalAlign=middle;align=left;shadow=0;glass=0;comic=0;opacity=30;fontColor=#808080;" parent="Y9t-i4MSZLmE-Kp62Npd-0" vertex="1">
          <mxGeometry x="120" y="560" width="560" height="20" as="geometry" />
        </mxCell>
        <mxCell id="-sjhDVOEptQDQ_ChQUKa-0" value="Title/page" parent="fyvhT87mVhI8fAuMg201-0" visible="0" />
        <mxCell id="-BFXNNJu062WPIykz-4U-0" value="" style="group;fontSize=10;" parent="-sjhDVOEptQDQ_ChQUKa-0" vertex="1" connectable="0">
          <mxGeometry x="120" y="120" width="560" height="45" as="geometry" />
        </mxCell>
        <mxCell id="-BFXNNJu062WPIykz-4U-1" value="&lt;font style=&quot;font-size: 12px&quot;&gt;&lt;span&gt;Base Logical Module - Development - Services and Models -&amp;nbsp;&lt;/span&gt;Notification&lt;/font&gt;" style="text;strokeColor=none;fillColor=none;html=1;fontSize=10;fontStyle=1;verticalAlign=middle;align=left;shadow=0;glass=0;comic=0;opacity=30;fontColor=#808080;" parent="-BFXNNJu062WPIykz-4U-0" vertex="1">
          <mxGeometry width="560" height="40" as="geometry" />
        </mxCell>
        <mxCell id="-BFXNNJu062WPIykz-4U-2" value="" style="line;strokeWidth=2;html=1;shadow=0;glass=0;comic=0;fillColor=none;fontSize=10;fontColor=#CCCCCC;labelBackgroundColor=none;strokeColor=#CCCCCC;" parent="-BFXNNJu062WPIykz-4U-0" vertex="1">
          <mxGeometry y="35" width="560" height="10" as="geometry" />
        </mxCell>
        <mxCell id="fyvhT87mVhI8fAuMg201-1" value="About" parent="fyvhT87mVhI8fAuMg201-0" />
      </root>
    </mxGraphModel>
  </diagram>
  <diagram name="Development/Services/Search" id="Fbt_znGCvckLRgc-tyRb">
    <mxGraphModel dx="1711" dy="732" grid="1" gridSize="10" guides="1" tooltips="1" connect="1" arrows="1" fold="1" page="1" pageScale="1" pageWidth="827" pageHeight="1169" math="0" shadow="0">
      <root>
        <mxCell id="mF-SLr7VJNmyXrGlo042-0" />
        <mxCell id="rWqlBSIA1xTFXJcujB7h-1" value="Diagram" parent="mF-SLr7VJNmyXrGlo042-0" />
        <mxCell id="mF-SLr7VJNmyXrGlo042-5" value="Infrastructure &lt;br style=&quot;font-size: 12px;&quot;&gt;Services" style="html=1;shadow=0;glass=0;comic=0;strokeColor=#000000;strokeWidth=1;fillColor=none;fontSize=12;fontColor=#000000;align=center;verticalAlign=top;recursiveResize=0;" parent="rWqlBSIA1xTFXJcujB7h-1" vertex="1">
          <mxGeometry x="120" y="200" width="340" height="320" as="geometry" />
        </mxCell>
        <mxCell id="mF-SLr7VJNmyXrGlo042-6" value="" style="shape=component;jettyWidth=8;jettyHeight=4;strokeColor=#000000;strokeWidth=1;fontColor=#000000;fontSize=12;" parent="mF-SLr7VJNmyXrGlo042-5" vertex="1">
          <mxGeometry x="1" width="16" height="16" relative="1" as="geometry">
            <mxPoint x="-20" y="5" as="offset" />
          </mxGeometry>
        </mxCell>
        <mxCell id="mF-SLr7VJNmyXrGlo042-7" value="&lt;p style=&quot;margin: 4px 0px 0px; text-align: center; font-size: 12px;&quot;&gt;&amp;lt;&amp;lt;interface&amp;gt;&amp;gt;&lt;br style=&quot;font-size: 12px;&quot;&gt;ISearchService&lt;/p&gt;&lt;hr style=&quot;font-size: 12px;&quot;&gt;&lt;div style=&quot;height: 2px; font-size: 12px;&quot;&gt;+ Search(Type:string,&lt;br style=&quot;font-size: 12px;&quot;&gt;&amp;nbsp; &amp;nbsp; &amp;nbsp; &amp;nbsp; &amp;nbsp; &amp;nbsp; &amp;nbsp; &amp;nbsp; term:string) : &lt;br style=&quot;font-size: 12px;&quot;&gt;&amp;nbsp; &amp;nbsp; SeachSummaryItem[]&lt;br style=&quot;font-size: 12px;&quot;&gt;&lt;/div&gt;&lt;div style=&quot;height: 2px; font-size: 12px;&quot;&gt;&lt;br style=&quot;font-size: 12px;&quot;&gt;&lt;/div&gt;&lt;div style=&quot;height: 2px; font-size: 12px;&quot;&gt;&lt;br style=&quot;font-size: 12px;&quot;&gt;&lt;/div&gt;" style="verticalAlign=top;align=left;overflow=fill;fontSize=12;fontFamily=Helvetica;html=1;shadow=0;glass=0;comic=0;strokeColor=#B3B3B3;strokeWidth=1;fillColor=none;" parent="mF-SLr7VJNmyXrGlo042-5" vertex="1">
          <mxGeometry x="20" y="41" width="120" height="119" as="geometry" />
        </mxCell>
        <mxCell id="mF-SLr7VJNmyXrGlo042-8" value="&lt;p style=&quot;margin: 4px 0px 0px; text-align: center; font-size: 12px;&quot;&gt;SearchService&lt;/p&gt;&lt;hr style=&quot;font-size: 12px;&quot;&gt;&lt;div style=&quot;height: 2px; font-size: 12px;&quot;&gt;&lt;br style=&quot;font-size: 12px;&quot;&gt;&lt;/div&gt;" style="verticalAlign=top;align=left;overflow=fill;fontSize=12;fontFamily=Helvetica;html=1;shadow=0;glass=0;comic=0;strokeColor=#B3B3B3;strokeWidth=1;fillColor=none;" parent="mF-SLr7VJNmyXrGlo042-5" vertex="1">
          <mxGeometry x="180" y="41" width="120" height="50" as="geometry" />
        </mxCell>
        <mxCell id="mF-SLr7VJNmyXrGlo042-9" value="" style="endArrow=block;dashed=1;endFill=0;endSize=12;html=1;dashPattern=1 1;strokeColor=#000000;strokeWidth=1;fontSize=12;fontColor=#000000;exitX=0.009;exitY=0.352;exitDx=0;exitDy=0;exitPerimeter=0;" parent="mF-SLr7VJNmyXrGlo042-5" source="mF-SLr7VJNmyXrGlo042-8" edge="1">
          <mxGeometry width="160" relative="1" as="geometry">
            <mxPoint x="160" y="176" as="sourcePoint" />
            <mxPoint x="141" y="60" as="targetPoint" />
          </mxGeometry>
        </mxCell>
        <mxCell id="mF-SLr7VJNmyXrGlo042-10" value="Shared &lt;br style=&quot;font-size: 12px;&quot;&gt;Models" style="html=1;shadow=0;glass=0;comic=0;strokeColor=#000000;strokeWidth=1;fillColor=none;fontSize=12;fontColor=#000000;align=center;verticalAlign=top;recursiveResize=0;" parent="rWqlBSIA1xTFXJcujB7h-1" vertex="1">
          <mxGeometry x="500" y="200" width="180" height="320" as="geometry" />
        </mxCell>
        <mxCell id="mF-SLr7VJNmyXrGlo042-11" value="" style="shape=component;jettyWidth=8;jettyHeight=4;strokeColor=#000000;strokeWidth=1;fontColor=#000000;fontSize=12;" parent="mF-SLr7VJNmyXrGlo042-10" vertex="1">
          <mxGeometry x="1" width="16" height="16" relative="1" as="geometry">
            <mxPoint x="-20" y="5" as="offset" />
          </mxGeometry>
        </mxCell>
        <mxCell id="mF-SLr7VJNmyXrGlo042-12" value="Notification" style="swimlane;fontStyle=0;childLayout=stackLayout;horizontal=1;startSize=26;fillColor=none;horizontalStack=0;resizeParent=1;resizeParentMax=0;resizeLast=0;collapsible=1;marginBottom=0;shadow=0;glass=0;comic=0;strokeColor=#000000;fontSize=12;opacity=30;html=1;spacing=-3;verticalAlign=top;" parent="mF-SLr7VJNmyXrGlo042-10" vertex="1">
          <mxGeometry x="10" y="41" width="160" height="120.00438596491227" as="geometry" />
        </mxCell>
        <mxCell id="mF-SLr7VJNmyXrGlo042-13" value="+ TypeIdentifier : string" style="text;strokeColor=none;fillColor=none;align=left;verticalAlign=top;spacingLeft=4;spacingRight=4;overflow=hidden;rotatable=0;points=[[0,0.5],[1,0.5]];portConstraint=eastwest;fontSize=12;spacing=-3;" parent="mF-SLr7VJNmyXrGlo042-12" vertex="1">
          <mxGeometry y="26" width="160" height="15.438596491228067" as="geometry" />
        </mxCell>
        <mxCell id="mF-SLr7VJNmyXrGlo042-14" value="+ SerializedIdentifier : string&#xa;" style="text;strokeColor=none;fillColor=none;align=left;verticalAlign=top;spacingLeft=4;spacingRight=4;overflow=hidden;rotatable=0;points=[[0,0.5],[1,0.5]];portConstraint=eastwest;fontSize=12;spacing=-3;" parent="mF-SLr7VJNmyXrGlo042-12" vertex="1">
          <mxGeometry y="41.43859649122807" width="160" height="15.438596491228067" as="geometry" />
        </mxCell>
        <mxCell id="mF-SLr7VJNmyXrGlo042-15" value="+ DisplayStyleHint : string&#xa;" style="text;strokeColor=none;fillColor=none;align=left;verticalAlign=top;spacingLeft=4;spacingRight=4;overflow=hidden;rotatable=0;points=[[0,0.5],[1,0.5]];portConstraint=eastwest;fontSize=12;spacing=-3;" parent="mF-SLr7VJNmyXrGlo042-12" vertex="1">
          <mxGeometry y="56.87719298245614" width="160" height="15.438596491228067" as="geometry" />
        </mxCell>
        <mxCell id="mF-SLr7VJNmyXrGlo042-16" value="+ Title : string&#xa;" style="text;strokeColor=none;fillColor=none;align=left;verticalAlign=top;spacingLeft=4;spacingRight=4;overflow=hidden;rotatable=0;points=[[0,0.5],[1,0.5]];portConstraint=eastwest;fontSize=12;spacing=-3;" parent="mF-SLr7VJNmyXrGlo042-12" vertex="1">
          <mxGeometry y="72.3157894736842" width="160" height="15.438596491228067" as="geometry" />
        </mxCell>
        <mxCell id="mF-SLr7VJNmyXrGlo042-17" value="+ Body : string&#xa;" style="text;strokeColor=none;fillColor=none;align=left;verticalAlign=top;spacingLeft=4;spacingRight=4;overflow=hidden;rotatable=0;points=[[0,0.5],[1,0.5]];portConstraint=eastwest;fontSize=12;spacing=-3;" parent="mF-SLr7VJNmyXrGlo042-12" vertex="1">
          <mxGeometry y="87.75438596491227" width="160" height="13" as="geometry" />
        </mxCell>
        <mxCell id="mF-SLr7VJNmyXrGlo042-18" value="+ Uri : string&#xa;" style="text;strokeColor=none;fillColor=none;align=left;verticalAlign=top;spacingLeft=4;spacingRight=4;overflow=hidden;rotatable=0;points=[[0,0.5],[1,0.5]];portConstraint=eastwest;fontSize=12;spacing=-3;" parent="mF-SLr7VJNmyXrGlo042-12" vertex="1">
          <mxGeometry y="100.75438596491227" width="160" height="19.25" as="geometry" />
        </mxCell>
        <mxCell id="uP2AAc1UBMZjshPWbv1P-0" value="Title/Diagram" parent="mF-SLr7VJNmyXrGlo042-0" />
        <mxCell id="uP2AAc1UBMZjshPWbv1P-1" value="&lt;font style=&quot;font-size: 12px&quot;&gt;&lt;span&gt;Diagram: Development - Services and Models -&amp;nbsp;&lt;/span&gt;Search&lt;/font&gt;" style="text;strokeColor=none;fillColor=none;html=1;fontSize=10;fontStyle=2;verticalAlign=middle;align=left;shadow=0;glass=0;comic=0;opacity=30;fontColor=#808080;" parent="uP2AAc1UBMZjshPWbv1P-0" vertex="1">
          <mxGeometry x="120" y="580" width="560" height="20" as="geometry" />
        </mxCell>
        <mxCell id="rWqlBSIA1xTFXJcujB7h-0" value="Title/Page" parent="mF-SLr7VJNmyXrGlo042-0" visible="0" />
        <mxCell id="mF-SLr7VJNmyXrGlo042-2" value="" style="group;fontSize=10;" parent="rWqlBSIA1xTFXJcujB7h-0" vertex="1" connectable="0">
          <mxGeometry x="120" y="120" width="560" height="45" as="geometry" />
        </mxCell>
        <mxCell id="mF-SLr7VJNmyXrGlo042-3" value="&lt;font style=&quot;font-size: 12px&quot;&gt;&lt;span&gt;Base Logical Module - Development - Services and Models -&amp;nbsp;&lt;/span&gt;Search&lt;/font&gt;" style="text;strokeColor=none;fillColor=none;html=1;fontSize=10;fontStyle=1;verticalAlign=middle;align=left;shadow=0;glass=0;comic=0;opacity=30;fontColor=#808080;" parent="mF-SLr7VJNmyXrGlo042-2" vertex="1">
          <mxGeometry width="560" height="40" as="geometry" />
        </mxCell>
        <mxCell id="mF-SLr7VJNmyXrGlo042-4" value="" style="line;strokeWidth=2;html=1;shadow=0;glass=0;comic=0;fillColor=none;fontSize=10;fontColor=#CCCCCC;labelBackgroundColor=none;strokeColor=#CCCCCC;" parent="mF-SLr7VJNmyXrGlo042-2" vertex="1">
          <mxGeometry y="35" width="560" height="10" as="geometry" />
        </mxCell>
        <mxCell id="mF-SLr7VJNmyXrGlo042-1" value="About" parent="mF-SLr7VJNmyXrGlo042-0" />
      </root>
    </mxGraphModel>
  </diagram>
  <diagram id="JtvFv2jWgVuBfdeJ_N3H" name="Development/Services/Auditing">
    <mxGraphModel dx="1711" dy="732" grid="1" gridSize="10" guides="1" tooltips="1" connect="1" arrows="1" fold="1" page="1" pageScale="1" pageWidth="827" pageHeight="1169" math="0" shadow="0">
      <root>
        <mxCell id="npKGPuGlWu6UiCLPCESe-0" />
        <mxCell id="p3qkFEdJNNZ6KRzBQ8dD-4" value="ERD" parent="npKGPuGlWu6UiCLPCESe-0" />
        <mxCell id="RYtBeDlU6JtX6hnRU1C8-0" value="Shared &lt;br style=&quot;font-size: 12px;&quot;&gt;Models" style="html=1;shadow=0;glass=0;comic=0;strokeColor=#000000;strokeWidth=1;fillColor=none;fontSize=12;fontColor=#000000;align=center;verticalAlign=top;recursiveResize=0;" parent="p3qkFEdJNNZ6KRzBQ8dD-4" vertex="1">
          <mxGeometry x="120" y="200" width="290" height="320" as="geometry" />
        </mxCell>
        <mxCell id="RYtBeDlU6JtX6hnRU1C8-1" value="" style="shape=component;jettyWidth=8;jettyHeight=4;strokeColor=#000000;strokeWidth=1;fontColor=#000000;fontSize=12;" parent="RYtBeDlU6JtX6hnRU1C8-0" vertex="1">
          <mxGeometry x="1" width="16" height="16" relative="1" as="geometry">
            <mxPoint x="-20" y="5" as="offset" />
          </mxGeometry>
        </mxCell>
        <mxCell id="RYtBeDlU6JtX6hnRU1C8-2" value="Data Classification" style="swimlane;fontStyle=0;childLayout=stackLayout;horizontal=1;startSize=26;fillColor=none;horizontalStack=0;resizeParent=1;resizeParentMax=0;resizeLast=0;collapsible=1;marginBottom=0;shadow=0;glass=0;comic=0;strokeColor=#000000;fontSize=12;opacity=30;html=1;spacing=-3;verticalAlign=top;" parent="RYtBeDlU6JtX6hnRU1C8-0" vertex="1">
          <mxGeometry x="10" y="41" width="160" height="120.00438596491227" as="geometry" />
        </mxCell>
        <mxCell id="RYtBeDlU6JtX6hnRU1C8-3" value="+ TypeIdentifier : string" style="text;strokeColor=none;fillColor=none;align=left;verticalAlign=top;spacingLeft=4;spacingRight=4;overflow=hidden;rotatable=0;points=[[0,0.5],[1,0.5]];portConstraint=eastwest;fontSize=12;spacing=-3;" parent="RYtBeDlU6JtX6hnRU1C8-2" vertex="1">
          <mxGeometry y="26" width="160" height="15.438596491228067" as="geometry" />
        </mxCell>
        <mxCell id="RYtBeDlU6JtX6hnRU1C8-4" value="+ SerializedIdentifier : string&#xa;" style="text;strokeColor=none;fillColor=none;align=left;verticalAlign=top;spacingLeft=4;spacingRight=4;overflow=hidden;rotatable=0;points=[[0,0.5],[1,0.5]];portConstraint=eastwest;fontSize=12;spacing=-3;" parent="RYtBeDlU6JtX6hnRU1C8-2" vertex="1">
          <mxGeometry y="41.43859649122807" width="160" height="15.438596491228067" as="geometry" />
        </mxCell>
        <mxCell id="RYtBeDlU6JtX6hnRU1C8-5" value="+ DisplayStyleHint : string&#xa;" style="text;strokeColor=none;fillColor=none;align=left;verticalAlign=top;spacingLeft=4;spacingRight=4;overflow=hidden;rotatable=0;points=[[0,0.5],[1,0.5]];portConstraint=eastwest;fontSize=12;spacing=-3;" parent="RYtBeDlU6JtX6hnRU1C8-2" vertex="1">
          <mxGeometry y="56.87719298245614" width="160" height="15.438596491228067" as="geometry" />
        </mxCell>
        <mxCell id="RYtBeDlU6JtX6hnRU1C8-6" value="+ Title : string&#xa;" style="text;strokeColor=none;fillColor=none;align=left;verticalAlign=top;spacingLeft=4;spacingRight=4;overflow=hidden;rotatable=0;points=[[0,0.5],[1,0.5]];portConstraint=eastwest;fontSize=12;spacing=-3;" parent="RYtBeDlU6JtX6hnRU1C8-2" vertex="1">
          <mxGeometry y="72.3157894736842" width="160" height="15.438596491228067" as="geometry" />
        </mxCell>
        <mxCell id="RYtBeDlU6JtX6hnRU1C8-7" value="+ Body : string&#xa;" style="text;strokeColor=none;fillColor=none;align=left;verticalAlign=top;spacingLeft=4;spacingRight=4;overflow=hidden;rotatable=0;points=[[0,0.5],[1,0.5]];portConstraint=eastwest;fontSize=12;spacing=-3;" parent="RYtBeDlU6JtX6hnRU1C8-2" vertex="1">
          <mxGeometry y="87.75438596491227" width="160" height="13" as="geometry" />
        </mxCell>
        <mxCell id="RYtBeDlU6JtX6hnRU1C8-8" value="+ Uri : string&#xa;" style="text;strokeColor=none;fillColor=none;align=left;verticalAlign=top;spacingLeft=4;spacingRight=4;overflow=hidden;rotatable=0;points=[[0,0.5],[1,0.5]];portConstraint=eastwest;fontSize=12;spacing=-3;" parent="RYtBeDlU6JtX6hnRU1C8-2" vertex="1">
          <mxGeometry y="100.75438596491227" width="160" height="19.25" as="geometry" />
        </mxCell>
        <mxCell id="H11sViBYsRrSHRtIS6vN-1" value="ERD - HL" parent="npKGPuGlWu6UiCLPCESe-0" />
        <mxCell id="xpKKQL-89eihASM3wOdC-0" value="Title/Diagram" parent="npKGPuGlWu6UiCLPCESe-0" />
        <mxCell id="xpKKQL-89eihASM3wOdC-1" value="&lt;font style=&quot;font-size: 12px ; font-weight: normal&quot;&gt;&lt;i&gt;&lt;span&gt;Diagram: Development - Services and Models -&amp;nbsp;&lt;/span&gt;Data Classification&lt;/i&gt;&lt;/font&gt;" style="text;strokeColor=none;fillColor=none;html=1;fontSize=10;fontStyle=1;verticalAlign=middle;align=left;shadow=0;glass=0;comic=0;opacity=30;fontColor=#808080;" parent="xpKKQL-89eihASM3wOdC-0" vertex="1">
          <mxGeometry x="120" y="580" width="520" height="20" as="geometry" />
        </mxCell>
        <mxCell id="p3qkFEdJNNZ6KRzBQ8dD-3" value="Title/Page" parent="npKGPuGlWu6UiCLPCESe-0" visible="0" />
        <mxCell id="p3qkFEdJNNZ6KRzBQ8dD-0" value="" style="group;fontSize=10;" parent="p3qkFEdJNNZ6KRzBQ8dD-3" vertex="1" connectable="0">
          <mxGeometry x="120" y="120" width="560" height="45" as="geometry" />
        </mxCell>
        <mxCell id="p3qkFEdJNNZ6KRzBQ8dD-1" value="&lt;font style=&quot;font-size: 12px&quot;&gt;&lt;span&gt;Base Logical Module - Development - Services and Models -&amp;nbsp;&lt;/span&gt;Data Classification&lt;/font&gt;" style="text;strokeColor=none;fillColor=none;html=1;fontSize=10;fontStyle=1;verticalAlign=middle;align=left;shadow=0;glass=0;comic=0;opacity=30;fontColor=#808080;" parent="p3qkFEdJNNZ6KRzBQ8dD-0" vertex="1">
          <mxGeometry width="560" height="40" as="geometry" />
        </mxCell>
        <mxCell id="p3qkFEdJNNZ6KRzBQ8dD-2" value="" style="line;strokeWidth=2;html=1;shadow=0;glass=0;comic=0;fillColor=none;fontSize=10;fontColor=#CCCCCC;labelBackgroundColor=none;strokeColor=#CCCCCC;" parent="p3qkFEdJNNZ6KRzBQ8dD-0" vertex="1">
          <mxGeometry y="35" width="560" height="10" as="geometry" />
        </mxCell>
        <mxCell id="npKGPuGlWu6UiCLPCESe-1" value="About" parent="npKGPuGlWu6UiCLPCESe-0" />
        <UserObject label="" tooltip="ABOUT&#xa;&#xa;The Core Module handles Auditing of all Operations initiated by end users, whatever Tenant they are operating in." id="uXHjo2mHct5CgGTOdIku-0">
          <mxCell style="shape=image;html=1;verticalAlign=top;verticalLabelPosition=bottom;labelBackgroundColor=#ffffff;imageAspect=0;aspect=fixed;image=https://cdn1.iconfinder.com/data/icons/hawcons/32/699014-icon-28-information-128.png;shadow=0;dashed=0;fontFamily=Helvetica;fontSize=12;fontColor=#000000;align=center;strokeColor=#000000;fillColor=#505050;dashPattern=1 1;" parent="npKGPuGlWu6UiCLPCESe-1" vertex="1">
            <mxGeometry x="660" y="580" width="20" height="20" as="geometry" />
          </mxCell>
        </UserObject>
      </root>
    </mxGraphModel>
  </diagram>
  <diagram name="Development/Classes/Entities/Modules" id="8nfrue9t_Dc0SnGyBlU_">
    <mxGraphModel dx="1711" dy="732" grid="1" gridSize="10" guides="1" tooltips="1" connect="1" arrows="1" fold="1" page="1" pageScale="1" pageWidth="827" pageHeight="1169" math="0" shadow="0">
      <root>
        <mxCell id="Tlv2JKYanRDKV4xtsIzU-0" />
        <mxCell id="Tlv2JKYanRDKV4xtsIzU-1" value="Diagram/ERD" style="" parent="Tlv2JKYanRDKV4xtsIzU-0" />
        <mxCell id="Tlv2JKYanRDKV4xtsIzU-2" value="Business Domain Logical Module (Example)" style="rounded=1;whiteSpace=wrap;html=1;shadow=0;glass=0;comic=0;strokeColor=#000000;fillColor=none;fontSize=12;align=left;fontColor=#333333;recursiveResize=0;container=1;collapsible=0;dashed=1;verticalAlign=top;spacing=2;spacingTop=-5;absoluteArcSize=1;arcSize=12;" parent="Tlv2JKYanRDKV4xtsIzU-1" vertex="1">
          <mxGeometry x="240" y="240" width="426" height="440" as="geometry" />
        </mxCell>
        <mxCell id="Tlv2JKYanRDKV4xtsIzU-6" style="edgeStyle=orthogonalEdgeStyle;rounded=0;orthogonalLoop=1;jettySize=auto;html=1;startArrow=none;startFill=0;endArrow=none;endFill=0;strokeColor=#CCCCCC;fontSize=12;" parent="Tlv2JKYanRDKV4xtsIzU-2" source="Tlv2JKYanRDKV4xtsIzU-7" target="Tlv2JKYanRDKV4xtsIzU-8" edge="1">
          <mxGeometry relative="1" as="geometry" />
        </mxCell>
        <mxCell id="Tlv2JKYanRDKV4xtsIzU-7" value="&lt;font style=&quot;font-size: 12px;&quot;&gt;&lt;font color=&quot;#999999&quot; style=&quot;font-size: 12px;&quot;&gt;Work&lt;br style=&quot;font-size: 12px;&quot;&gt;Personal&lt;br style=&quot;font-size: 12px;&quot;&gt;Custom&lt;/font&gt;&lt;br style=&quot;font-size: 12px;&quot;&gt;&lt;/font&gt;" style="shape=note;whiteSpace=wrap;html=1;size=14;verticalAlign=top;align=left;spacingTop=-6;strokeColor=#CCCCCC;fillColor=none;fontSize=12;fontColor=#000000;" parent="Tlv2JKYanRDKV4xtsIzU-2" vertex="1">
          <mxGeometry x="326" y="65" width="80" height="40" as="geometry" />
        </mxCell>
        <mxCell id="Tlv2JKYanRDKV4xtsIzU-8" value="[T]&lt;br style=&quot;font-size: 12px;&quot;&gt;Communication &lt;br style=&quot;font-size: 12px;&quot;&gt;Channel Purpose" style="swimlane;fontStyle=0;childLayout=stackLayout;horizontal=1;startSize=40;fillColor=none;horizontalStack=0;resizeParent=1;resizeParentMax=0;resizeLast=0;collapsible=0;marginBottom=0;strokeColor=#d6b656;fontSize=12;align=center;fontFamily=Helvetica;fontColor=#000000;strokeWidth=3;html=1;" parent="Tlv2JKYanRDKV4xtsIzU-2" vertex="1">
          <mxGeometry x="173" y="50" width="80" height="70" as="geometry" />
        </mxCell>
        <mxCell id="Tlv2JKYanRDKV4xtsIzU-4" value="0..*" style="edgeStyle=orthogonalEdgeStyle;rounded=1;orthogonalLoop=1;jettySize=auto;html=1;entryX=1;entryY=0.5;entryDx=0;entryDy=0;endArrow=open;endFill=0;startArrow=diamondThin;startFill=0;exitX=0.75;exitY=1;exitDx=0;exitDy=0;fontSize=12;" parent="Tlv2JKYanRDKV4xtsIzU-2" source="Tlv2JKYanRDKV4xtsIzU-3" target="Tlv2JKYanRDKV4xtsIzU-3" edge="1">
          <mxGeometry relative="1" as="geometry">
            <Array as="points">
              <mxPoint x="81" y="140.05" />
              <mxPoint x="121" y="140.05" />
              <mxPoint x="121" y="83.05" />
            </Array>
          </mxGeometry>
        </mxCell>
        <mxCell id="Tlv2JKYanRDKV4xtsIzU-3" value="[T]&lt;br style=&quot;font-size: 12px&quot;&gt;Contact Org" style="swimlane;fontStyle=0;childLayout=stackLayout;horizontal=1;startSize=26;fillColor=none;horizontalStack=0;resizeParent=1;resizeParentMax=0;resizeLast=0;collapsible=0;marginBottom=0;strokeColor=#d6b656;fontSize=12;align=center;fontFamily=Helvetica;fontColor=#000000;strokeWidth=3;html=1;" parent="Tlv2JKYanRDKV4xtsIzU-2" vertex="1">
          <mxGeometry x="21" y="49.999999999999986" width="80" height="66" as="geometry" />
        </mxCell>
        <mxCell id="Tlv2JKYanRDKV4xtsIzU-68" value="Name" style="text;html=1;align=center;verticalAlign=middle;resizable=0;points=[];autosize=1;fontSize=10;" parent="Tlv2JKYanRDKV4xtsIzU-3" vertex="1">
          <mxGeometry y="26" width="80" height="20" as="geometry" />
        </mxCell>
        <mxCell id="Tlv2JKYanRDKV4xtsIzU-69" value="Channels" style="text;html=1;align=center;verticalAlign=middle;resizable=0;points=[];autosize=1;fontSize=10;" parent="Tlv2JKYanRDKV4xtsIzU-3" vertex="1">
          <mxGeometry y="46" width="80" height="20" as="geometry" />
        </mxCell>
        <mxCell id="Tlv2JKYanRDKV4xtsIzU-14" value="1..*" style="edgeStyle=entityRelationEdgeStyle;fontSize=12;html=1;endArrow=open;exitX=1;exitY=0.5;exitDx=0;exitDy=0;entryX=-0.003;entryY=0.233;entryDx=0;entryDy=0;endFill=0;startArrow=diamondThin;startFill=1;entryPerimeter=0;" parent="Tlv2JKYanRDKV4xtsIzU-2" source="Tlv2JKYanRDKV4xtsIzU-10" target="Tlv2JKYanRDKV4xtsIzU-49" edge="1">
          <mxGeometry width="100" height="100" relative="1" as="geometry">
            <mxPoint x="11" y="220.05" as="sourcePoint" />
            <mxPoint x="175" y="265.05" as="targetPoint" />
          </mxGeometry>
        </mxCell>
        <mxCell id="Tlv2JKYanRDKV4xtsIzU-20" value="0..*" style="edgeStyle=orthogonalEdgeStyle;rounded=0;orthogonalLoop=1;jettySize=auto;html=1;startArrow=diamondThin;startFill=0;endArrow=none;endFill=0;fontSize=12;" parent="Tlv2JKYanRDKV4xtsIzU-2" source="Tlv2JKYanRDKV4xtsIzU-3" target="Tlv2JKYanRDKV4xtsIzU-10" edge="1">
          <mxGeometry relative="1" as="geometry" />
        </mxCell>
        <mxCell id="Tlv2JKYanRDKV4xtsIzU-60" style="edgeStyle=orthogonalEdgeStyle;rounded=0;orthogonalLoop=1;jettySize=auto;html=1;startArrow=diamondThin;startFill=0;endArrow=none;endFill=0;strokeColor=#000000;strokeWidth=1;fontSize=10;exitX=0.5;exitY=1;exitDx=0;exitDy=0;" parent="Tlv2JKYanRDKV4xtsIzU-2" source="Tlv2JKYanRDKV4xtsIzU-10" target="Tlv2JKYanRDKV4xtsIzU-57" edge="1">
          <mxGeometry relative="1" as="geometry">
            <mxPoint x="71" y="350.05" as="sourcePoint" />
          </mxGeometry>
        </mxCell>
        <mxCell id="Tlv2JKYanRDKV4xtsIzU-12" value="&lt;font style=&quot;font-size: 12px&quot;&gt;[T] &lt;br style=&quot;font-size: 12px&quot;&gt;Comm&amp;nbsp;&amp;nbsp;Channel&lt;br style=&quot;font-size: 12px&quot;&gt;(&lt;/font&gt;" style="swimlane;fontStyle=0;childLayout=stackLayout;horizontal=1;startSize=30;fillColor=none;horizontalStack=0;resizeParent=1;resizeParentMax=0;resizeLast=0;collapsible=0;marginBottom=0;fontFamily=Helvetica;fontSize=12;fontColor=#000000;align=center;strokeColor=#d6b656;strokeWidth=3;html=1;" parent="Tlv2JKYanRDKV4xtsIzU-2" vertex="1">
          <mxGeometry x="170" y="160.05000000000004" width="80" height="110" as="geometry" />
        </mxCell>
        <mxCell id="Tlv2JKYanRDKV4xtsIzU-48" value="Name" style="text;html=1;align=center;verticalAlign=middle;resizable=0;points=[];autosize=1;fontSize=10;" parent="Tlv2JKYanRDKV4xtsIzU-12" vertex="1">
          <mxGeometry y="30" width="80" height="20" as="geometry" />
        </mxCell>
        <mxCell id="Tlv2JKYanRDKV4xtsIzU-49" value="Type" style="text;html=1;align=center;verticalAlign=middle;resizable=0;points=[];autosize=1;fontSize=10;" parent="Tlv2JKYanRDKV4xtsIzU-12" vertex="1">
          <mxGeometry y="50" width="80" height="20" as="geometry" />
        </mxCell>
        <mxCell id="Tlv2JKYanRDKV4xtsIzU-50" value="Purpose" style="text;html=1;align=center;verticalAlign=middle;resizable=0;points=[];autosize=1;fontSize=10;" parent="Tlv2JKYanRDKV4xtsIzU-12" vertex="1">
          <mxGeometry y="70" width="80" height="20" as="geometry" />
        </mxCell>
        <mxCell id="Tlv2JKYanRDKV4xtsIzU-71" value="Value" style="text;html=1;align=center;verticalAlign=middle;resizable=0;points=[];autosize=1;fontSize=10;" parent="Tlv2JKYanRDKV4xtsIzU-12" vertex="1">
          <mxGeometry y="90" width="80" height="20" as="geometry" />
        </mxCell>
        <mxCell id="Tlv2JKYanRDKV4xtsIzU-13" value="[T]&lt;br style=&quot;font-size: 12px&quot;&gt;Comm&amp;nbsp;&lt;br style=&quot;font-size: 12px&quot;&gt;Channel Type" style="swimlane;fontStyle=0;childLayout=stackLayout;horizontal=1;startSize=35;fillColor=none;horizontalStack=0;resizeParent=1;resizeParentMax=0;resizeLast=0;collapsible=0;marginBottom=0;strokeColor=#d6b656;fontSize=12;align=center;fontFamily=Helvetica;fontColor=#000000;strokeWidth=3;html=1;" parent="Tlv2JKYanRDKV4xtsIzU-2" vertex="1">
          <mxGeometry x="310" y="187.73999999999998" width="96" height="64.46" as="geometry" />
        </mxCell>
        <mxCell id="Tlv2JKYanRDKV4xtsIzU-10" value="Contact" style="swimlane;fontStyle=0;childLayout=stackLayout;horizontal=1;startSize=26;fillColor=none;horizontalStack=0;resizeParent=1;resizeParentMax=0;resizeLast=0;collapsible=1;marginBottom=0;strokeColor=#d6b656;fontSize=12;align=center;fontFamily=Helvetica;fontColor=#000000;strokeWidth=3;html=1;" parent="Tlv2JKYanRDKV4xtsIzU-2" vertex="1">
          <mxGeometry x="30" y="160.05" width="80" height="106" as="geometry" />
        </mxCell>
        <mxCell id="Tlv2JKYanRDKV4xtsIzU-55" value="+ Preferred" style="text;html=1;align=left;verticalAlign=middle;resizable=0;points=[];autosize=1;fontSize=10;" parent="Tlv2JKYanRDKV4xtsIzU-10" vertex="1">
          <mxGeometry y="26" width="80" height="20" as="geometry" />
        </mxCell>
        <mxCell id="Tlv2JKYanRDKV4xtsIzU-59" value="+ Aliases" style="text;html=1;align=left;verticalAlign=middle;resizable=0;points=[];autosize=1;fontSize=10;" parent="Tlv2JKYanRDKV4xtsIzU-10" vertex="1">
          <mxGeometry y="46" width="80" height="20" as="geometry" />
        </mxCell>
        <mxCell id="Tlv2JKYanRDKV4xtsIzU-61" value="+ DOB" style="text;html=1;align=left;verticalAlign=middle;resizable=0;points=[];autosize=1;fontSize=10;" parent="Tlv2JKYanRDKV4xtsIzU-10" vertex="1">
          <mxGeometry y="66" width="80" height="20" as="geometry" />
        </mxCell>
        <mxCell id="Tlv2JKYanRDKV4xtsIzU-70" value="+ Channels" style="text;html=1;align=left;verticalAlign=middle;resizable=0;points=[];autosize=1;fontSize=10;" parent="Tlv2JKYanRDKV4xtsIzU-10" vertex="1">
          <mxGeometry y="86" width="80" height="20" as="geometry" />
        </mxCell>
        <mxCell id="Tlv2JKYanRDKV4xtsIzU-57" value="Alias" style="swimlane;fontStyle=0;childLayout=stackLayout;horizontal=1;startSize=20;fillColor=none;horizontalStack=0;resizeParent=1;resizeParentMax=0;resizeLast=0;collapsible=1;marginBottom=0;strokeColor=#d6b656;fontSize=12;align=center;fontFamily=Helvetica;fontColor=#000000;strokeWidth=3;html=1;" parent="Tlv2JKYanRDKV4xtsIzU-2" vertex="1">
          <mxGeometry x="30" y="320" width="80" height="40" as="geometry" />
        </mxCell>
        <mxCell id="Tlv2JKYanRDKV4xtsIzU-58" value="Name" style="text;html=1;align=left;verticalAlign=middle;resizable=0;points=[];autosize=1;fontSize=10;" parent="Tlv2JKYanRDKV4xtsIzU-57" vertex="1">
          <mxGeometry y="20" width="80" height="20" as="geometry" />
        </mxCell>
        <mxCell id="Tlv2JKYanRDKV4xtsIzU-16" value="Location" style="swimlane;fontStyle=0;childLayout=stackLayout;horizontal=1;startSize=26;fillColor=none;horizontalStack=0;resizeParent=1;resizeParentMax=0;resizeLast=0;collapsible=1;marginBottom=0;fontFamily=Helvetica;fontSize=12;fontColor=#000000;align=center;strokeColor=#d6b656;strokeWidth=3;html=1;" parent="Tlv2JKYanRDKV4xtsIzU-2" vertex="1">
          <mxGeometry x="170" y="310.00000000000006" width="80" height="86" as="geometry">
            <mxRectangle x="370" y="419.95" width="120" height="100.05" as="alternateBounds" />
          </mxGeometry>
        </mxCell>
        <mxCell id="Tlv2JKYanRDKV4xtsIzU-42" value="Name" style="text;html=1;align=center;verticalAlign=middle;resizable=0;points=[];autosize=1;fontSize=10;" parent="Tlv2JKYanRDKV4xtsIzU-16" vertex="1">
          <mxGeometry y="26" width="80" height="20" as="geometry" />
        </mxCell>
        <mxCell id="Tlv2JKYanRDKV4xtsIzU-43" value="Location" style="text;html=1;align=center;verticalAlign=middle;resizable=0;points=[];autosize=1;fontSize=10;" parent="Tlv2JKYanRDKV4xtsIzU-16" vertex="1">
          <mxGeometry y="46" width="80" height="20" as="geometry" />
        </mxCell>
        <mxCell id="Tlv2JKYanRDKV4xtsIzU-44" value="Coordinates" style="text;html=1;align=center;verticalAlign=middle;resizable=0;points=[];autosize=1;fontSize=10;" parent="Tlv2JKYanRDKV4xtsIzU-16" vertex="1">
          <mxGeometry y="66" width="80" height="20" as="geometry" />
        </mxCell>
        <mxCell id="Tlv2JKYanRDKV4xtsIzU-15" value="1" style="fontSize=12;html=1;endArrow=none;exitX=0;exitY=0.5;exitDx=0;exitDy=0;entryX=1;entryY=0.5;entryDx=0;entryDy=0;startArrow=open;startFill=0;endFill=0;" parent="Tlv2JKYanRDKV4xtsIzU-2" source="Tlv2JKYanRDKV4xtsIzU-13" target="Tlv2JKYanRDKV4xtsIzU-12" edge="1">
          <mxGeometry width="100" height="100" relative="1" as="geometry">
            <mxPoint x="355" y="170.05" as="sourcePoint" />
            <mxPoint x="455" y="70.05000000000001" as="targetPoint" />
          </mxGeometry>
        </mxCell>
        <mxCell id="Tlv2JKYanRDKV4xtsIzU-11" value="0..1" style="edgeStyle=orthogonalEdgeStyle;rounded=0;orthogonalLoop=1;jettySize=auto;html=1;endArrow=open;endFill=0;fontSize=12;startArrow=none;startFill=0;" parent="Tlv2JKYanRDKV4xtsIzU-2" source="Tlv2JKYanRDKV4xtsIzU-12" target="Tlv2JKYanRDKV4xtsIzU-16" edge="1">
          <mxGeometry relative="1" as="geometry" />
        </mxCell>
        <mxCell id="Tlv2JKYanRDKV4xtsIzU-5" value="&lt;font style=&quot;font-size: 12px&quot;&gt;&lt;font color=&quot;#b3b3b3&quot; style=&quot;font-size: 12px&quot;&gt;Email&lt;br style=&quot;font-size: 12px&quot;&gt;Phone&lt;br style=&quot;font-size: 12px&quot;&gt;Postal&lt;br&gt;Twitter, etc.&lt;br&gt;&lt;/font&gt;&lt;br style=&quot;font-size: 12px&quot;&gt;&lt;/font&gt;" style="shape=note;whiteSpace=wrap;html=1;size=14;verticalAlign=top;align=left;spacingTop=-6;strokeColor=#CCCCCC;fillColor=none;fontSize=12;fontColor=#000000;" parent="Tlv2JKYanRDKV4xtsIzU-2" vertex="1">
          <mxGeometry x="310" y="290" width="96" height="59.95" as="geometry" />
        </mxCell>
        <mxCell id="Tlv2JKYanRDKV4xtsIzU-21" style="edgeStyle=orthogonalEdgeStyle;rounded=0;orthogonalLoop=1;jettySize=auto;html=1;entryX=0.5;entryY=1;entryDx=0;entryDy=0;startArrow=none;startFill=0;endArrow=none;endFill=0;strokeColor=#CCCCCC;fontSize=12;" parent="Tlv2JKYanRDKV4xtsIzU-2" source="Tlv2JKYanRDKV4xtsIzU-5" target="Tlv2JKYanRDKV4xtsIzU-13" edge="1">
          <mxGeometry relative="1" as="geometry" />
        </mxCell>
        <mxCell id="Tlv2JKYanRDKV4xtsIzU-9" value="Technical Domain (&quot;Core&quot;) Logical Module" style="rounded=1;whiteSpace=wrap;html=1;shadow=0;glass=0;comic=0;strokeColor=#000000;fillColor=none;fontSize=12;align=left;fontColor=#808080;recursiveResize=0;container=1;collapsible=0;dashed=1;verticalAlign=top;spacing=2;spacingTop=-5;absoluteArcSize=1;" parent="Tlv2JKYanRDKV4xtsIzU-1" vertex="1">
          <mxGeometry x="120" y="240" width="110" height="440" as="geometry" />
        </mxCell>
        <mxCell id="Tlv2JKYanRDKV4xtsIzU-18" value="Member Profile" style="swimlane;fontStyle=0;childLayout=stackLayout;horizontal=1;startSize=26;fillColor=none;horizontalStack=0;resizeParent=1;resizeParentMax=0;resizeLast=0;collapsible=0;marginBottom=0;strokeColor=#d6b656;fontSize=12;align=center;fontFamily=Helvetica;fontColor=#000000;strokeWidth=3;html=1;" parent="Tlv2JKYanRDKV4xtsIzU-9" vertex="1">
          <mxGeometry x="10" y="55" width="90" height="40" as="geometry" />
        </mxCell>
        <mxCell id="Tlv2JKYanRDKV4xtsIzU-90" value="&lt;p style=&quot;line-height: 90%&quot;&gt;&lt;font style=&quot;font-size: 10px&quot;&gt;&amp;lt;&amp;lt;interface&amp;gt;&amp;gt;&lt;/font&gt;&lt;br&gt;IHasId&lt;/p&gt;" style="swimlane;fontStyle=0;childLayout=stackLayout;horizontal=1;startSize=26;fillColor=none;horizontalStack=0;resizeParent=1;resizeParentMax=0;resizeLast=0;collapsible=1;marginBottom=0;strokeColor=#d6b656;fontSize=12;align=center;fontFamily=Helvetica;fontColor=#000000;strokeWidth=3;html=1;" parent="Tlv2JKYanRDKV4xtsIzU-9" vertex="1">
          <mxGeometry x="10" y="110" width="90" height="46" as="geometry" />
        </mxCell>
        <mxCell id="Tlv2JKYanRDKV4xtsIzU-91" value="+ Guid: Id" style="text;html=1;align=left;verticalAlign=middle;resizable=0;points=[];autosize=1;fontSize=10;" parent="Tlv2JKYanRDKV4xtsIzU-90" vertex="1">
          <mxGeometry y="26" width="90" height="20" as="geometry" />
        </mxCell>
        <mxCell id="Tlv2JKYanRDKV4xtsIzU-81" value="&lt;p style=&quot;line-height: 90%&quot;&gt;&lt;font style=&quot;font-size: 10px&quot;&gt;&amp;lt;&amp;lt;interface&amp;gt;&amp;gt;&lt;/font&gt;&lt;br&gt;IHasTenancy&lt;/p&gt;" style="swimlane;fontStyle=0;childLayout=stackLayout;horizontal=1;startSize=26;fillColor=none;horizontalStack=0;resizeParent=1;resizeParentMax=0;resizeLast=0;collapsible=1;marginBottom=0;strokeColor=#d6b656;fontSize=12;align=center;fontFamily=Helvetica;fontColor=#000000;strokeWidth=3;html=1;" parent="Tlv2JKYanRDKV4xtsIzU-9" vertex="1">
          <mxGeometry x="10" y="170" width="90" height="46" as="geometry" />
        </mxCell>
        <mxCell id="Tlv2JKYanRDKV4xtsIzU-82" value="+ TenantId" style="text;html=1;align=left;verticalAlign=middle;resizable=0;points=[];autosize=1;fontSize=10;" parent="Tlv2JKYanRDKV4xtsIzU-81" vertex="1">
          <mxGeometry y="26" width="90" height="20" as="geometry" />
        </mxCell>
        <mxCell id="Tlv2JKYanRDKV4xtsIzU-19" value="0..1" style="fontSize=12;html=1;endArrow=open;endFill=0;exitX=0;exitY=0.5;exitDx=0;exitDy=0;entryX=1;entryY=0.5;entryDx=0;entryDy=0;" parent="Tlv2JKYanRDKV4xtsIzU-1" source="Tlv2JKYanRDKV4xtsIzU-10" target="Tlv2JKYanRDKV4xtsIzU-18" edge="1">
          <mxGeometry width="100" height="100" relative="1" as="geometry">
            <mxPoint x="270" y="340" as="sourcePoint" />
            <mxPoint x="170" y="430" as="targetPoint" />
          </mxGeometry>
        </mxCell>
        <mxCell id="Tlv2JKYanRDKV4xtsIzU-22" value="Context/Legend" parent="Tlv2JKYanRDKV4xtsIzU-0" />
        <mxCell id="Tlv2JKYanRDKV4xtsIzU-23" value="" style="rounded=0;whiteSpace=wrap;html=1;fontSize=10;align=left;container=1;collapsible=0;fontColor=#B3B3B3;strokeColor=#B3B3B3;" parent="Tlv2JKYanRDKV4xtsIzU-22" vertex="1">
          <mxGeometry x="440" y="180" width="240" height="50" as="geometry" />
        </mxCell>
        <mxCell id="Tlv2JKYanRDKV4xtsIzU-24" value="" style="whiteSpace=wrap;html=1;aspect=fixed;fillColor=none;strokeColor=#82b366;fontSize=10;align=left;fontStyle=2;strokeWidth=2;" parent="Tlv2JKYanRDKV4xtsIzU-23" vertex="1">
          <mxGeometry x="13.294460641399398" y="16.666666666666668" width="8.333333333333334" height="8.333333333333334" as="geometry" />
        </mxCell>
        <mxCell id="Tlv2JKYanRDKV4xtsIzU-25" value="" style="whiteSpace=wrap;html=1;aspect=fixed;fillColor=none;strokeColor=#d6b656;fontSize=10;align=left;fontStyle=2;strokeWidth=2;" parent="Tlv2JKYanRDKV4xtsIzU-23" vertex="1">
          <mxGeometry x="13.294460641399398" y="28" width="8.333333333333334" height="8.333333333333334" as="geometry" />
        </mxCell>
        <mxCell id="Tlv2JKYanRDKV4xtsIzU-26" value="" style="whiteSpace=wrap;html=1;aspect=fixed;fillColor=none;strokeColor=#6c8ebf;fontSize=10;align=left;fontStyle=2;strokeWidth=2;" parent="Tlv2JKYanRDKV4xtsIzU-23" vertex="1">
          <mxGeometry x="13.294460641399398" y="39.333333333333336" width="8.333333333333334" height="8.333333333333334" as="geometry" />
        </mxCell>
        <mxCell id="Tlv2JKYanRDKV4xtsIzU-27" value="Internal, System (underlying optional Tenants)&amp;nbsp;" style="text;html=1;strokeColor=none;fillColor=none;align=left;verticalAlign=middle;whiteSpace=wrap;rounded=0;fontSize=10;fontStyle=2;fontColor=#B3B3B3;" parent="Tlv2JKYanRDKV4xtsIzU-23" vertex="1">
          <mxGeometry x="26.5945189504373" y="16.666666666666668" width="213.40548104956264" height="8.333333333333334" as="geometry" />
        </mxCell>
        <mxCell id="Tlv2JKYanRDKV4xtsIzU-28" value="Internal, (optionally) Tenanted" style="text;html=1;strokeColor=none;fillColor=none;align=left;verticalAlign=middle;whiteSpace=wrap;rounded=0;fontSize=10;fontStyle=2;fontColor=#B3B3B3;" parent="Tlv2JKYanRDKV4xtsIzU-23" vertex="1">
          <mxGeometry x="26.59" y="30" width="213.41" height="6.33" as="geometry" />
        </mxCell>
        <mxCell id="Tlv2JKYanRDKV4xtsIzU-29" value="External, Versioned Contracts/Msgs" style="text;html=1;strokeColor=none;fillColor=none;align=left;verticalAlign=middle;whiteSpace=wrap;rounded=0;fontSize=10;fontStyle=2;fontColor=#B3B3B3;" parent="Tlv2JKYanRDKV4xtsIzU-23" vertex="1">
          <mxGeometry x="26.5945189504373" y="39.333333333333336" width="213.40548104956264" height="8.333333333333334" as="geometry" />
        </mxCell>
        <mxCell id="Tlv2JKYanRDKV4xtsIzU-30" value="Legend" style="text;html=1;strokeColor=none;fillColor=none;align=center;verticalAlign=middle;whiteSpace=wrap;rounded=0;fontSize=10;fontStyle=5;fontColor=#B3B3B3;" parent="Tlv2JKYanRDKV4xtsIzU-23" vertex="1">
          <mxGeometry x="26.588921282798815" width="159.53352769679296" height="16.666666666666668" as="geometry" />
        </mxCell>
        <mxCell id="Tlv2JKYanRDKV4xtsIzU-31" value="Title/Description" parent="Tlv2JKYanRDKV4xtsIzU-0" />
        <mxCell id="Tlv2JKYanRDKV4xtsIzU-32" value="&lt;font style=&quot;font-size: 12px&quot;&gt;Diagram: Base System Logical Module - Development - Entities - Logical Module&amp;nbsp;&lt;/font&gt;Example" style="text;strokeColor=none;fillColor=none;html=1;fontSize=12;fontStyle=2;verticalAlign=middle;align=left;shadow=0;glass=0;comic=0;opacity=30;fontColor=#808080;" parent="Tlv2JKYanRDKV4xtsIzU-31" vertex="1">
          <mxGeometry x="120" y="700" width="520" height="20" as="geometry" />
        </mxCell>
        <mxCell id="Tlv2JKYanRDKV4xtsIzU-33" value="Title/Page" style="" parent="Tlv2JKYanRDKV4xtsIzU-0" />
        <mxCell id="Tlv2JKYanRDKV4xtsIzU-34" value="" style="group;fontSize=10;" parent="Tlv2JKYanRDKV4xtsIzU-33" connectable="0" vertex="1">
          <mxGeometry x="120" y="120" width="560" height="45" as="geometry" />
        </mxCell>
        <mxCell id="Tlv2JKYanRDKV4xtsIzU-35" value="&lt;font style=&quot;font-size: 12px&quot;&gt;Base Logical Module - Development - Classes - Entities - Logical Module Example&lt;/font&gt;" style="text;strokeColor=none;fillColor=none;html=1;fontSize=12;fontStyle=1;verticalAlign=middle;align=left;shadow=0;glass=0;comic=0;opacity=30;fontColor=#808080;" parent="Tlv2JKYanRDKV4xtsIzU-34" vertex="1">
          <mxGeometry width="560" height="40" as="geometry" />
        </mxCell>
        <mxCell id="Tlv2JKYanRDKV4xtsIzU-36" value="" style="line;strokeWidth=2;html=1;shadow=0;glass=0;comic=0;fillColor=none;fontSize=10;fontColor=#CCCCCC;labelBackgroundColor=none;strokeColor=#CCCCCC;" parent="Tlv2JKYanRDKV4xtsIzU-34" vertex="1">
          <mxGeometry y="35" width="560" height="10" as="geometry" />
        </mxCell>
        <mxCell id="Tlv2JKYanRDKV4xtsIzU-37" value="About" style="" parent="Tlv2JKYanRDKV4xtsIzU-0" />
        <UserObject label="" tooltip="ABOUT&#xa;&#xa;A key recommendation from Eric Evan&#39;s seminal work describing the Domain Driven Design approach to software development, was to keep Domains separate. &#xa;By Domain, he meant System/Technical (sort of underlying), Business (distinct Domain 1), Business (distinct Domain 2), etc.&#xa;&#xa;Hence why the Core Domain is used for technical System Domain problems, and one should use a second logical Module (ie, set of DDD Assemblies) to develop solutions for a Business specific Domain.&#xa;&#xa;&#xa;&#xa;The above is just a simple example of  Business Domain&#39;s Logical Module, reusing the underlying Technical Domain&#39;s Logical Module." id="Tlv2JKYanRDKV4xtsIzU-38">
          <mxCell style="shape=image;html=1;verticalAlign=top;verticalLabelPosition=bottom;labelBackgroundColor=#ffffff;imageAspect=0;aspect=fixed;image=https://cdn1.iconfinder.com/data/icons/hawcons/32/699014-icon-28-information-128.png;shadow=0;dashed=0;fontFamily=Helvetica;fontSize=12;fontColor=#000000;align=center;strokeColor=#000000;fillColor=#505050;dashPattern=1 1;" parent="Tlv2JKYanRDKV4xtsIzU-37" vertex="1">
            <mxGeometry x="660" y="500" width="20" height="20" as="geometry" />
          </mxCell>
        </UserObject>
      </root>
    </mxGraphModel>
  </diagram>
  <diagram name="Development/Classes/ORM Entities/Diagnostics" id="sv6ITv-gY2GcEZqAqd7L">
    <mxGraphModel dx="1447" dy="796" grid="1" gridSize="10" guides="1" tooltips="1" connect="1" arrows="1" fold="1" page="1" pageScale="1" pageWidth="827" pageHeight="1169" math="0" shadow="0">
      <root>
        <mxCell id="AIOt1rvTrf9RG9mH_F_l-0" />
        <mxCell id="AIOt1rvTrf9RG9mH_F_l-1" value="Diagram/ERD" style="" parent="AIOt1rvTrf9RG9mH_F_l-0" />
        <mxCell id="AIOt1rvTrf9RG9mH_F_l-2" value="0..1" style="edgeStyle=orthogonalEdgeStyle;rounded=1;orthogonalLoop=1;jettySize=auto;html=1;startArrow=none;startFill=0;endArrow=open;endFill=0;fontSize=12;fontColor=#F0F0F0;entryX=1;entryY=0.25;entryDx=0;entryDy=0;exitX=0;exitY=0.25;exitDx=0;exitDy=0;dashed=1;dashPattern=1 1;strokeColor=#0066CC;" parent="AIOt1rvTrf9RG9mH_F_l-1" source="AIOt1rvTrf9RG9mH_F_l-4" target="AIOt1rvTrf9RG9mH_F_l-9" edge="1">
          <mxGeometry relative="1" as="geometry" />
        </mxCell>
        <mxCell id="AIOt1rvTrf9RG9mH_F_l-3" value="System Diagnostics" style="rounded=1;whiteSpace=wrap;html=1;strokeColor=#999999;strokeWidth=1;fillColor=none;dashed=1;verticalAlign=top;align=left;spacingLeft=16;spacing=0;spacingTop=-5;fontColor=#808080;arcSize=16;absoluteArcSize=1;collapsible=0;container=1;recursiveResize=0;fontSize=12;" parent="AIOt1rvTrf9RG9mH_F_l-1" vertex="1">
          <mxGeometry x="360" y="240" width="100" height="100" as="geometry">
            <mxRectangle x="30" y="340" width="90" height="10" as="alternateBounds" />
          </mxGeometry>
        </mxCell>
        <mxCell id="AIOt1rvTrf9RG9mH_F_l-4" value="[System]&lt;br style=&quot;font-size: 12px;&quot;&gt;Diagnostics" style="swimlane;fontStyle=0;childLayout=stackLayout;horizontal=1;startSize=26;fillColor=none;horizontalStack=0;resizeParent=1;resizeParentMax=0;resizeLast=0;collapsible=0;marginBottom=0;strokeColor=#82b366;fontSize=12;align=center;fontFamily=Helvetica;fontColor=#000000;strokeWidth=3;html=1;" parent="AIOt1rvTrf9RG9mH_F_l-3" vertex="1">
          <mxGeometry x="10" y="40" width="80" height="50" as="geometry" />
        </mxCell>
        <mxCell id="AIOt1rvTrf9RG9mH_F_l-5" value="System Error" style="rounded=1;whiteSpace=wrap;html=1;strokeColor=#999999;strokeWidth=1;fillColor=none;dashed=1;verticalAlign=top;align=left;spacingLeft=16;spacing=0;spacingTop=-5;fontColor=#808080;arcSize=16;absoluteArcSize=1;collapsible=0;container=1;recursiveResize=0;fontSize=12;" parent="AIOt1rvTrf9RG9mH_F_l-1" vertex="1">
          <mxGeometry x="360" y="350" width="100" height="110" as="geometry">
            <mxRectangle x="30" y="340" width="90" height="10" as="alternateBounds" />
          </mxGeometry>
        </mxCell>
        <mxCell id="AIOt1rvTrf9RG9mH_F_l-6" value="[System]&lt;br style=&quot;font-size: 12px;&quot;&gt;ErrorLog" style="swimlane;fontStyle=0;childLayout=stackLayout;horizontal=1;startSize=26;fillColor=none;horizontalStack=0;resizeParent=1;resizeParentMax=0;resizeLast=0;collapsible=0;marginBottom=0;strokeColor=#82b366;fontSize=12;align=center;fontFamily=Helvetica;fontColor=#000000;strokeWidth=3;html=1;" parent="AIOt1rvTrf9RG9mH_F_l-5" vertex="1">
          <mxGeometry x="10" y="30" width="80" height="70" as="geometry" />
        </mxCell>
        <mxCell id="AIOt1rvTrf9RG9mH_F_l-7" value="Session" style="rounded=1;whiteSpace=wrap;html=1;strokeColor=#999999;strokeWidth=1;fillColor=none;dashed=1;verticalAlign=top;align=left;spacingLeft=16;spacing=0;spacingTop=-5;fontColor=#808080;arcSize=16;absoluteArcSize=1;collapsible=0;container=1;recursiveResize=0;fontSize=12;" parent="AIOt1rvTrf9RG9mH_F_l-1" vertex="1">
          <mxGeometry x="120" y="240" width="120" height="220" as="geometry">
            <mxRectangle x="30" y="340" width="90" height="10" as="alternateBounds" />
          </mxGeometry>
        </mxCell>
        <mxCell id="AIOt1rvTrf9RG9mH_F_l-8" style="edgeStyle=none;rounded=1;orthogonalLoop=1;jettySize=auto;html=1;entryX=0.5;entryY=0;entryDx=0;entryDy=0;startArrow=none;startFill=0;endArrow=ERzeroToMany;endFill=1;strokeColor=#B3B3B3;strokeWidth=1;fontFamily=Courier New;fontSize=12;fontColor=#B3B3B3;" parent="AIOt1rvTrf9RG9mH_F_l-7" source="AIOt1rvTrf9RG9mH_F_l-9" target="AIOt1rvTrf9RG9mH_F_l-10" edge="1">
          <mxGeometry relative="1" as="geometry" />
        </mxCell>
        <mxCell id="AIOt1rvTrf9RG9mH_F_l-9" value="[System]&lt;br style=&quot;font-size: 12px;&quot;&gt;Session" style="swimlane;fontStyle=0;childLayout=stackLayout;horizontal=1;startSize=26;fillColor=none;horizontalStack=0;resizeParent=1;resizeParentMax=0;resizeLast=0;collapsible=0;marginBottom=0;strokeColor=#666666;fontSize=12;align=center;fontFamily=Helvetica;fontColor=#000000;strokeWidth=3;html=1;" parent="AIOt1rvTrf9RG9mH_F_l-7" vertex="1">
          <mxGeometry x="20" y="40" width="80" height="60" as="geometry" />
        </mxCell>
        <mxCell id="AIOt1rvTrf9RG9mH_F_l-10" value="&lt;p style=&quot;line-height: 100%; font-size: 12px;&quot;&gt;[System]&lt;br style=&quot;font-size: 12px&quot;&gt;Session&lt;br style=&quot;font-size: 12px;&quot;&gt;Operation&lt;/p&gt;" style="swimlane;fontStyle=0;childLayout=stackLayout;horizontal=1;startSize=40;fillColor=none;horizontalStack=0;resizeParent=1;resizeParentMax=0;resizeLast=0;collapsible=0;marginBottom=0;strokeColor=#666666;fontSize=12;align=center;fontFamily=Helvetica;fontColor=#000000;strokeWidth=3;html=1;" parent="AIOt1rvTrf9RG9mH_F_l-7" vertex="1">
          <mxGeometry x="20" y="130" width="80" height="80" as="geometry" />
        </mxCell>
        <mxCell id="AIOt1rvTrf9RG9mH_F_l-11" value="0..1" style="edgeStyle=orthogonalEdgeStyle;rounded=1;orthogonalLoop=1;jettySize=auto;html=1;startArrow=none;startFill=0;endArrow=open;endFill=0;fontSize=12;fontColor=#F0F0F0;entryX=1;entryY=0.25;entryDx=0;entryDy=0;exitX=0;exitY=0.5;exitDx=0;exitDy=0;dashed=1;dashPattern=1 1;strokeColor=#0066CC;" parent="AIOt1rvTrf9RG9mH_F_l-1" source="AIOt1rvTrf9RG9mH_F_l-4" target="AIOt1rvTrf9RG9mH_F_l-10" edge="1">
          <mxGeometry x="-0.3884" relative="1" as="geometry">
            <mxPoint x="180" y="360" as="sourcePoint" />
            <mxPoint x="180" y="310" as="targetPoint" />
            <Array as="points">
              <mxPoint x="250" y="305" />
              <mxPoint x="250" y="380" />
              <mxPoint x="220" y="380" />
            </Array>
            <mxPoint as="offset" />
          </mxGeometry>
        </mxCell>
        <mxCell id="AIOt1rvTrf9RG9mH_F_l-12" value="0..1" style="edgeStyle=orthogonalEdgeStyle;rounded=1;orthogonalLoop=1;jettySize=auto;html=1;startArrow=none;startFill=0;endArrow=open;endFill=0;fontSize=12;fontColor=#F0F0F0;entryX=1;entryY=0.75;entryDx=0;entryDy=0;exitX=0;exitY=0.25;exitDx=0;exitDy=0;dashed=1;dashPattern=1 1;strokeColor=#0066CC;" parent="AIOt1rvTrf9RG9mH_F_l-1" source="AIOt1rvTrf9RG9mH_F_l-6" target="AIOt1rvTrf9RG9mH_F_l-9" edge="1">
          <mxGeometry relative="1" as="geometry">
            <mxPoint x="180.20689655172418" y="360.2758620689656" as="sourcePoint" />
            <mxPoint x="289.8620689655173" y="309.9310344827586" as="targetPoint" />
            <Array as="points">
              <mxPoint x="370" y="395" />
              <mxPoint x="290" y="395" />
              <mxPoint x="290" y="325" />
            </Array>
          </mxGeometry>
        </mxCell>
        <mxCell id="AIOt1rvTrf9RG9mH_F_l-13" value="0..1" style="edgeStyle=orthogonalEdgeStyle;rounded=1;orthogonalLoop=1;jettySize=auto;html=1;startArrow=none;startFill=0;endArrow=open;endFill=0;fontSize=12;fontColor=#F0F0F0;entryX=1;entryY=0.5;entryDx=0;entryDy=0;exitX=0;exitY=0.5;exitDx=0;exitDy=0;dashed=1;dashPattern=1 1;strokeColor=#0066CC;" parent="AIOt1rvTrf9RG9mH_F_l-1" source="AIOt1rvTrf9RG9mH_F_l-6" target="AIOt1rvTrf9RG9mH_F_l-10" edge="1">
          <mxGeometry relative="1" as="geometry">
            <mxPoint x="289.8620689655173" y="360.2758620689656" as="sourcePoint" />
            <mxPoint x="180.20689655172418" y="309.9310344827586" as="targetPoint" />
          </mxGeometry>
        </mxCell>
        <mxCell id="AIOt1rvTrf9RG9mH_F_l-14" value="System User" style="rounded=1;whiteSpace=wrap;html=1;strokeColor=#999999;strokeWidth=1;fillColor=none;dashed=1;verticalAlign=top;align=left;spacingLeft=16;spacing=0;spacingTop=-5;fontColor=#808080;arcSize=16;absoluteArcSize=1;collapsible=0;container=1;recursiveResize=0;fontSize=12;" parent="AIOt1rvTrf9RG9mH_F_l-1" vertex="1">
          <mxGeometry x="520" y="240" width="110" height="100" as="geometry">
            <mxRectangle x="30" y="340" width="90" height="10" as="alternateBounds" />
          </mxGeometry>
        </mxCell>
        <mxCell id="AIOt1rvTrf9RG9mH_F_l-15" value="[System]&lt;br style=&quot;font-size: 12px;&quot;&gt;Principal" style="swimlane;fontStyle=0;childLayout=stackLayout;horizontal=1;startSize=26;fillColor=none;horizontalStack=0;resizeParent=1;resizeParentMax=0;resizeLast=0;collapsible=0;marginBottom=0;strokeColor=#666666;fontSize=12;align=center;fontFamily=Helvetica;fontColor=#000000;strokeWidth=3;html=1;" parent="AIOt1rvTrf9RG9mH_F_l-14" vertex="1">
          <mxGeometry x="20" y="40" width="80" height="50" as="geometry" />
        </mxCell>
        <mxCell id="AIOt1rvTrf9RG9mH_F_l-16" value="0..1" style="edgeStyle=elbowEdgeStyle;rounded=1;orthogonalLoop=1;jettySize=auto;html=1;startArrow=none;startFill=0;endArrow=open;endFill=0;fontSize=12;fontColor=#F0F0F0;entryX=0;entryY=0.25;entryDx=0;entryDy=0;exitX=1;exitY=0.5;exitDx=0;exitDy=0;strokeColor=#0066CC;dashed=1;dashPattern=1 1;labelBackgroundColor=none;" parent="AIOt1rvTrf9RG9mH_F_l-1" source="AIOt1rvTrf9RG9mH_F_l-4" target="AIOt1rvTrf9RG9mH_F_l-21" edge="1">
          <mxGeometry relative="1" as="geometry">
            <mxPoint x="500.2068965517242" y="270.2758620689656" as="sourcePoint" />
            <mxPoint x="589.8620689655173" y="199.9310344827586" as="targetPoint" />
          </mxGeometry>
        </mxCell>
        <mxCell id="AIOt1rvTrf9RG9mH_F_l-17" value="0..1" style="edgeStyle=orthogonalEdgeStyle;rounded=1;orthogonalLoop=1;jettySize=auto;html=1;startArrow=none;startFill=0;endArrow=open;endFill=0;fontSize=12;fontColor=#F0F0F0;exitX=1;exitY=0.5;exitDx=0;exitDy=0;entryX=0;entryY=0.5;entryDx=0;entryDy=0;labelBackgroundColor=none;strokeColor=#0066CC;" parent="AIOt1rvTrf9RG9mH_F_l-1" source="AIOt1rvTrf9RG9mH_F_l-6" target="AIOt1rvTrf9RG9mH_F_l-21" edge="1">
          <mxGeometry relative="1" as="geometry">
            <mxPoint x="500.2068965517242" y="310.2758620689656" as="sourcePoint" />
            <mxPoint x="589.8620689655173" y="359.9310344827586" as="targetPoint" />
            <Array as="points">
              <mxPoint x="510" y="415" />
              <mxPoint x="510" y="415" />
            </Array>
          </mxGeometry>
        </mxCell>
        <mxCell id="AIOt1rvTrf9RG9mH_F_l-18" value="0..1" style="edgeStyle=elbowEdgeStyle;rounded=1;orthogonalLoop=1;jettySize=auto;html=1;startArrow=none;startFill=0;endArrow=open;endFill=0;fontSize=12;fontColor=#F0F0F0;entryX=0;entryY=0.75;entryDx=0;entryDy=0;exitX=1;exitY=0.25;exitDx=0;exitDy=0;strokeColor=#0066CC;dashed=1;dashPattern=1 1;labelBackgroundColor=none;" parent="AIOt1rvTrf9RG9mH_F_l-1" source="AIOt1rvTrf9RG9mH_F_l-6" target="AIOt1rvTrf9RG9mH_F_l-15" edge="1">
          <mxGeometry relative="1" as="geometry">
            <mxPoint x="500.2068965517242" y="310.2758620689656" as="sourcePoint" />
            <mxPoint x="589.8620689655173" y="379.9310344827586" as="targetPoint" />
            <Array as="points">
              <mxPoint x="480" y="360" />
            </Array>
          </mxGeometry>
        </mxCell>
        <mxCell id="AIOt1rvTrf9RG9mH_F_l-19" value="0..1" style="edgeStyle=orthogonalEdgeStyle;rounded=1;orthogonalLoop=1;jettySize=auto;html=1;startArrow=none;startFill=0;endArrow=open;endFill=0;fontSize=12;fontColor=#F0F0F0;exitX=1;exitY=0.25;exitDx=0;exitDy=0;entryX=0;entryY=0.25;entryDx=0;entryDy=0;strokeColor=#0066CC;dashed=1;dashPattern=1 1;labelBackgroundColor=none;" parent="AIOt1rvTrf9RG9mH_F_l-1" source="AIOt1rvTrf9RG9mH_F_l-4" target="AIOt1rvTrf9RG9mH_F_l-15" edge="1">
          <mxGeometry relative="1" as="geometry">
            <mxPoint x="470" y="320" as="sourcePoint" />
            <mxPoint x="530" y="290" as="targetPoint" />
            <Array as="points" />
          </mxGeometry>
        </mxCell>
        <mxCell id="AIOt1rvTrf9RG9mH_F_l-20" value="Tenancy Member" style="rounded=1;whiteSpace=wrap;html=1;strokeColor=#999999;strokeWidth=1;fillColor=none;dashed=1;verticalAlign=top;align=left;spacingLeft=16;spacing=0;spacingTop=-5;fontColor=#808080;arcSize=16;absoluteArcSize=1;collapsible=0;container=1;recursiveResize=0;fontSize=12;" parent="AIOt1rvTrf9RG9mH_F_l-1" vertex="1">
          <mxGeometry x="520" y="360" width="110" height="100" as="geometry">
            <mxRectangle x="30" y="340" width="90" height="10" as="alternateBounds" />
          </mxGeometry>
        </mxCell>
        <mxCell id="AIOt1rvTrf9RG9mH_F_l-21" value="[T]&lt;br style=&quot;font-size: 12px&quot;&gt;Member" style="swimlane;fontStyle=0;childLayout=stackLayout;horizontal=1;startSize=26;fillColor=none;horizontalStack=0;resizeParent=1;resizeParentMax=0;resizeLast=0;collapsible=0;marginBottom=0;strokeColor=#666666;fontSize=12;align=center;fontFamily=Helvetica;fontColor=#000000;strokeWidth=3;html=1;" parent="AIOt1rvTrf9RG9mH_F_l-20" vertex="1">
          <mxGeometry x="15" y="20" width="80" height="70" as="geometry" />
        </mxCell>
        <mxCell id="AIOt1rvTrf9RG9mH_F_l-22" value="Context/Legend" parent="AIOt1rvTrf9RG9mH_F_l-0" />
        <mxCell id="AIOt1rvTrf9RG9mH_F_l-23" value="" style="rounded=0;whiteSpace=wrap;html=1;fontSize=10;align=left;container=1;collapsible=0;fontColor=#B3B3B3;strokeColor=#B3B3B3;" parent="AIOt1rvTrf9RG9mH_F_l-22" vertex="1">
          <mxGeometry x="440" y="180" width="240" height="50" as="geometry" />
        </mxCell>
        <mxCell id="AIOt1rvTrf9RG9mH_F_l-24" value="" style="whiteSpace=wrap;html=1;aspect=fixed;fillColor=none;strokeColor=#82b366;fontSize=10;align=left;fontStyle=2;strokeWidth=2;" parent="AIOt1rvTrf9RG9mH_F_l-23" vertex="1">
          <mxGeometry x="13.294460641399398" y="16.666666666666668" width="8.333333333333334" height="8.333333333333334" as="geometry" />
        </mxCell>
        <mxCell id="AIOt1rvTrf9RG9mH_F_l-25" value="" style="whiteSpace=wrap;html=1;aspect=fixed;fillColor=none;strokeColor=#d6b656;fontSize=10;align=left;fontStyle=2;strokeWidth=2;" parent="AIOt1rvTrf9RG9mH_F_l-23" vertex="1">
          <mxGeometry x="13.294460641399398" y="28" width="8.333333333333334" height="8.333333333333334" as="geometry" />
        </mxCell>
        <mxCell id="AIOt1rvTrf9RG9mH_F_l-26" value="" style="whiteSpace=wrap;html=1;aspect=fixed;fillColor=none;strokeColor=#6c8ebf;fontSize=10;align=left;fontStyle=2;strokeWidth=2;" parent="AIOt1rvTrf9RG9mH_F_l-23" vertex="1">
          <mxGeometry x="13.294460641399398" y="39.333333333333336" width="8.333333333333334" height="8.333333333333334" as="geometry" />
        </mxCell>
        <mxCell id="AIOt1rvTrf9RG9mH_F_l-27" value="Internal, System (underlying optional Tenants)&amp;nbsp;" style="text;html=1;strokeColor=none;fillColor=none;align=left;verticalAlign=middle;whiteSpace=wrap;rounded=0;fontSize=10;fontStyle=2;fontColor=#B3B3B3;" parent="AIOt1rvTrf9RG9mH_F_l-23" vertex="1">
          <mxGeometry x="26.5945189504373" y="16.666666666666668" width="213.40548104956264" height="8.333333333333334" as="geometry" />
        </mxCell>
        <mxCell id="AIOt1rvTrf9RG9mH_F_l-28" value="Internal, (optionally) Tenanted" style="text;html=1;strokeColor=none;fillColor=none;align=left;verticalAlign=middle;whiteSpace=wrap;rounded=0;fontSize=10;fontStyle=2;fontColor=#B3B3B3;" parent="AIOt1rvTrf9RG9mH_F_l-23" vertex="1">
          <mxGeometry x="26.59" y="30" width="213.41" height="6.33" as="geometry" />
        </mxCell>
        <mxCell id="AIOt1rvTrf9RG9mH_F_l-29" value="External, Versioned Contracts/Msgs" style="text;html=1;strokeColor=none;fillColor=none;align=left;verticalAlign=middle;whiteSpace=wrap;rounded=0;fontSize=10;fontStyle=2;fontColor=#B3B3B3;" parent="AIOt1rvTrf9RG9mH_F_l-23" vertex="1">
          <mxGeometry x="26.5945189504373" y="39.333333333333336" width="213.40548104956264" height="8.333333333333334" as="geometry" />
        </mxCell>
        <mxCell id="AIOt1rvTrf9RG9mH_F_l-30" value="Legend" style="text;html=1;strokeColor=none;fillColor=none;align=center;verticalAlign=middle;whiteSpace=wrap;rounded=0;fontSize=10;fontStyle=5;fontColor=#B3B3B3;" parent="AIOt1rvTrf9RG9mH_F_l-23" vertex="1">
          <mxGeometry x="26.588921282798815" width="159.53352769679296" height="16.666666666666668" as="geometry" />
        </mxCell>
        <mxCell id="AIOt1rvTrf9RG9mH_F_l-31" value="Title/Diagram" parent="AIOt1rvTrf9RG9mH_F_l-0" />
        <mxCell id="AIOt1rvTrf9RG9mH_F_l-32" value="&lt;font style=&quot;font-size: 12px ; font-weight: normal&quot;&gt;&lt;i style=&quot;font-size: 12px&quot;&gt;Diagram: Base System Logical Module - Development - ORM Entities - Diagnostics &amp;amp; Error Logs&lt;/i&gt;&lt;/font&gt;" style="text;strokeColor=none;fillColor=none;html=1;fontSize=12;fontStyle=1;verticalAlign=middle;align=left;shadow=0;glass=0;comic=0;opacity=30;fontColor=#808080;" parent="AIOt1rvTrf9RG9mH_F_l-31" vertex="1">
          <mxGeometry x="120" y="480" width="520" height="20" as="geometry" />
        </mxCell>
        <mxCell id="AIOt1rvTrf9RG9mH_F_l-33" value="Title/Page" style="" parent="AIOt1rvTrf9RG9mH_F_l-0" visible="0" />
        <mxCell id="AIOt1rvTrf9RG9mH_F_l-34" value="" style="group;fontSize=10;movable=0;resizable=0;rotatable=0;deletable=0;editable=0;connectable=0;" parent="AIOt1rvTrf9RG9mH_F_l-33" vertex="1" connectable="0">
          <mxGeometry x="120" y="120" width="560" height="45" as="geometry" />
        </mxCell>
        <mxCell id="AIOt1rvTrf9RG9mH_F_l-35" value="&lt;font style=&quot;font-size: 12px&quot;&gt;Base Logical Module - Information -&amp;nbsp;Diagnostics &amp;amp; Error Logs&lt;/font&gt;" style="text;strokeColor=none;fillColor=none;html=1;fontSize=12;fontStyle=1;verticalAlign=middle;align=left;shadow=0;glass=0;comic=0;opacity=30;fontColor=#808080;" parent="AIOt1rvTrf9RG9mH_F_l-34" vertex="1">
          <mxGeometry width="560" height="40" as="geometry" />
        </mxCell>
        <mxCell id="AIOt1rvTrf9RG9mH_F_l-36" value="" style="line;strokeWidth=2;html=1;shadow=0;glass=0;comic=0;fillColor=none;fontSize=10;fontColor=#CCCCCC;labelBackgroundColor=none;strokeColor=#CCCCCC;" parent="AIOt1rvTrf9RG9mH_F_l-34" vertex="1">
          <mxGeometry y="35" width="560" height="10" as="geometry" />
        </mxCell>
        <mxCell id="AIOt1rvTrf9RG9mH_F_l-37" value="About" style="" parent="AIOt1rvTrf9RG9mH_F_l-0" />
        <UserObject label="" tooltip="ABOUT&#xa;&#xa;Before persisting messages, diagnostic Trace Messages are cleansed of PII and Secrets.&#xa;&#xa;&#xa;&#xa;When the information is available, the Diagnostic entry must record the System Principal Identifier, Organisation Identifier and Tenant Member identifier.&#xa;&#xa;&#xa;&#xa;The entry should then be written to a Queue.&#xa;&#xa;&#xa;&#xa;The Queue is then processed asynchronously, and records created in a relational or document database (can be influenced by pricing and backup needs).&#xa;&#xa;&#xa;&#xa;Note that a competent logging solution (NLog?) can also write the message to secondary logging solutions, as appropriate for local maintenance by System Support Specialists and/or Vendors.&#xa;&#xa;&#xa;&#xa;&#xa;&#xa;When Diagnostics Trace Messages are marked as Errors, they can also written to an Error Database for later retrieval and display to Authorised System Users (Support Specialists).&#xa;&#xa;It is good practice to have another process that copies System Diagnostic Messages to an enterprise wide Security Information and Event Management (SIEM)system managed by the organisation&#39;s Security Specialists.&#xa;&#xa;&#xa;&#xa;Avoid flushing per message as a 50-70ms latency is common per message (limiting to 20 messages, as opposed to writing everything at the end, all in one single message across the wire).&#xa;&#xa;&#xa;&#xa; &#xa;&#xa;" id="AIOt1rvTrf9RG9mH_F_l-38">
          <mxCell style="shape=image;html=1;verticalAlign=top;verticalLabelPosition=bottom;labelBackgroundColor=#ffffff;imageAspect=0;aspect=fixed;image=https://cdn1.iconfinder.com/data/icons/hawcons/32/699014-icon-28-information-128.png;shadow=0;dashed=0;fontFamily=Helvetica;fontSize=12;fontColor=#000000;align=center;strokeColor=#000000;fillColor=#505050;dashPattern=1 1;" parent="AIOt1rvTrf9RG9mH_F_l-37" vertex="1">
            <mxGeometry x="660" y="480" width="20" height="20" as="geometry" />
          </mxCell>
        </UserObject>
      </root>
    </mxGraphModel>
  </diagram>
  <diagram id="KmKFKCr3zCgB3UtH_fB9" name="Development/Classes/ORM Entities/System Status">
    <mxGraphModel dx="1130" dy="406" grid="1" gridSize="10" guides="1" tooltips="1" connect="1" arrows="1" fold="1" page="1" pageScale="1" pageWidth="850" pageHeight="1100" math="0" shadow="0">
      <root>
        <mxCell id="jowXqJ20TuIoa2uGYzdO-0" />
        <mxCell id="jowXqJ20TuIoa2uGYzdO-1" parent="jowXqJ20TuIoa2uGYzdO-0" />
        <mxCell id="jowXqJ20TuIoa2uGYzdO-5" value="" style="rounded=0;whiteSpace=wrap;html=1;fontSize=10;align=left;container=1;collapsible=0;fontColor=#B3B3B3;strokeColor=#B3B3B3;" parent="jowXqJ20TuIoa2uGYzdO-1" vertex="1">
          <mxGeometry x="440" y="180" width="240" height="50" as="geometry" />
        </mxCell>
        <mxCell id="jowXqJ20TuIoa2uGYzdO-6" value="" style="whiteSpace=wrap;html=1;aspect=fixed;fillColor=none;strokeColor=#82b366;fontSize=10;align=left;fontStyle=2;strokeWidth=2;" parent="jowXqJ20TuIoa2uGYzdO-5" vertex="1">
          <mxGeometry x="13.294460641399398" y="16.666666666666668" width="8.333333333333334" height="8.333333333333334" as="geometry" />
        </mxCell>
        <mxCell id="jowXqJ20TuIoa2uGYzdO-7" value="" style="whiteSpace=wrap;html=1;aspect=fixed;fillColor=none;strokeColor=#d6b656;fontSize=10;align=left;fontStyle=2;strokeWidth=2;" parent="jowXqJ20TuIoa2uGYzdO-5" vertex="1">
          <mxGeometry x="13.294460641399398" y="28" width="8.333333333333334" height="8.333333333333334" as="geometry" />
        </mxCell>
        <mxCell id="jowXqJ20TuIoa2uGYzdO-8" value="" style="whiteSpace=wrap;html=1;aspect=fixed;fillColor=none;strokeColor=#6c8ebf;fontSize=10;align=left;fontStyle=2;strokeWidth=2;" parent="jowXqJ20TuIoa2uGYzdO-5" vertex="1">
          <mxGeometry x="13.294460641399398" y="39.333333333333336" width="8.333333333333334" height="8.333333333333334" as="geometry" />
        </mxCell>
        <mxCell id="jowXqJ20TuIoa2uGYzdO-9" value="Internal, System (underlying optional Tenants)&amp;nbsp;" style="text;html=1;strokeColor=none;fillColor=none;align=left;verticalAlign=middle;whiteSpace=wrap;rounded=0;fontSize=10;fontStyle=2;fontColor=#B3B3B3;" parent="jowXqJ20TuIoa2uGYzdO-5" vertex="1">
          <mxGeometry x="26.5945189504373" y="16.666666666666668" width="213.40548104956264" height="8.333333333333334" as="geometry" />
        </mxCell>
        <mxCell id="jowXqJ20TuIoa2uGYzdO-10" value="Internal, (optionally) Tenanted" style="text;html=1;strokeColor=none;fillColor=none;align=left;verticalAlign=middle;whiteSpace=wrap;rounded=0;fontSize=10;fontStyle=2;fontColor=#B3B3B3;" parent="jowXqJ20TuIoa2uGYzdO-5" vertex="1">
          <mxGeometry x="26.59" y="30" width="213.41" height="6.33" as="geometry" />
        </mxCell>
        <mxCell id="jowXqJ20TuIoa2uGYzdO-11" value="External, Versioned Contracts/Msgs" style="text;html=1;strokeColor=none;fillColor=none;align=left;verticalAlign=middle;whiteSpace=wrap;rounded=0;fontSize=10;fontStyle=2;fontColor=#B3B3B3;" parent="jowXqJ20TuIoa2uGYzdO-5" vertex="1">
          <mxGeometry x="26.5945189504373" y="39.333333333333336" width="213.40548104956264" height="8.333333333333334" as="geometry" />
        </mxCell>
        <mxCell id="jowXqJ20TuIoa2uGYzdO-12" value="Legend" style="text;html=1;strokeColor=none;fillColor=none;align=center;verticalAlign=middle;whiteSpace=wrap;rounded=0;fontSize=10;fontStyle=5;fontColor=#B3B3B3;" parent="jowXqJ20TuIoa2uGYzdO-5" vertex="1">
          <mxGeometry x="26.588921282798815" width="159.53352769679296" height="16.666666666666668" as="geometry" />
        </mxCell>
        <mxCell id="jowXqJ20TuIoa2uGYzdO-13" value="&lt;font style=&quot;font-size: 12px ; font-weight: normal&quot;&gt;&lt;i&gt;Diagram: Base System Logical Module - Development&amp;nbsp; - Classes - ORM Entities - Status Information Elements&lt;/i&gt;&lt;/font&gt;" style="text;strokeColor=none;fillColor=none;html=1;fontSize=24;fontStyle=1;verticalAlign=middle;align=left;shadow=0;glass=0;comic=0;opacity=30;fontColor=#808080;" parent="jowXqJ20TuIoa2uGYzdO-1" vertex="1">
          <mxGeometry x="120" y="380" width="520" height="20" as="geometry" />
        </mxCell>
        <mxCell id="jowXqJ20TuIoa2uGYzdO-14" value="" style="group;fontSize=10;" parent="jowXqJ20TuIoa2uGYzdO-1" vertex="1" connectable="0">
          <mxGeometry x="120" y="120" width="560" height="45" as="geometry" />
        </mxCell>
        <mxCell id="jowXqJ20TuIoa2uGYzdO-15" value="&lt;font style=&quot;font-size: 12px&quot;&gt;Base Logical Module - Development - Classes - ORM Entities -&amp;nbsp;Status Information Elements&lt;/font&gt;" style="text;strokeColor=none;fillColor=none;html=1;fontSize=24;fontStyle=1;verticalAlign=middle;align=left;shadow=0;glass=0;comic=0;opacity=30;fontColor=#808080;" parent="jowXqJ20TuIoa2uGYzdO-14" vertex="1">
          <mxGeometry width="560" height="40" as="geometry" />
        </mxCell>
        <mxCell id="jowXqJ20TuIoa2uGYzdO-16" value="" style="line;strokeWidth=2;html=1;shadow=0;glass=0;comic=0;fillColor=none;fontSize=10;fontColor=#CCCCCC;labelBackgroundColor=none;strokeColor=#CCCCCC;" parent="jowXqJ20TuIoa2uGYzdO-14" vertex="1">
          <mxGeometry y="35" width="560" height="10" as="geometry" />
        </mxCell>
        <mxCell id="jowXqJ20TuIoa2uGYzdO-2" value="[System]&lt;br style=&quot;font-size: 12px&quot;&gt;Status" style="swimlane;fontStyle=0;childLayout=stackLayout;horizontal=1;startSize=26;fillColor=none;horizontalStack=0;resizeParent=1;resizeParentMax=0;resizeLast=0;collapsible=0;marginBottom=0;strokeColor=#82b366;fontSize=12;align=center;fontFamily=Helvetica;fontColor=#000000;strokeWidth=3;html=1;" parent="jowXqJ20TuIoa2uGYzdO-1" vertex="1">
          <mxGeometry x="240" y="260" width="80" height="60" as="geometry" />
        </mxCell>
        <mxCell id="jowXqJ20TuIoa2uGYzdO-3" value="[System]&lt;br&gt;Operation &lt;br&gt;Status" style="swimlane;fontStyle=0;childLayout=stackLayout;horizontal=1;startSize=26;fillColor=none;horizontalStack=0;resizeParent=1;resizeParentMax=0;resizeLast=0;collapsible=0;marginBottom=0;strokeColor=#82b366;fontSize=12;align=center;fontFamily=Helvetica;fontColor=#000000;strokeWidth=3;html=1;" parent="jowXqJ20TuIoa2uGYzdO-1" vertex="1">
          <mxGeometry x="480" y="260" width="80" height="60" as="geometry" />
        </mxCell>
        <mxCell id="jowXqJ20TuIoa2uGYzdO-4" value="[System]&lt;br&gt;Queued&lt;br style=&quot;font-size: 12px&quot;&gt;Status" style="swimlane;fontStyle=0;childLayout=stackLayout;horizontal=1;startSize=26;fillColor=none;horizontalStack=0;resizeParent=1;resizeParentMax=0;resizeLast=0;collapsible=0;marginBottom=0;strokeColor=#82b366;fontSize=12;align=center;fontFamily=Helvetica;fontColor=#000000;strokeWidth=3;html=1;" parent="jowXqJ20TuIoa2uGYzdO-1" vertex="1">
          <mxGeometry x="360" y="260" width="80" height="60" as="geometry" />
        </mxCell>
      </root>
    </mxGraphModel>
  </diagram>
  <diagram id="m2XD0kf5lcB4Mmk3mK82" name="Development/Classes/ORM Entities/System Settings">
    <mxGraphModel dx="1130" dy="406" grid="1" gridSize="10" guides="1" tooltips="1" connect="1" arrows="1" fold="1" page="1" pageScale="1" pageWidth="850" pageHeight="1100" math="0" shadow="0">
      <root>
        <mxCell id="m9-KAMRzvo0R7DmE43s4-0" />
        <mxCell id="m9-KAMRzvo0R7DmE43s4-1" value="Diagram" parent="m9-KAMRzvo0R7DmE43s4-0" />
        <mxCell id="m9-KAMRzvo0R7DmE43s4-2" value="Settings" style="rounded=1;whiteSpace=wrap;html=1;shadow=0;glass=0;comic=0;strokeColor=#B3B3B3;fillColor=none;fontSize=10;align=left;dashed=1;verticalAlign=top;container=1;recursiveResize=0;collapsible=0;" parent="m9-KAMRzvo0R7DmE43s4-1" vertex="1">
          <mxGeometry x="120" y="240" width="360" height="120" as="geometry" />
        </mxCell>
        <mxCell id="m9-KAMRzvo0R7DmE43s4-3" value="[System]&lt;br style=&quot;font-size: 12px;&quot;&gt;Sponsor&lt;br style=&quot;font-size: 12px;&quot;&gt;Settings" style="swimlane;fontStyle=0;childLayout=stackLayout;horizontal=1;startSize=26;fillColor=none;horizontalStack=0;resizeParent=1;resizeParentMax=0;resizeLast=0;collapsible=0;marginBottom=0;strokeColor=#82b366;fontSize=12;align=center;fontFamily=Helvetica;fontColor=#000000;strokeWidth=3;html=1;recursiveResize=0;" parent="m9-KAMRzvo0R7DmE43s4-2" vertex="1">
          <mxGeometry x="20" y="20" width="80" height="90" as="geometry" />
        </mxCell>
        <mxCell id="m9-KAMRzvo0R7DmE43s4-4" value="[System]&lt;br style=&quot;font-size: 12px;&quot;&gt;Vendor/Reseller&lt;br style=&quot;font-size: 12px;&quot;&gt;Settings" style="swimlane;fontStyle=0;childLayout=stackLayout;horizontal=1;startSize=26;fillColor=none;horizontalStack=0;resizeParent=1;resizeParentMax=0;resizeLast=0;collapsible=0;marginBottom=0;strokeColor=#82b366;fontSize=12;align=center;fontFamily=Helvetica;fontColor=#000000;strokeWidth=3;html=1;recursiveResize=0;" parent="m9-KAMRzvo0R7DmE43s4-2" vertex="1">
          <mxGeometry x="140" y="20" width="80" height="90" as="geometry" />
        </mxCell>
        <mxCell id="m9-KAMRzvo0R7DmE43s4-5" value="[System]&lt;br style=&quot;font-size: 12px;&quot;&gt;System&lt;br style=&quot;font-size: 12px;&quot;&gt;Settings" style="swimlane;fontStyle=0;childLayout=stackLayout;horizontal=1;startSize=26;fillColor=none;horizontalStack=0;resizeParent=1;resizeParentMax=0;resizeLast=0;collapsible=0;marginBottom=0;strokeColor=#82b366;fontSize=12;align=center;fontFamily=Helvetica;fontColor=#000000;strokeWidth=3;html=1;recursiveResize=0;" parent="m9-KAMRzvo0R7DmE43s4-2" vertex="1">
          <mxGeometry x="260" y="20" width="80" height="90" as="geometry" />
        </mxCell>
        <mxCell id="m9-KAMRzvo0R7DmE43s4-6" value="&lt;font style=&quot;font-size: 11px&quot;&gt;&lt;font color=&quot;#b3b3b3&quot; style=&quot;font-size: 11px&quot;&gt;Use local host configuration ONLY for insecure configuration settings (use an external Secure Storage for configuration Secrets).&lt;/font&gt;&lt;br style=&quot;font-size: 11px&quot;&gt;&lt;/font&gt;" style="shape=note;whiteSpace=wrap;html=1;size=14;verticalAlign=top;align=left;spacingTop=-6;strokeColor=#CCCCCC;fillColor=none;fontSize=11;fontColor=#000000;" parent="m9-KAMRzvo0R7DmE43s4-1" vertex="1">
          <mxGeometry x="510" y="260" width="130" height="80" as="geometry" />
        </mxCell>
        <mxCell id="m9-KAMRzvo0R7DmE43s4-19" style="edgeStyle=none;rounded=0;orthogonalLoop=1;jettySize=auto;html=1;startArrow=none;startFill=0;endArrow=none;endFill=0;strokeColor=#B3B3B3;fontSize=12;fontColor=#CCCCCC;" parent="m9-KAMRzvo0R7DmE43s4-1" source="m9-KAMRzvo0R7DmE43s4-6" target="m9-KAMRzvo0R7DmE43s4-5" edge="1">
          <mxGeometry relative="1" as="geometry" />
        </mxCell>
        <mxCell id="m9-KAMRzvo0R7DmE43s4-21" value="Title/Diagram" parent="m9-KAMRzvo0R7DmE43s4-0" />
        <mxCell id="m9-KAMRzvo0R7DmE43s4-15" value="&lt;font style=&quot;font-size: 12px&quot;&gt;Diagram: Base System Logical Module - Development - Classes - ORM Entities - &lt;br&gt;Sponsor, Reseller, System Settings&lt;/font&gt;" style="text;strokeColor=none;fillColor=none;html=1;fontSize=12;fontStyle=2;verticalAlign=middle;align=left;shadow=0;glass=0;comic=0;opacity=30;fontColor=#808080;" parent="m9-KAMRzvo0R7DmE43s4-21" vertex="1">
          <mxGeometry x="120" y="420" width="520" height="20" as="geometry" />
        </mxCell>
        <mxCell id="m9-KAMRzvo0R7DmE43s4-22" value="Title/Page" parent="m9-KAMRzvo0R7DmE43s4-0" visible="0" />
        <mxCell id="m9-KAMRzvo0R7DmE43s4-16" value="" style="group;fontSize=10;" parent="m9-KAMRzvo0R7DmE43s4-22" vertex="1" connectable="0">
          <mxGeometry x="120" y="120" width="560" height="45" as="geometry" />
        </mxCell>
        <mxCell id="m9-KAMRzvo0R7DmE43s4-17" value="&lt;font style=&quot;font-size: 12px&quot;&gt;Base Logical Module - Development - Classes - ORM Entities -&lt;br&gt;Sponsor, Reseller, System Settings&lt;/font&gt;" style="text;strokeColor=none;fillColor=none;html=1;fontSize=12;fontStyle=1;verticalAlign=middle;align=left;shadow=0;glass=0;comic=0;opacity=30;fontColor=#808080;" parent="m9-KAMRzvo0R7DmE43s4-16" vertex="1">
          <mxGeometry width="560" height="40" as="geometry" />
        </mxCell>
        <mxCell id="m9-KAMRzvo0R7DmE43s4-18" value="" style="line;strokeWidth=2;html=1;shadow=0;glass=0;comic=0;fillColor=none;fontSize=10;fontColor=#CCCCCC;labelBackgroundColor=none;strokeColor=#CCCCCC;" parent="m9-KAMRzvo0R7DmE43s4-16" vertex="1">
          <mxGeometry y="35" width="560" height="10" as="geometry" />
        </mxCell>
        <mxCell id="m9-KAMRzvo0R7DmE43s4-23" value="Context/Legend" parent="m9-KAMRzvo0R7DmE43s4-0" />
        <mxCell id="m9-KAMRzvo0R7DmE43s4-7" value="" style="rounded=0;whiteSpace=wrap;html=1;fontSize=10;align=left;container=1;collapsible=0;fontColor=#B3B3B3;strokeColor=#B3B3B3;" parent="m9-KAMRzvo0R7DmE43s4-23" vertex="1">
          <mxGeometry x="440" y="180" width="240" height="50" as="geometry" />
        </mxCell>
        <mxCell id="m9-KAMRzvo0R7DmE43s4-8" value="" style="whiteSpace=wrap;html=1;aspect=fixed;fillColor=none;strokeColor=#82b366;fontSize=10;align=left;fontStyle=2;strokeWidth=2;" parent="m9-KAMRzvo0R7DmE43s4-7" vertex="1">
          <mxGeometry x="13.294460641399398" y="16.666666666666668" width="8.333333333333334" height="8.333333333333334" as="geometry" />
        </mxCell>
        <mxCell id="m9-KAMRzvo0R7DmE43s4-9" value="" style="whiteSpace=wrap;html=1;aspect=fixed;fillColor=none;strokeColor=#d6b656;fontSize=10;align=left;fontStyle=2;strokeWidth=2;" parent="m9-KAMRzvo0R7DmE43s4-7" vertex="1">
          <mxGeometry x="13.294460641399398" y="28" width="8.333333333333334" height="8.333333333333334" as="geometry" />
        </mxCell>
        <mxCell id="m9-KAMRzvo0R7DmE43s4-10" value="" style="whiteSpace=wrap;html=1;aspect=fixed;fillColor=none;strokeColor=#6c8ebf;fontSize=10;align=left;fontStyle=2;strokeWidth=2;" parent="m9-KAMRzvo0R7DmE43s4-7" vertex="1">
          <mxGeometry x="13.294460641399398" y="39.333333333333336" width="8.333333333333334" height="8.333333333333334" as="geometry" />
        </mxCell>
        <mxCell id="m9-KAMRzvo0R7DmE43s4-11" value="Internal, System (underlying optional Tenants)&amp;nbsp;" style="text;html=1;strokeColor=none;fillColor=none;align=left;verticalAlign=middle;whiteSpace=wrap;rounded=0;fontSize=10;fontStyle=2;fontColor=#B3B3B3;" parent="m9-KAMRzvo0R7DmE43s4-7" vertex="1">
          <mxGeometry x="26.5945189504373" y="16.666666666666668" width="213.40548104956264" height="8.333333333333334" as="geometry" />
        </mxCell>
        <mxCell id="m9-KAMRzvo0R7DmE43s4-12" value="Internal, (optionally) Tenanted" style="text;html=1;strokeColor=none;fillColor=none;align=left;verticalAlign=middle;whiteSpace=wrap;rounded=0;fontSize=10;fontStyle=2;fontColor=#B3B3B3;" parent="m9-KAMRzvo0R7DmE43s4-7" vertex="1">
          <mxGeometry x="26.59" y="30" width="213.41" height="6.33" as="geometry" />
        </mxCell>
        <mxCell id="m9-KAMRzvo0R7DmE43s4-13" value="External, Versioned Contracts/Msgs" style="text;html=1;strokeColor=none;fillColor=none;align=left;verticalAlign=middle;whiteSpace=wrap;rounded=0;fontSize=10;fontStyle=2;fontColor=#B3B3B3;" parent="m9-KAMRzvo0R7DmE43s4-7" vertex="1">
          <mxGeometry x="26.5945189504373" y="39.333333333333336" width="213.40548104956264" height="8.333333333333334" as="geometry" />
        </mxCell>
        <mxCell id="m9-KAMRzvo0R7DmE43s4-14" value="Legend" style="text;html=1;strokeColor=none;fillColor=none;align=center;verticalAlign=middle;whiteSpace=wrap;rounded=0;fontSize=10;fontStyle=5;fontColor=#B3B3B3;" parent="m9-KAMRzvo0R7DmE43s4-7" vertex="1">
          <mxGeometry x="26.588921282798815" width="159.53352769679296" height="16.666666666666668" as="geometry" />
        </mxCell>
        <mxCell id="m9-KAMRzvo0R7DmE43s4-24" value="About" parent="m9-KAMRzvo0R7DmE43s4-0" />
        <UserObject label="" tooltip="ABOUT&#xa;&#xa;Sponsors are the organisation/agency that funded the development of the system.&#xa;&#xa;Resellers can be vendors, resellers, intermediaries or simply other government Agencies.&#xa;&#xa;&#xa;&#xa;Some settings are derived from values embedded in Assemblies/dlls. But there are times where the value should be dynamically set (eg: sales of companies) -- at least until the code can be recompiled, and redelivered. &#xa;&#xa;&#xa;&#xa;Sponsor, Reseller, System settings -- which include configuration settings -- should never include Secret values (ever!) or even Account information. For example neither a 3rd party Account Id or Password to their service should be embedded in code. It should be retrieved from a 3rd party secure storage service (eg: Azure&#39;s KeyVault service).&#xa;&#xa; " id="m9-KAMRzvo0R7DmE43s4-20">
          <mxCell style="shape=image;html=1;verticalAlign=top;verticalLabelPosition=bottom;labelBackgroundColor=#ffffff;imageAspect=0;aspect=fixed;image=https://cdn1.iconfinder.com/data/icons/hawcons/32/699014-icon-28-information-128.png;shadow=0;dashed=0;fontFamily=Helvetica;fontSize=12;fontColor=#000000;align=center;strokeColor=#000000;fillColor=#505050;dashPattern=1 1;" parent="m9-KAMRzvo0R7DmE43s4-24" vertex="1">
            <mxGeometry x="660" y="420" width="20" height="20" as="geometry" />
          </mxCell>
        </UserObject>
      </root>
    </mxGraphModel>
  </diagram>
  <diagram id="EhuzLK8sfPOgFUbu7rDK" name="Development/Classes/ORM Entities/T&amp;C">
    <mxGraphModel dx="1130" dy="406" grid="1" gridSize="10" guides="1" tooltips="1" connect="1" arrows="1" fold="1" page="1" pageScale="1" pageWidth="850" pageHeight="1100" math="0" shadow="0">
      <root>
        <mxCell id="gmGTXndIcd1F-poQSKCD-0" />
        <mxCell id="gmGTXndIcd1F-poQSKCD-1" value="Diagram" parent="gmGTXndIcd1F-poQSKCD-0" />
        <mxCell id="gmGTXndIcd1F-poQSKCD-2" value="Principal" style="rounded=1;whiteSpace=wrap;html=1;strokeColor=#999999;strokeWidth=1;fillColor=none;dashed=1;verticalAlign=top;align=left;spacingLeft=16;spacing=0;spacingTop=-5;fontColor=#808080;arcSize=16;absoluteArcSize=1;collapsible=0;container=1;recursiveResize=0;fontSize=12;" parent="gmGTXndIcd1F-poQSKCD-1" vertex="1">
          <mxGeometry x="120" y="240" width="100" height="70" as="geometry">
            <mxRectangle x="30" y="340" width="90" height="10" as="alternateBounds" />
          </mxGeometry>
        </mxCell>
        <mxCell id="gmGTXndIcd1F-poQSKCD-3" value="[System]&lt;br style=&quot;font-size: 12px;&quot;&gt;Principal" style="html=1;strokeColor=#82b366;fillColor=none;fontSize=12;strokeWidth=3;" parent="gmGTXndIcd1F-poQSKCD-2" vertex="1">
          <mxGeometry x="10" y="20" width="80" height="40" as="geometry" />
        </mxCell>
        <mxCell id="gmGTXndIcd1F-poQSKCD-4" value="Agreements/Disclosures" style="rounded=1;whiteSpace=wrap;html=1;strokeColor=#999999;strokeWidth=1;fillColor=none;dashed=1;verticalAlign=top;align=left;spacingLeft=16;spacing=0;spacingTop=-5;fontColor=#808080;arcSize=16;absoluteArcSize=1;collapsible=0;container=1;recursiveResize=0;fontSize=12;" parent="gmGTXndIcd1F-poQSKCD-1" vertex="1">
          <mxGeometry x="230" y="240" width="340" height="70" as="geometry">
            <mxRectangle x="30" y="340" width="90" height="10" as="alternateBounds" />
          </mxGeometry>
        </mxCell>
        <mxCell id="gmGTXndIcd1F-poQSKCD-5" style="edgeStyle=none;rounded=1;orthogonalLoop=1;jettySize=auto;html=1;entryX=0;entryY=0.5;entryDx=0;entryDy=0;startArrow=ERmany;startFill=0;endArrow=ERmandOne;endFill=0;strokeColor=#B3B3B3;strokeWidth=1;fontFamily=Courier New;fontSize=12;fontColor=#B3B3B3;" parent="gmGTXndIcd1F-poQSKCD-4" source="gmGTXndIcd1F-poQSKCD-6" target="gmGTXndIcd1F-poQSKCD-8" edge="1">
          <mxGeometry relative="1" as="geometry" />
        </mxCell>
        <mxCell id="gmGTXndIcd1F-poQSKCD-6" value="[System]&lt;br style=&quot;font-size: 12px;&quot;&gt;Statement &lt;br style=&quot;font-size: 12px;&quot;&gt;Assignment" style="html=1;strokeColor=#82b366;fillColor=none;fontSize=12;strokeWidth=3;" parent="gmGTXndIcd1F-poQSKCD-4" vertex="1">
          <mxGeometry x="10" y="20" width="80" height="40" as="geometry" />
        </mxCell>
        <mxCell id="gmGTXndIcd1F-poQSKCD-7" style="edgeStyle=none;rounded=1;orthogonalLoop=1;jettySize=auto;html=1;startArrow=ERmany;startFill=0;endArrow=ERmandOne;endFill=0;strokeColor=#B3B3B3;strokeWidth=1;fontFamily=Courier New;fontSize=12;fontColor=#B3B3B3;" parent="gmGTXndIcd1F-poQSKCD-4" source="gmGTXndIcd1F-poQSKCD-8" target="gmGTXndIcd1F-poQSKCD-9" edge="1">
          <mxGeometry relative="1" as="geometry" />
        </mxCell>
        <mxCell id="gmGTXndIcd1F-poQSKCD-8" value="[System]&lt;br style=&quot;font-size: 12px;&quot;&gt;Statement " style="html=1;strokeColor=#82b366;fillColor=none;fontSize=12;strokeWidth=3;" parent="gmGTXndIcd1F-poQSKCD-4" vertex="1">
          <mxGeometry x="130" y="20" width="80" height="40" as="geometry" />
        </mxCell>
        <mxCell id="gmGTXndIcd1F-poQSKCD-9" value="[System]&lt;br style=&quot;font-size: 12px;&quot;&gt;StatementType" style="html=1;strokeColor=#82b366;fillColor=none;fontSize=12;strokeWidth=3;" parent="gmGTXndIcd1F-poQSKCD-4" vertex="1">
          <mxGeometry x="250" y="20" width="80" height="40" as="geometry" />
        </mxCell>
        <mxCell id="gmGTXndIcd1F-poQSKCD-22" style="edgeStyle=none;rounded=1;orthogonalLoop=1;jettySize=auto;html=1;entryX=1;entryY=0.5;entryDx=0;entryDy=0;startArrow=ERmany;startFill=0;endArrow=ERmandOne;endFill=0;strokeColor=#B3B3B3;strokeWidth=1;fontFamily=Courier New;fontSize=12;fontColor=#B3B3B3;" parent="gmGTXndIcd1F-poQSKCD-1" source="gmGTXndIcd1F-poQSKCD-6" target="gmGTXndIcd1F-poQSKCD-3" edge="1">
          <mxGeometry relative="1" as="geometry">
            <mxPoint x="330.1666259765625" y="290" as="sourcePoint" />
            <mxPoint x="370.1666259765625" y="290" as="targetPoint" />
          </mxGeometry>
        </mxCell>
        <mxCell id="gmGTXndIcd1F-poQSKCD-24" value="Title/Diagram" parent="gmGTXndIcd1F-poQSKCD-0" />
        <mxCell id="gmGTXndIcd1F-poQSKCD-18" value="&lt;font style=&quot;font-size: 12px&quot;&gt;Diagram: Base Ssytem Logical Module - Development - Classes - ORM Entities - &lt;br&gt;User Consents, Terms&amp;amp; Conditions, Disclosures&lt;/font&gt;" style="text;strokeColor=none;fillColor=none;html=1;fontSize=12;fontStyle=2;verticalAlign=middle;align=left;shadow=0;glass=0;comic=0;opacity=30;fontColor=#808080;" parent="gmGTXndIcd1F-poQSKCD-24" vertex="1">
          <mxGeometry x="120" y="340" width="520" height="20" as="geometry" />
        </mxCell>
        <mxCell id="gmGTXndIcd1F-poQSKCD-25" value="Title/Page" parent="gmGTXndIcd1F-poQSKCD-0" />
        <UserObject label="" tooltip="ABOUT&#xa;&#xa;Due to various regulations (NZ Privacy Act, GDRP, etc.) End users are required to be presented with Statements as to what their personal data will be used for, how they will be tracked (using Cookies), who the information will be shared with, how long it will kept, etc.  They also have to be presented with Terms and Conditions as to what Behaviour is acceptable or not (eg, flaming, posting personal information, inappropriate language, etc).&#xa;&#xa;&#xa;&#xa;Each time a Statement is refined, changing the conditions of the agreement between service providers and client users, they have to be presented with the new terms, to which they have to agree to before continuing. An Assignment Join table is used to record the Date at which the Statement was presented, what the result was (Accepted or not-yet).&#xa;&#xa;&#xa;&#xa;The system should log them out or the UX block them from continuing if they don&#39;t accept the new Agreement.&#xa;&#xa;&#xa;&#xa;Statements include:&#xa;&#xa;- Terms and Conditions&#xa;&#xa;- Privacy Statement&#xa;&#xa;- Tracking/Cookie Statement&#xa;&#xa;- Information Collected By, For Use, Shared with, Rectification, Erasure, Right to Restrict access/Use to Statement&#xa;&#xa;- Right to object at being processed (eg: collect behaviour information to inform searches)&#xa;&#xa;- Data Breach Disclosures&#xa;&#xa;- Right to Data in machine readable format being exported for import to another system.&#xa;&#xa;- GDPR Right to be Forgotten (if dual nationality, etc.)" id="gmGTXndIcd1F-poQSKCD-19">
          <mxCell style="group;fontSize=12;" parent="gmGTXndIcd1F-poQSKCD-25" vertex="1" connectable="0">
            <mxGeometry x="120" y="120" width="560" height="45" as="geometry" />
          </mxCell>
        </UserObject>
        <mxCell id="gmGTXndIcd1F-poQSKCD-20" value="&lt;font style=&quot;font-size: 12px&quot;&gt;Base Logical Module - Development - Classes - ORM Entities - &lt;br&gt;User Consents, Terms&amp;amp; Conditions, Disclosures&lt;/font&gt;" style="text;strokeColor=none;fillColor=none;html=1;fontSize=12;fontStyle=1;verticalAlign=middle;align=left;shadow=0;glass=0;comic=0;opacity=30;fontColor=#808080;" parent="gmGTXndIcd1F-poQSKCD-19" vertex="1">
          <mxGeometry width="560" height="40" as="geometry" />
        </mxCell>
        <mxCell id="gmGTXndIcd1F-poQSKCD-21" value="" style="line;strokeWidth=2;html=1;shadow=0;glass=0;comic=0;fillColor=none;fontSize=12;fontColor=#CCCCCC;labelBackgroundColor=none;strokeColor=#CCCCCC;" parent="gmGTXndIcd1F-poQSKCD-19" vertex="1">
          <mxGeometry y="35" width="560" height="10" as="geometry" />
        </mxCell>
        <mxCell id="gmGTXndIcd1F-poQSKCD-26" value="Context/Legend" parent="gmGTXndIcd1F-poQSKCD-0" />
        <mxCell id="gmGTXndIcd1F-poQSKCD-10" value="" style="rounded=0;whiteSpace=wrap;html=1;fontSize=10;align=left;container=1;collapsible=0;fontColor=#B3B3B3;strokeColor=#B3B3B3;" parent="gmGTXndIcd1F-poQSKCD-26" vertex="1">
          <mxGeometry x="440" y="180" width="240" height="50" as="geometry" />
        </mxCell>
        <mxCell id="gmGTXndIcd1F-poQSKCD-11" value="" style="whiteSpace=wrap;html=1;aspect=fixed;fillColor=none;strokeColor=#82b366;fontSize=10;align=left;fontStyle=2;strokeWidth=2;" parent="gmGTXndIcd1F-poQSKCD-10" vertex="1">
          <mxGeometry x="13.294460641399398" y="16.666666666666668" width="8.333333333333334" height="8.333333333333334" as="geometry" />
        </mxCell>
        <mxCell id="gmGTXndIcd1F-poQSKCD-12" value="" style="whiteSpace=wrap;html=1;aspect=fixed;fillColor=none;strokeColor=#d6b656;fontSize=10;align=left;fontStyle=2;strokeWidth=2;" parent="gmGTXndIcd1F-poQSKCD-10" vertex="1">
          <mxGeometry x="13.294460641399398" y="28" width="8.333333333333334" height="8.333333333333334" as="geometry" />
        </mxCell>
        <mxCell id="gmGTXndIcd1F-poQSKCD-13" value="" style="whiteSpace=wrap;html=1;aspect=fixed;fillColor=none;strokeColor=#6c8ebf;fontSize=10;align=left;fontStyle=2;strokeWidth=2;" parent="gmGTXndIcd1F-poQSKCD-10" vertex="1">
          <mxGeometry x="13.294460641399398" y="39.333333333333336" width="8.333333333333334" height="8.333333333333334" as="geometry" />
        </mxCell>
        <mxCell id="gmGTXndIcd1F-poQSKCD-14" value="Internal, System (underlying optional Tenants)&amp;nbsp;" style="text;html=1;strokeColor=none;fillColor=none;align=left;verticalAlign=middle;whiteSpace=wrap;rounded=0;fontSize=10;fontStyle=2;fontColor=#B3B3B3;" parent="gmGTXndIcd1F-poQSKCD-10" vertex="1">
          <mxGeometry x="26.5945189504373" y="16.666666666666668" width="213.40548104956264" height="8.333333333333334" as="geometry" />
        </mxCell>
        <mxCell id="gmGTXndIcd1F-poQSKCD-15" value="Internal, (optionally) Tenanted" style="text;html=1;strokeColor=none;fillColor=none;align=left;verticalAlign=middle;whiteSpace=wrap;rounded=0;fontSize=10;fontStyle=2;fontColor=#B3B3B3;" parent="gmGTXndIcd1F-poQSKCD-10" vertex="1">
          <mxGeometry x="26.59" y="30" width="213.41" height="6.33" as="geometry" />
        </mxCell>
        <mxCell id="gmGTXndIcd1F-poQSKCD-16" value="External, Versioned Contracts/Msgs" style="text;html=1;strokeColor=none;fillColor=none;align=left;verticalAlign=middle;whiteSpace=wrap;rounded=0;fontSize=10;fontStyle=2;fontColor=#B3B3B3;" parent="gmGTXndIcd1F-poQSKCD-10" vertex="1">
          <mxGeometry x="26.5945189504373" y="39.333333333333336" width="213.40548104956264" height="8.333333333333334" as="geometry" />
        </mxCell>
        <mxCell id="gmGTXndIcd1F-poQSKCD-17" value="Legend" style="text;html=1;strokeColor=none;fillColor=none;align=center;verticalAlign=middle;whiteSpace=wrap;rounded=0;fontSize=10;fontStyle=5;fontColor=#B3B3B3;" parent="gmGTXndIcd1F-poQSKCD-10" vertex="1">
          <mxGeometry x="26.588921282798815" width="159.53352769679296" height="16.666666666666668" as="geometry" />
        </mxCell>
        <mxCell id="gmGTXndIcd1F-poQSKCD-27" value="About" parent="gmGTXndIcd1F-poQSKCD-0" />
        <UserObject label="" tooltip="" id="gmGTXndIcd1F-poQSKCD-23">
          <mxCell style="shape=image;html=1;verticalAlign=top;verticalLabelPosition=bottom;labelBackgroundColor=#ffffff;imageAspect=0;aspect=fixed;image=https://cdn1.iconfinder.com/data/icons/hawcons/32/699014-icon-28-information-128.png;shadow=0;dashed=0;fontFamily=Helvetica;fontSize=12;fontColor=#000000;align=center;strokeColor=#000000;fillColor=#505050;dashPattern=1 1;" parent="gmGTXndIcd1F-poQSKCD-27" vertex="1">
            <mxGeometry x="660" y="340" width="20" height="20" as="geometry" />
          </mxCell>
        </UserObject>
      </root>
    </mxGraphModel>
  </diagram>
</mxfile>
